<svg id="diagram1" width="1487" xmlns="http://www.w3.org/2000/svg" height="2083" viewBox="-30 -24 1487 2083" role="graphics-document document" aria-roledescription="sequence"><rect x="418" y="1323" fill="rgb(234,247,239)" width="970" height="712" class="rect"></rect><rect x="49" y="498" fill="rgb(255,247,234)" width="1360.5" height="815" class="rect"></rect><rect x="59" y="76" fill="rgb(239,246,255)" width="676" height="412" class="rect"></rect><g><line id="actor6" x1="1357" y1="66" x2="1357" y2="2000" class="actor-line 200" stroke-width="0.5px" stroke="#999" name="X" data-et="life-line" data-id="X"></line><g id="root-6" data-et="participant" data-type="participant" data-id="X"><rect x="1287" y="0" fill="#eaeaea" stroke="#666" width="140" height="66" name="X" rx="3" ry="3" class="actor actor-top"></rect><text x="1357" y="33" dominant-baseline="central" alignment-baseline="central" class="actor actor-box" style="text-anchor: middle; font-size: 16px; font-weight: 400;"><tspan x="1357" dy="0">端侧执行与车辆</tspan></text></g></g><g><line id="actor5" x1="1152" y1="66" x2="1152" y2="2000" class="actor-line 200" stroke-width="0.5px" stroke="#999" name="V" data-et="life-line" data-id="V"></line><g id="root-5" data-et="participant" data-type="participant" data-id="V"><rect x="1082" y="0" fill="#eaeaea" stroke="#666" width="140" height="66" name="V" rx="3" ry="3" class="actor actor-top"></rect><text x="1152" y="33" dominant-baseline="central" alignment-baseline="central" class="actor actor-box" style="text-anchor: middle; font-size: 16px; font-weight: 400;"><tspan x="1152" dy="0">本地语音能力</tspan></text></g></g><g><line id="actor4" x1="929" y1="66" x2="929" y2="2000" class="actor-line 200" stroke-width="0.5px" stroke="#999" name="C" data-et="life-line" data-id="C"></line><g id="root-4" data-et="participant" data-type="participant" data-id="C"><rect x="859" y="0" fill="#eaeaea" stroke="#666" width="140" height="66" name="C" rx="3" ry="3" class="actor actor-top"></rect><text x="929" y="33" dominant-baseline="central" alignment-baseline="central" class="actor actor-box" style="text-anchor: middle; font-size: 16px; font-weight: 400;"><tspan x="929" dy="0">车机即时交互卡</tspan></text></g></g><g><line id="actor3" x1="724" y1="66" x2="724" y2="2000" class="actor-line 200" stroke-width="0.5px" stroke="#999" name="D" data-et="life-line" data-id="D"></line><g id="root-3" data-et="participant" data-type="participant" data-id="D"><rect x="654" y="0" fill="#eaeaea" stroke="#666" width="140" height="66" name="D" rx="3" ry="3" class="actor actor-top"></rect><text x="724" y="33" dominant-baseline="central" alignment-baseline="central" class="actor actor-box" style="text-anchor: middle; font-size: 16px; font-weight: 400;"><tspan x="724" dy="0">车况与视觉数据</tspan></text></g></g><g><line id="actor2" x1="498" y1="66" x2="498" y2="2000" class="actor-line 200" stroke-width="0.5px" stroke="#999" name="B" data-et="life-line" data-id="B"></line><g id="root-2" data-et="participant" data-type="participant" data-id="B"><rect x="428" y="0" fill="#eaeaea" stroke="#666" width="140" height="66" name="B" rx="3" ry="3" class="actor actor-top"></rect><text x="498" y="33" dominant-baseline="central" alignment-baseline="central" class="actor actor-box" style="text-anchor: middle; font-size: 16px; font-weight: 400;"><tspan x="498" dy="0">天气处理与触发器</tspan></text></g></g><g><line id="actor1" x1="275" y1="66" x2="275" y2="2000" class="actor-line 200" stroke-width="0.5px" stroke="#999" name="T" data-et="life-line" data-id="T"></line><g id="root-1" data-et="participant" data-type="participant" data-id="T"><rect x="205" y="0" fill="#eaeaea" stroke="#666" width="140" height="66" name="T" rx="3" ry="3" class="actor actor-top"></rect><text x="275" y="33" dominant-baseline="central" alignment-baseline="central" class="actor actor-box" style="text-anchor: middle; font-size: 16px; font-weight: 400;"><tspan x="275" dy="0">任务中心</tspan></text></g></g><g><line id="actor0" x1="70" y1="66" x2="70" y2="2000" class="actor-line 200" stroke-width="0.5px" stroke="#999" name="U" data-et="life-line" data-id="U"></line><g id="root-0" data-et="participant" data-type="participant" data-id="U"><rect x="0" y="0" fill="#eaeaea" stroke="#666" width="140" height="66" name="U" rx="3" ry="3" class="actor actor-top"></rect><text x="70" y="33" dominant-baseline="central" alignment-baseline="central" class="actor actor-box" style="text-anchor: middle; font-size: 16px; font-weight: 400;"><tspan x="70" dy="0">用户</tspan></text></g></g><style>#diagram1{font-family:Arial,PingFang SC,sans-serif;font-size:17px;fill:#162b46;}@keyframes edge-animation-frame{from{stroke-dashoffset:0;}}@keyframes dash{to{stroke-dashoffset:0;}}#diagram1 .edge-animation-slow{stroke-dasharray:9,5!important;stroke-dashoffset:900;animation:dash 50s linear infinite;stroke-linecap:round;}#diagram1 .edge-animation-fast{stroke-dasharray:9,5!important;stroke-dashoffset:900;animation:dash 20s linear infinite;stroke-linecap:round;}#diagram1 .error-icon{fill:#edf7f1;}#diagram1 .error-text{fill:#12080e;stroke:#12080e;}#diagram1 .edge-thickness-normal{stroke-width:1px;}#diagram1 .edge-thickness-thick{stroke-width:3.5px;}#diagram1 .edge-pattern-solid{stroke-dasharray:0;}#diagram1 .edge-thickness-invisible{stroke-width:0;fill:none;}#diagram1 .edge-pattern-dashed{stroke-dasharray:3;}#diagram1 .edge-pattern-dotted{stroke-dasharray:2;}#diagram1 .marker{fill:#63758a;stroke:#63758a;}#diagram1 .marker.cross{stroke:#63758a;}#diagram1 svg{font-family:Arial,PingFang SC,sans-serif;font-size:17px;}#diagram1 p{margin:0;}#diagram1 .actor{stroke:#7796be;fill:#f1f5ff;stroke-width:1;}#diagram1 rect.actor.outer-path[data-look="neo"]{filter:drop-shadow( 1px 2px 2px rgba(185,185,185,1));}#diagram1 rect.note[data-look="neo"]{stroke:#cdbd83;fill:#fff6d9;filter:drop-shadow( 1px 2px 2px rgba(185,185,185,1));}#diagram1 text.actor&gt;tspan{fill:#16314b;stroke:none;}#diagram1 .actor-line{stroke:#7796be;}#diagram1 .innerArc{stroke-width:1.5;stroke-dasharray:none;}#diagram1 .messageLine0{stroke-width:1.5;stroke-dasharray:none;stroke:#162b46;}#diagram1 .messageLine1{stroke-width:1.5;stroke-dasharray:2,2;stroke:#162b46;}#diagram1 [id$="-arrowhead"] path{fill:#162b46;stroke:#162b46;}#diagram1 .sequenceNumber{fill:#9c8a75;}#diagram1 [id$="-sequencenumber"]{fill:#162b46;}#diagram1 [id$="-crosshead"] path{fill:#162b46;stroke:#162b46;}#diagram1 .messageText{fill:#162b46;stroke:none;}#diagram1 .labelBox{stroke:#7796be;fill:#f1f5ff;filter:none;}#diagram1 .labelText,#diagram1 .labelText&gt;tspan{fill:#16314b;stroke:none;}#diagram1 .loopText,#diagram1 .loopText&gt;tspan{fill:#16314b;stroke:none;}#diagram1 .sectionTitle,#diagram1 .sectionTitle&gt;tspan{fill:#16314b;stroke:none;}#diagram1 .loopLine{stroke-width:2px;stroke-dasharray:2,2;stroke:#7796be;fill:#7796be;}#diagram1 .note{stroke:#cdbd83;fill:#fff6d9;}#diagram1 .noteText,#diagram1 .noteText&gt;tspan{fill:#333;stroke:none;font-weight:normal;}#diagram1 .activation0{fill:#fff3e2;stroke:hsl(35.1724137931, 100%, 84.3137254902%);}#diagram1 .activation1{fill:#fff3e2;stroke:hsl(35.1724137931, 100%, 84.3137254902%);}#diagram1 .activation2{fill:#fff3e2;stroke:hsl(35.1724137931, 100%, 84.3137254902%);}#diagram1 .actorPopupMenu{position:absolute;}#diagram1 .actorPopupMenuPanel{position:absolute;fill:#f1f5ff;box-shadow:0px 8px 16px 0px rgba(0,0,0,0.2);filter:drop-shadow(3px 5px 2px rgb(0 0 0 / 0.4));}#diagram1 .actor-man circle,#diagram1 line{fill:#f1f5ff;stroke-width:2px;}#diagram1 g rect.rect{filter:drop-shadow( 1px 2px 2px rgba(185,185,185,1));stroke:#5287ce;}#diagram1 .node .neo-node{stroke:#5287ce;}#diagram1 [data-look="neo"].node rect,#diagram1 [data-look="neo"].cluster rect,#diagram1 [data-look="neo"].node polygon{stroke:url(#diagram1-gradient);filter:drop-shadow( 1px 2px 2px rgba(185,185,185,1));}#diagram1 [data-look="neo"].swimlane.cluster rect{filter:none;}#diagram1 [data-look="neo"].node path{stroke:url(#diagram1-gradient);stroke-width:1px;}#diagram1 [data-look="neo"].node .outer-path{filter:drop-shadow( 1px 2px 2px rgba(185,185,185,1));}#diagram1 [data-look="neo"].node .neo-line path{stroke:#5287ce;filter:none;}#diagram1 [data-look="neo"].node circle{stroke:url(#diagram1-gradient);filter:drop-shadow( 1px 2px 2px rgba(185,185,185,1));}#diagram1 [data-look="neo"].node circle .state-start{fill:#000000;}#diagram1 [data-look="neo"].icon-shape .icon{fill:url(#diagram1-gradient);filter:drop-shadow( 1px 2px 2px rgba(185,185,185,1));}#diagram1 [data-look="neo"].icon-shape .icon-neo path{stroke:url(#diagram1-gradient);filter:drop-shadow( 1px 2px 2px rgba(185,185,185,1));}#diagram1 :root{--mermaid-font-family:"trebuchet ms",verdana,arial,sans-serif;}</style><g></g><defs><symbol id="diagram1-computer" width="24" height="24"><path transform="scale(.5)" d="M2 2v13h20v-13h-20zm18 11h-16v-9h16v9zm-10.228 6l.466-1h3.524l.467 1h-4.457zm14.228 3h-24l2-6h2.104l-1.33 4h18.45l-1.297-4h2.073l2 6zm-5-10h-14v-7h14v7z"></path></symbol></defs><defs><symbol id="diagram1-database" fill-rule="evenodd" clip-rule="evenodd"><path transform="scale(.5)" d="M12.258.001l.256.004.255.005.253.008.251.01.249.012.247.015.246.016.242.019.241.02.239.023.236.024.233.027.231.028.229.031.225.032.223.034.22.036.217.038.214.04.211.041.208.043.205.045.201.046.198.048.194.05.191.051.187.053.183.054.18.056.175.057.172.059.168.06.163.061.16.063.155.064.15.066.074.033.073.033.071.034.07.034.069.035.068.035.067.035.066.035.064.036.064.036.062.036.06.036.06.037.058.037.058.037.055.038.055.038.053.038.052.038.051.039.05.039.048.039.047.039.045.04.044.04.043.04.041.04.04.041.039.041.037.041.036.041.034.041.033.042.032.042.03.042.029.042.027.042.026.043.024.043.023.043.021.043.02.043.018.044.017.043.015.044.013.044.012.044.011.045.009.044.007.045.006.045.004.045.002.045.001.045v17l-.001.045-.002.045-.004.045-.006.045-.007.045-.009.044-.011.045-.012.044-.013.044-.015.044-.017.043-.018.044-.02.043-.021.043-.023.043-.024.043-.026.043-.027.042-.029.042-.03.042-.032.042-.033.042-.034.041-.036.041-.037.041-.039.041-.04.041-.041.04-.043.04-.044.04-.045.04-.047.039-.048.039-.05.039-.051.039-.052.038-.053.038-.055.038-.055.038-.058.037-.058.037-.06.037-.06.036-.062.036-.064.036-.064.036-.066.035-.067.035-.068.035-.069.035-.07.034-.071.034-.073.033-.074.033-.15.066-.155.064-.16.063-.163.061-.168.06-.172.059-.175.057-.18.056-.183.054-.187.053-.191.051-.194.05-.198.048-.201.046-.205.045-.208.043-.211.041-.214.04-.217.038-.22.036-.223.034-.225.032-.229.031-.231.028-.233.027-.236.024-.239.023-.241.02-.242.019-.246.016-.247.015-.249.012-.251.01-.253.008-.255.005-.256.004-.258.001-.258-.001-.256-.004-.255-.005-.253-.008-.251-.01-.249-.012-.247-.015-.245-.016-.243-.019-.241-.02-.238-.023-.236-.024-.234-.027-.231-.028-.228-.031-.226-.032-.223-.034-.22-.036-.217-.038-.214-.04-.211-.041-.208-.043-.204-.045-.201-.046-.198-.048-.195-.05-.19-.051-.187-.053-.184-.054-.179-.056-.176-.057-.172-.059-.167-.06-.164-.061-.159-.063-.155-.064-.151-.066-.074-.033-.072-.033-.072-.034-.07-.034-.069-.035-.068-.035-.067-.035-.066-.035-.064-.036-.063-.036-.062-.036-.061-.036-.06-.037-.058-.037-.057-.037-.056-.038-.055-.038-.053-.038-.052-.038-.051-.039-.049-.039-.049-.039-.046-.039-.046-.04-.044-.04-.043-.04-.041-.04-.04-.041-.039-.041-.037-.041-.036-.041-.034-.041-.033-.042-.032-.042-.03-.042-.029-.042-.027-.042-.026-.043-.024-.043-.023-.043-.021-.043-.02-.043-.018-.044-.017-.043-.015-.044-.013-.044-.012-.044-.011-.045-.009-.044-.007-.045-.006-.045-.004-.045-.002-.045-.001-.045v-17l.001-.045.002-.045.004-.045.006-.045.007-.045.009-.044.011-.045.012-.044.013-.044.015-.044.017-.043.018-.044.02-.043.021-.043.023-.043.024-.043.026-.043.027-.042.029-.042.03-.042.032-.042.033-.042.034-.041.036-.041.037-.041.039-.041.04-.041.041-.04.043-.04.044-.04.046-.04.046-.039.049-.039.049-.039.051-.039.052-.038.053-.038.055-.038.056-.038.057-.037.058-.037.06-.037.061-.036.062-.036.063-.036.064-.036.066-.035.067-.035.068-.035.069-.035.07-.034.072-.034.072-.033.074-.033.151-.066.155-.064.159-.063.164-.061.167-.06.172-.059.176-.057.179-.056.184-.054.187-.053.19-.051.195-.05.198-.048.201-.046.204-.045.208-.043.211-.041.214-.04.217-.038.22-.036.223-.034.226-.032.228-.031.231-.028.234-.027.236-.024.238-.023.241-.02.243-.019.245-.016.247-.015.249-.012.251-.01.253-.008.255-.005.256-.004.258-.001.258.001zm-9.258 20.499v.01l.001.021.003.021.004.022.005.021.006.022.007.022.009.023.01.022.011.023.012.023.013.023.015.023.016.024.017.023.018.024.019.024.021.024.022.025.023.024.024.025.052.049.056.05.061.051.066.051.07.051.075.051.079.052.084.052.088.052.092.052.097.052.102.051.105.052.11.052.114.051.119.051.123.051.127.05.131.05.135.05.139.048.144.049.147.047.152.047.155.047.16.045.163.045.167.043.171.043.176.041.178.041.183.039.187.039.19.037.194.035.197.035.202.033.204.031.209.03.212.029.216.027.219.025.222.024.226.021.23.02.233.018.236.016.24.015.243.012.246.01.249.008.253.005.256.004.259.001.26-.001.257-.004.254-.005.25-.008.247-.011.244-.012.241-.014.237-.016.233-.018.231-.021.226-.021.224-.024.22-.026.216-.027.212-.028.21-.031.205-.031.202-.034.198-.034.194-.036.191-.037.187-.039.183-.04.179-.04.175-.042.172-.043.168-.044.163-.045.16-.046.155-.046.152-.047.148-.048.143-.049.139-.049.136-.05.131-.05.126-.05.123-.051.118-.052.114-.051.11-.052.106-.052.101-.052.096-.052.092-.052.088-.053.083-.051.079-.052.074-.052.07-.051.065-.051.06-.051.056-.05.051-.05.023-.024.023-.025.021-.024.02-.024.019-.024.018-.024.017-.024.015-.023.014-.024.013-.023.012-.023.01-.023.01-.022.008-.022.006-.022.006-.022.004-.022.004-.021.001-.021.001-.021v-4.127l-.077.055-.08.053-.083.054-.085.053-.087.052-.09.052-.093.051-.095.05-.097.05-.1.049-.102.049-.105.048-.106.047-.109.047-.111.046-.114.045-.115.045-.118.044-.12.043-.122.042-.124.042-.126.041-.128.04-.13.04-.132.038-.134.038-.135.037-.138.037-.139.035-.142.035-.143.034-.144.033-.147.032-.148.031-.15.03-.151.03-.153.029-.154.027-.156.027-.158.026-.159.025-.161.024-.162.023-.163.022-.165.021-.166.02-.167.019-.169.018-.169.017-.171.016-.173.015-.173.014-.175.013-.175.012-.177.011-.178.01-.179.008-.179.008-.181.006-.182.005-.182.004-.184.003-.184.002h-.37l-.184-.002-.184-.003-.182-.004-.182-.005-.181-.006-.179-.008-.179-.008-.178-.01-.176-.011-.176-.012-.175-.013-.173-.014-.172-.015-.171-.016-.17-.017-.169-.018-.167-.019-.166-.02-.165-.021-.163-.022-.162-.023-.161-.024-.159-.025-.157-.026-.156-.027-.155-.027-.153-.029-.151-.03-.15-.03-.148-.031-.146-.032-.145-.033-.143-.034-.141-.035-.14-.035-.137-.037-.136-.037-.134-.038-.132-.038-.13-.04-.128-.04-.126-.041-.124-.042-.122-.042-.12-.044-.117-.043-.116-.045-.113-.045-.112-.046-.109-.047-.106-.047-.105-.048-.102-.049-.1-.049-.097-.05-.095-.05-.093-.052-.09-.051-.087-.052-.085-.053-.083-.054-.08-.054-.077-.054v4.127zm0-5.654v.011l.001.021.003.021.004.021.005.022.006.022.007.022.009.022.01.022.011.023.012.023.013.023.015.024.016.023.017.024.018.024.019.024.021.024.022.024.023.025.024.024.052.05.056.05.061.05.066.051.07.051.075.052.079.051.084.052.088.052.092.052.097.052.102.052.105.052.11.051.114.051.119.052.123.05.127.051.131.05.135.049.139.049.144.048.147.048.152.047.155.046.16.045.163.045.167.044.171.042.176.042.178.04.183.04.187.038.19.037.194.036.197.034.202.033.204.032.209.03.212.028.216.027.219.025.222.024.226.022.23.02.233.018.236.016.24.014.243.012.246.01.249.008.253.006.256.003.259.001.26-.001.257-.003.254-.006.25-.008.247-.01.244-.012.241-.015.237-.016.233-.018.231-.02.226-.022.224-.024.22-.025.216-.027.212-.029.21-.03.205-.032.202-.033.198-.035.194-.036.191-.037.187-.039.183-.039.179-.041.175-.042.172-.043.168-.044.163-.045.16-.045.155-.047.152-.047.148-.048.143-.048.139-.05.136-.049.131-.05.126-.051.123-.051.118-.051.114-.052.11-.052.106-.052.101-.052.096-.052.092-.052.088-.052.083-.052.079-.052.074-.051.07-.052.065-.051.06-.05.056-.051.051-.049.023-.025.023-.024.021-.025.02-.024.019-.024.018-.024.017-.024.015-.023.014-.023.013-.024.012-.022.01-.023.01-.023.008-.022.006-.022.006-.022.004-.021.004-.022.001-.021.001-.021v-4.139l-.077.054-.08.054-.083.054-.085.052-.087.053-.09.051-.093.051-.095.051-.097.05-.1.049-.102.049-.105.048-.106.047-.109.047-.111.046-.114.045-.115.044-.118.044-.12.044-.122.042-.124.042-.126.041-.128.04-.13.039-.132.039-.134.038-.135.037-.138.036-.139.036-.142.035-.143.033-.144.033-.147.033-.148.031-.15.03-.151.03-.153.028-.154.028-.156.027-.158.026-.159.025-.161.024-.162.023-.163.022-.165.021-.166.02-.167.019-.169.018-.169.017-.171.016-.173.015-.173.014-.175.013-.175.012-.177.011-.178.009-.179.009-.179.007-.181.007-.182.005-.182.004-.184.003-.184.002h-.37l-.184-.002-.184-.003-.182-.004-.182-.005-.181-.007-.179-.007-.179-.009-.178-.009-.176-.011-.176-.012-.175-.013-.173-.014-.172-.015-.171-.016-.17-.017-.169-.018-.167-.019-.166-.02-.165-.021-.163-.022-.162-.023-.161-.024-.159-.025-.157-.026-.156-.027-.155-.028-.153-.028-.151-.03-.15-.03-.148-.031-.146-.033-.145-.033-.143-.033-.141-.035-.14-.036-.137-.036-.136-.037-.134-.038-.132-.039-.13-.039-.128-.04-.126-.041-.124-.042-.122-.043-.12-.043-.117-.044-.116-.044-.113-.046-.112-.046-.109-.046-.106-.047-.105-.048-.102-.049-.1-.049-.097-.05-.095-.051-.093-.051-.09-.051-.087-.053-.085-.052-.083-.054-.08-.054-.077-.054v4.139zm0-5.666v.011l.001.02.003.022.004.021.005.022.006.021.007.022.009.023.01.022.011.023.012.023.013.023.015.023.016.024.017.024.018.023.019.024.021.025.022.024.023.024.024.025.052.05.056.05.061.05.066.051.07.051.075.052.079.051.084.052.088.052.092.052.097.052.102.052.105.051.11.052.114.051.119.051.123.051.127.05.131.05.135.05.139.049.144.048.147.048.152.047.155.046.16.045.163.045.167.043.171.043.176.042.178.04.183.04.187.038.19.037.194.036.197.034.202.033.204.032.209.03.212.028.216.027.219.025.222.024.226.021.23.02.233.018.236.017.24.014.243.012.246.01.249.008.253.006.256.003.259.001.26-.001.257-.003.254-.006.25-.008.247-.01.244-.013.241-.014.237-.016.233-.018.231-.02.226-.022.224-.024.22-.025.216-.027.212-.029.21-.03.205-.032.202-.033.198-.035.194-.036.191-.037.187-.039.183-.039.179-.041.175-.042.172-.043.168-.044.163-.045.16-.045.155-.047.152-.047.148-.048.143-.049.139-.049.136-.049.131-.051.126-.05.123-.051.118-.052.114-.051.11-.052.106-.052.101-.052.096-.052.092-.052.088-.052.083-.052.079-.052.074-.052.07-.051.065-.051.06-.051.056-.05.051-.049.023-.025.023-.025.021-.024.02-.024.019-.024.018-.024.017-.024.015-.023.014-.024.013-.023.012-.023.01-.022.01-.023.008-.022.006-.022.006-.022.004-.022.004-.021.001-.021.001-.021v-4.153l-.077.054-.08.054-.083.053-.085.053-.087.053-.09.051-.093.051-.095.051-.097.05-.1.049-.102.048-.105.048-.106.048-.109.046-.111.046-.114.046-.115.044-.118.044-.12.043-.122.043-.124.042-.126.041-.128.04-.13.039-.132.039-.134.038-.135.037-.138.036-.139.036-.142.034-.143.034-.144.033-.147.032-.148.032-.15.03-.151.03-.153.028-.154.028-.156.027-.158.026-.159.024-.161.024-.162.023-.163.023-.165.021-.166.02-.167.019-.169.018-.169.017-.171.016-.173.015-.173.014-.175.013-.175.012-.177.01-.178.01-.179.009-.179.007-.181.006-.182.006-.182.004-.184.003-.184.001-.185.001-.185-.001-.184-.001-.184-.003-.182-.004-.182-.006-.181-.006-.179-.007-.179-.009-.178-.01-.176-.01-.176-.012-.175-.013-.173-.014-.172-.015-.171-.016-.17-.017-.169-.018-.167-.019-.166-.02-.165-.021-.163-.023-.162-.023-.161-.024-.159-.024-.157-.026-.156-.027-.155-.028-.153-.028-.151-.03-.15-.03-.148-.032-.146-.032-.145-.033-.143-.034-.141-.034-.14-.036-.137-.036-.136-.037-.134-.038-.132-.039-.13-.039-.128-.041-.126-.041-.124-.041-.122-.043-.12-.043-.117-.044-.116-.044-.113-.046-.112-.046-.109-.046-.106-.048-.105-.048-.102-.048-.1-.05-.097-.049-.095-.051-.093-.051-.09-.052-.087-.052-.085-.053-.083-.053-.08-.054-.077-.054v4.153zm8.74-8.179l-.257.004-.254.005-.25.008-.247.011-.244.012-.241.014-.237.016-.233.018-.231.021-.226.022-.224.023-.22.026-.216.027-.212.028-.21.031-.205.032-.202.033-.198.034-.194.036-.191.038-.187.038-.183.04-.179.041-.175.042-.172.043-.168.043-.163.045-.16.046-.155.046-.152.048-.148.048-.143.048-.139.049-.136.05-.131.05-.126.051-.123.051-.118.051-.114.052-.11.052-.106.052-.101.052-.096.052-.092.052-.088.052-.083.052-.079.052-.074.051-.07.052-.065.051-.06.05-.056.05-.051.05-.023.025-.023.024-.021.024-.02.025-.019.024-.018.024-.017.023-.015.024-.014.023-.013.023-.012.023-.01.023-.01.022-.008.022-.006.023-.006.021-.004.022-.004.021-.001.021-.001.021.001.021.001.021.004.021.004.022.006.021.006.023.008.022.01.022.01.023.012.023.013.023.014.023.015.024.017.023.018.024.019.024.02.025.021.024.023.024.023.025.051.05.056.05.06.05.065.051.07.052.074.051.079.052.083.052.088.052.092.052.096.052.101.052.106.052.11.052.114.052.118.051.123.051.126.051.131.05.136.05.139.049.143.048.148.048.152.048.155.046.16.046.163.045.168.043.172.043.175.042.179.041.183.04.187.038.191.038.194.036.198.034.202.033.205.032.21.031.212.028.216.027.22.026.224.023.226.022.231.021.233.018.237.016.241.014.244.012.247.011.25.008.254.005.257.004.26.001.26-.001.257-.004.254-.005.25-.008.247-.011.244-.012.241-.014.237-.016.233-.018.231-.021.226-.022.224-.023.22-.026.216-.027.212-.028.21-.031.205-.032.202-.033.198-.034.194-.036.191-.038.187-.038.183-.04.179-.041.175-.042.172-.043.168-.043.163-.045.16-.046.155-.046.152-.048.148-.048.143-.048.139-.049.136-.05.131-.05.126-.051.123-.051.118-.051.114-.052.11-.052.106-.052.101-.052.096-.052.092-.052.088-.052.083-.052.079-.052.074-.051.07-.052.065-.051.06-.05.056-.05.051-.05.023-.025.023-.024.021-.024.02-.025.019-.024.018-.024.017-.023.015-.024.014-.023.013-.023.012-.023.01-.023.01-.022.008-.022.006-.023.006-.021.004-.022.004-.021.001-.021.001-.021-.001-.021-.001-.021-.004-.021-.004-.022-.006-.021-.006-.023-.008-.022-.01-.022-.01-.023-.012-.023-.013-.023-.014-.023-.015-.024-.017-.023-.018-.024-.019-.024-.02-.025-.021-.024-.023-.024-.023-.025-.051-.05-.056-.05-.06-.05-.065-.051-.07-.052-.074-.051-.079-.052-.083-.052-.088-.052-.092-.052-.096-.052-.101-.052-.106-.052-.11-.052-.114-.052-.118-.051-.123-.051-.126-.051-.131-.05-.136-.05-.139-.049-.143-.048-.148-.048-.152-.048-.155-.046-.16-.046-.163-.045-.168-.043-.172-.043-.175-.042-.179-.041-.183-.04-.187-.038-.191-.038-.194-.036-.198-.034-.202-.033-.205-.032-.21-.031-.212-.028-.216-.027-.22-.026-.224-.023-.226-.022-.231-.021-.233-.018-.237-.016-.241-.014-.244-.012-.247-.011-.25-.008-.254-.005-.257-.004-.26-.001-.26.001z"></path></symbol></defs><defs><symbol id="diagram1-clock" width="24" height="24"><path transform="scale(.5)" d="M12 2c5.514 0 10 4.486 10 10s-4.486 10-10 10-10-4.486-10-10 4.486-10 10-10zm0-2c-6.627 0-12 5.373-12 12s5.373 12 12 12 12-5.373 12-12-5.373-12-12-12zm5.848 12.459c.202.038.202.333.001.372-1.907.361-6.045 1.111-6.547 1.111-.719 0-1.301-.582-1.301-1.301 0-.512.77-5.447 1.125-7.445.034-.192.312-.181.343.014l.985 6.238 5.394 1.011z"></path></symbol></defs><defs><marker id="diagram1-arrowhead" refX="7.9" refY="5" markerUnits="userSpaceOnUse" markerWidth="12" markerHeight="12" orient="auto-start-reverse"><path d="M -1 0 L 10 5 L 0 10 z"></path></marker></defs><defs><marker id="diagram1-crosshead" markerWidth="15" markerHeight="8" orient="auto" refX="4" refY="4.5"><path fill="none" stroke="#000000" stroke-width="1pt" d="M 1,2 L 6,7 M 6,2 L 1,7" style="stroke-dasharray: 0, 0;"></path></marker></defs><defs><marker id="diagram1-filled-head" refX="15.5" refY="7" markerWidth="20" markerHeight="28" orient="auto"><path d="M 18,7 L9,13 L14,7 L9,1 Z"></path></marker></defs><defs><marker id="diagram1-sequencenumber" refX="15" refY="15" markerWidth="60" markerHeight="40" orient="auto"><circle cx="15" cy="15" r="6"></circle></marker></defs><defs><marker id="diagram1-solidTopArrowHead" refX="7.9" refY="7.25" markerUnits="userSpaceOnUse" markerWidth="12" markerHeight="12" orient="auto-start-reverse"><path d="M 0 0 L 10 8 L 0 8 z"></path></marker></defs><defs><marker id="diagram1-solidBottomArrowHead" refX="7.9" refY="0.75" markerUnits="userSpaceOnUse" markerWidth="12" markerHeight="12" orient="auto-start-reverse"><path d="M 0 0 L 10 0 L 0 8 z"></path></marker></defs><defs><marker id="diagram1-stickTopArrowHead" refX="7.5" refY="7" markerUnits="userSpaceOnUse" markerWidth="12" markerHeight="12" orient="auto-start-reverse"><path d="M 0 0 L 7 7" stroke="black" stroke-width="1.5" fill="none"></path></marker></defs><defs><marker id="diagram1-stickBottomArrowHead" refX="7.5" refY="0" markerUnits="userSpaceOnUse" markerWidth="12" markerHeight="12" orient="auto-start-reverse"><path d="M 0 7 L 7 0" stroke="black" stroke-width="1.5" fill="none"></path></marker></defs><g data-et="note" data-id="i5"><rect x="428" y="282" fill="#EDF2AE" stroke="#666" width="140" height="66" class="note"></rect><text x="498" y="290" text-anchor="middle" dominant-baseline="middle" alignment-baseline="middle" class="noteText" dy="1em" style="font-size: 16px; font-weight: 400;"><tspan x="498">车速不满足，不出-</tspan></text><text x="498" y="307" text-anchor="middle" dominant-baseline="middle" alignment-baseline="middle" class="noteText" dy="1em" style="font-size: 16px; font-weight: 400;"><tspan x="498">卡</tspan></text></g><g data-et="note" data-id="i7"><rect x="428" y="412" fill="#EDF2AE" stroke="#666" width="140" height="66" class="note"></rect><text x="498" y="420" text-anchor="middle" dominant-baseline="middle" alignment-baseline="middle" class="noteText" dy="1em" style="font-size: 16px; font-weight: 400;"><tspan x="498">检查任务、场景、-</tspan></text><text x="498" y="437" text-anchor="middle" dominant-baseline="middle" alignment-baseline="middle" class="noteText" dy="1em" style="font-size: 16px; font-weight: 400;"><tspan x="498">稳定性和防重复</tspan></text></g><g data-et="note" data-id="i12"><rect x="465.5" y="616" fill="#EDF2AE" stroke="#666" width="496" height="49" class="note"></rect><text x="714" y="624" text-anchor="middle" dominant-baseline="middle" alignment-baseline="middle" class="noteText" dy="1em" style="font-size: 16px; font-weight: 400;"><tspan x="714">等轮到；过期或任务关闭则撤销</tspan></text></g><g data-et="note" data-id="i25"><rect x="465.5" y="1244" fill="#EDF2AE" stroke="#666" width="924" height="49" class="note"></rect><text x="928" y="1252" text-anchor="middle" dominant-baseline="middle" alignment-baseline="middle" class="noteText" dy="1em" style="font-size: 16px; font-weight: 400;"><tspan x="928">本次不执行车控</tspan></text></g><g data-et="control-structure" data-id="i26"><line x1="59" y1="807" x2="1399.5" y2="807" class="loopLine"></line><line x1="1399.5" y1="807" x2="1399.5" y2="1303" class="loopLine"></line><line x1="59" y1="1303" x2="1399.5" y2="1303" class="loopLine"></line><line x1="59" y1="807" x2="59" y2="1303" class="loopLine"></line><line x1="59" y1="947" x2="1399.5" y2="947" class="loopLine" style="stroke-dasharray: 3, 3;"></line><line x1="59" y1="1158" x2="1399.5" y2="1158" class="loopLine" style="stroke-dasharray: 3, 3;"></line><polygon points="59,807 109,807 109,820 100.6,827 59,827" class="labelBox"></polygon><text x="84" y="820" text-anchor="middle" dominant-baseline="middle" alignment-baseline="middle" class="labelText" style="font-size: 16px; font-weight: 400;">alt</text><text x="754.25" y="825" text-anchor="middle" class="loopText" style="font-size: 16px; font-weight: 400;"><tspan x="754.25">[用户手动确认]</tspan></text><text x="729.25" y="965" text-anchor="middle" class="sectionTitle" style="font-size: 16px; font-weight: 400;">[用户语音确认]</text><text x="729.25" y="1176" text-anchor="middle" class="sectionTitle" style="font-size: 16px; font-weight: 400;">[取消、关闭或有效期内无回应]</text></g><g data-et="control-structure" data-id="i40"><line x1="487" y1="1478" x2="1368" y2="1478" class="loopLine"></line><line x1="1368" y1="1478" x2="1368" y2="1846" class="loopLine"></line><line x1="487" y1="1846" x2="1368" y2="1846" class="loopLine"></line><line x1="487" y1="1478" x2="487" y2="1846" class="loopLine"></line><line x1="487" y1="1760" x2="1368" y2="1760" class="loopLine" style="stroke-dasharray: 3, 3;"></line><polygon points="487,1478 537,1478 537,1491 528.6,1498 487,1498" class="labelBox"></polygon><text x="512" y="1491" text-anchor="middle" dominant-baseline="middle" alignment-baseline="middle" class="labelText" style="font-size: 16px; font-weight: 400;">alt</text><text x="952.5" y="1496" text-anchor="middle" class="loopText" style="font-size: 16px; font-weight: 400;"><tspan x="952.5">[当前仍允许执行]</tspan></text><text x="927.5" y="1778" text-anchor="middle" class="sectionTitle" style="font-size: 16px; font-weight: 400;">[已失效、已处理或车辆不允许]</text></g><g data-et="control-structure" data-id="i41"><line x1="477" y1="1343" x2="1378" y2="1343" class="loopLine"></line><line x1="1378" y1="1343" x2="1378" y2="1856" class="loopLine"></line><line x1="477" y1="1856" x2="1378" y2="1856" class="loopLine"></line><line x1="477" y1="1343" x2="477" y2="1856" class="loopLine"></line><polygon points="477,1343 527,1343 527,1356 518.6,1363 477,1363" class="labelBox"></polygon><text x="502" y="1356" text-anchor="middle" dominant-baseline="middle" alignment-baseline="middle" class="labelText" style="font-size: 16px; font-weight: 400;">opt</text><text x="952.5" y="1361" text-anchor="middle" class="loopText" style="font-size: 16px; font-weight: 400;"><tspan x="952.5">[收到属于当前询问的有效确认]</tspan></text></g><g data-et="note" data-id="i43"><rect x="428" y="1942" fill="#EDF2AE" stroke="#666" width="140" height="83" class="note"></rect><text x="498" y="1950" text-anchor="middle" dominant-baseline="middle" alignment-baseline="middle" class="noteText" dy="1em" style="font-size: 16px; font-weight: 400;"><tspan x="498">本次结束；服务仍-</tspan></text><text x="498" y="1967" text-anchor="middle" dominant-baseline="middle" alignment-baseline="middle" class="noteText" dy="1em" style="font-size: 16px; font-weight: 400;"><tspan x="498">有效则等待后续场-</tspan></text><text x="498" y="1984" text-anchor="middle" dominant-baseline="middle" alignment-baseline="middle" class="noteText" dy="1em" style="font-size: 16px; font-weight: 400;"><tspan x="498">景</tspan></text></g><text x="171" y="101" text-anchor="middle" dominant-baseline="middle" alignment-baseline="middle" class="messageText" dy="1em" style="font-size: 16px; font-weight: 400;">开启天气保护</text><line x1="71" y1="130" x2="271" y2="130" class="messageLine0" data-et="message" data-id="i1" data-from="U" data-to="T" stroke-width="2" stroke="none" marker-end="url(#diagram1-arrowhead)" style="fill: none;"></line><text x="385" y="145" text-anchor="middle" dominant-baseline="middle" alignment-baseline="middle" class="messageText" dy="1em" style="font-size: 16px; font-weight: 400;">用户要开启这项任务</text><line x1="276" y1="174" x2="494" y2="174" class="messageLine0" data-et="message" data-id="i2" data-from="T" data-to="B" stroke-width="2" stroke="none" marker-end="url(#diagram1-arrowhead)" style="fill: none;"></line><text x="388" y="189" text-anchor="middle" dominant-baseline="middle" alignment-baseline="middle" class="messageText" dy="1em" style="font-size: 16px; font-weight: 400;">返回真实启用结果</text><line x1="497" y1="218" x2="279" y2="218" class="messageLine1" data-et="message" data-id="i3" data-from="B" data-to="T" stroke-width="2" stroke="none" marker-end="url(#diagram1-arrowhead)" style="stroke-dasharray: 3, 3; fill: none;"></line><text x="613" y="233" text-anchor="middle" dominant-baseline="middle" alignment-baseline="middle" class="messageText" dy="1em" style="font-size: 16px; font-weight: 400;">下雨、湿滑、20km/h、普通模式</text><line x1="723" y1="272" x2="502" y2="272" class="messageLine1" data-et="message" data-id="i4" data-from="D" data-to="B" stroke-width="2" stroke="none" marker-end="url(#diagram1-arrowhead)" style="stroke-dasharray: 3, 3; fill: none;"></line><text x="613" y="363" text-anchor="middle" dominant-baseline="middle" alignment-baseline="middle" class="messageText" dy="1em" style="font-size: 16px; font-weight: 400;">车速更新为46；其他数据仍有效</text><line x1="723" y1="402" x2="502" y2="402" class="messageLine1" data-et="message" data-id="i6" data-from="D" data-to="B" stroke-width="2" stroke="none" marker-end="url(#diagram1-arrowhead)" style="stroke-dasharray: 3, 3; fill: none;"></line><text x="712" y="523" text-anchor="middle" dominant-baseline="middle" alignment-baseline="middle" class="messageText" dy="1em" style="font-size: 16px; font-weight: 400;">请求本次湿滑建议：文案、按钮、TTS与失效条件</text><line x1="499" y1="552" x2="925" y2="552" class="messageLine0" data-et="message" data-id="i10" data-from="B" data-to="C" stroke-width="2" stroke="none" marker-end="url(#diagram1-arrowhead)" style="fill: none;"></line><text x="715" y="567" text-anchor="middle" dominant-baseline="middle" alignment-baseline="middle" class="messageText" dy="1em" style="font-size: 16px; font-weight: 400;">返回受理/排队状态，不等于已经显示</text><line x1="928" y1="606" x2="502" y2="606" class="messageLine1" data-et="message" data-id="i11" data-from="C" data-to="B" stroke-width="2" stroke="none" marker-end="url(#diagram1-arrowhead)" style="stroke-dasharray: 3, 3; fill: none;"></line><text x="501" y="680" text-anchor="middle" dominant-baseline="middle" alignment-baseline="middle" class="messageText" dy="1em" style="font-size: 16px; font-weight: 400;">真正展示询问；允许时播放TTS</text><line x1="928" y1="709" x2="74" y2="709" class="messageLine0" data-et="message" data-id="i13" data-from="C" data-to="U" stroke-width="2" stroke="none" marker-end="url(#diagram1-arrowhead)" style="fill: none;"></line><text x="715" y="724" text-anchor="middle" dominant-baseline="middle" alignment-baseline="middle" class="messageText" dy="1em" style="font-size: 16px; font-weight: 400;">告知本次卡片已经展示</text><line x1="928" y1="753" x2="502" y2="753" class="messageLine1" data-et="message" data-id="i14" data-from="C" data-to="B" stroke-width="2" stroke="none" marker-end="url(#diagram1-arrowhead)" style="stroke-dasharray: 3, 3; fill: none;"></line><text x="1039" y="768" text-anchor="middle" dominant-baseline="middle" alignment-baseline="middle" class="messageText" dy="1em" style="font-size: 16px; font-weight: 400;">注册当前可操作按钮及支持的表达</text><line x1="930" y1="797" x2="1148" y2="797" class="messageLine0" data-et="message" data-id="i15" data-from="C" data-to="V" stroke-width="2" stroke="none" marker-end="url(#diagram1-arrowhead)" style="fill: none;"></line><text x="498" y="859" text-anchor="middle" dominant-baseline="middle" alignment-baseline="middle" class="messageText" dy="1em" style="font-size: 16px; font-weight: 400;">点击确认</text><line x1="71" y1="888" x2="925" y2="888" class="messageLine0" data-et="message" data-id="i17" data-from="U" data-to="C" stroke-width="2" stroke="none" marker-end="url(#diagram1-arrowhead)" style="fill: none;"></line><text x="715" y="903" text-anchor="middle" dominant-baseline="middle" alignment-baseline="middle" class="messageText" dy="1em" style="font-size: 16px; font-weight: 400;">原确认按钮处理：同意本次切湿滑</text><line x1="928" y1="932" x2="502" y2="932" class="messageLine0" data-et="message" data-id="i18" data-from="C" data-to="B" stroke-width="2" stroke="none" marker-end="url(#diagram1-arrowhead)" style="fill: none;"></line><text x="610" y="994" text-anchor="middle" dominant-baseline="middle" alignment-baseline="middle" class="messageText" dy="1em" style="font-size: 16px; font-weight: 400;">说出支持的确认表达</text><line x1="71" y1="1023" x2="1148" y2="1023" class="messageLine0" data-et="message" data-id="i20" data-from="U" data-to="V" stroke-width="2" stroke="none" marker-end="url(#diagram1-arrowhead)" style="fill: none;"></line><text x="1042" y="1038" text-anchor="middle" dominant-baseline="middle" alignment-baseline="middle" class="messageText" dy="1em" style="font-size: 16px; font-weight: 400;">返回匹配的当前按钮，由注册方模-</text><text x="1042" y="1055" text-anchor="middle" dominant-baseline="middle" alignment-baseline="middle" class="messageText" dy="1em" style="font-size: 16px; font-weight: 400;">拟点击</text><line x1="1151" y1="1099" x2="933" y2="1099" class="messageLine1" data-et="message" data-id="i21" data-from="V" data-to="C" stroke-width="2" stroke="none" marker-end="url(#diagram1-arrowhead)" style="stroke-dasharray: 3, 3; fill: none;"></line><text x="715" y="1114" text-anchor="middle" dominant-baseline="middle" alignment-baseline="middle" class="messageText" dy="1em" style="font-size: 16px; font-weight: 400;">进入同一个确认按钮处理</text><line x1="928" y1="1143" x2="502" y2="1143" class="messageLine0" data-et="message" data-id="i22" data-from="C" data-to="B" stroke-width="2" stroke="none" marker-end="url(#diagram1-arrowhead)" style="fill: none;"></line><text x="715" y="1205" text-anchor="middle" dominant-baseline="middle" alignment-baseline="middle" class="messageText" dy="1em" style="font-size: 16px; font-weight: 400;">返回本次未确认的具体原因</text><line x1="928" y1="1234" x2="502" y2="1234" class="messageLine1" data-et="message" data-id="i24" data-from="C" data-to="B" stroke-width="2" stroke="none" marker-end="url(#diagram1-arrowhead)" style="stroke-dasharray: 3, 3; fill: none;"></line><text x="610" y="1395" text-anchor="middle" dominant-baseline="middle" alignment-baseline="middle" class="messageText" dy="1em" style="font-size: 16px; font-weight: 400;">重新核对最新任务相关数据与车况</text><line x1="499" y1="1424" x2="720" y2="1424" class="messageLine0" data-et="message" data-id="i30" data-from="B" data-to="D" stroke-width="2" stroke="none" marker-end="url(#diagram1-arrowhead)" style="fill: none;"></line><text x="613" y="1439" text-anchor="middle" dominant-baseline="middle" alignment-baseline="middle" class="messageText" dy="1em" style="font-size: 16px; font-weight: 400;">返回最新可用状态</text><line x1="723" y1="1468" x2="502" y2="1468" class="messageLine1" data-et="message" data-id="i31" data-from="D" data-to="B" stroke-width="2" stroke="none" marker-end="url(#diagram1-arrowhead)" style="stroke-dasharray: 3, 3; fill: none;"></line><text x="926" y="1530" text-anchor="middle" dominant-baseline="middle" alignment-baseline="middle" class="messageText" dy="1em" style="font-size: 16px; font-weight: 400;">请求切换湿滑模式</text><line x1="499" y1="1559" x2="1353" y2="1559" class="messageLine0" data-et="message" data-id="i33" data-from="B" data-to="X" stroke-width="2" stroke="none" marker-end="url(#diagram1-arrowhead)" style="fill: none;"></line><text x="929" y="1574" text-anchor="middle" dominant-baseline="middle" alignment-baseline="middle" class="messageText" dy="1em" style="font-size: 16px; font-weight: 400;">返回请求处理情况，此时尚不能据此判成功</text><line x1="1356" y1="1603" x2="502" y2="1603" class="messageLine1" data-et="message" data-id="i34" data-from="X" data-to="B" stroke-width="2" stroke="none" marker-end="url(#diagram1-arrowhead)" style="stroke-dasharray: 3, 3; fill: none;"></line><text x="926" y="1618" text-anchor="middle" dominant-baseline="middle" alignment-baseline="middle" class="messageText" dy="1em" style="font-size: 16px; font-weight: 400;">获取切换后的真实驾驶模式</text><line x1="499" y1="1647" x2="1353" y2="1647" class="messageLine0" data-et="message" data-id="i35" data-from="B" data-to="X" stroke-width="2" stroke="none" marker-end="url(#diagram1-arrowhead)" style="fill: none;"></line><text x="929" y="1662" text-anchor="middle" dominant-baseline="middle" alignment-baseline="middle" class="messageText" dy="1em" style="font-size: 16px; font-weight: 400;">返回实际模式，或明确失败、状态未知</text><line x1="1356" y1="1691" x2="502" y2="1691" class="messageLine1" data-et="message" data-id="i36" data-from="X" data-to="B" stroke-width="2" stroke="none" marker-end="url(#diagram1-arrowhead)" style="stroke-dasharray: 3, 3; fill: none;"></line><text x="712" y="1706" text-anchor="middle" dominant-baseline="middle" alignment-baseline="middle" class="messageText" dy="1em" style="font-size: 16px; font-weight: 400;">按真实结果更新：成功/失败/暂不能确认</text><line x1="499" y1="1745" x2="925" y2="1745" class="messageLine0" data-et="message" data-id="i37" data-from="B" data-to="C" stroke-width="2" stroke="none" marker-end="url(#diagram1-arrowhead)" style="fill: none;"></line><text x="712" y="1807" text-anchor="middle" dominant-baseline="middle" alignment-baseline="middle" class="messageText" dy="1em" style="font-size: 16px; font-weight: 400;">更新未执行的原因，不再请求车控</text><line x1="499" y1="1836" x2="925" y2="1836" class="messageLine0" data-et="message" data-id="i39" data-from="B" data-to="C" stroke-width="2" stroke="none" marker-end="url(#diagram1-arrowhead)" style="fill: none;"></line><text x="1039" y="1871" text-anchor="middle" dominant-baseline="middle" alignment-baseline="middle" class="messageText" dy="1em" style="font-size: 16px; font-weight: 400;">询问结束或按钮消失时，更新或撤-</text><text x="1039" y="1888" text-anchor="middle" dominant-baseline="middle" alignment-baseline="middle" class="messageText" dy="1em" style="font-size: 16px; font-weight: 400;">销旧词</text><line x1="930" y1="1932" x2="1148" y2="1932" class="messageLine1" data-et="message" data-id="i42" data-from="C" data-to="V" stroke-width="2" stroke="none" marker-end="url(#diagram1-arrowhead)" style="stroke-dasharray: 3, 3; fill: none;"></line></svg>