<svg viewBox="0 0 1780 1210" xmlns="http://www.w3.org/2000/svg">
  <defs>
    <marker id="arrow" markerWidth="12" markerHeight="12" refX="9" refY="4" orient="auto" markerUnits="strokeWidth"><path d="M0 0 L10 4 L0 8 z"/></marker>
  </defs>
  <rect x="0" y="0" width="1780" height="1210" fill="#EFE9D9"/>

  <text x="40" y="60" font-size="42" font-weight="700" fill="#0F0F0F">触发器 · 项目全景：现状 / 缺口 / 阶段</text>
  <!-- legend -->
  <rect x="40" y="78" width="150" height="32" fill="#1F8A4C" stroke="#0F0F0F" stroke-width="3"/><text x="56" y="101" font-size="16" font-weight="700" fill="#EFE9D9">✅ 已完成</text>
  <rect x="200" y="78" width="150" height="32" fill="#F5C518" stroke="#0F0F0F" stroke-width="3"/><text x="216" y="101" font-size="16" font-weight="700" fill="#0F0F0F">🔵 进行中</text>
  <rect x="360" y="78" width="150" height="32" fill="#E4DCC4" stroke="#0F0F0F" stroke-width="3"/><text x="376" y="101" font-size="16" font-weight="700" fill="#0F0F0F">⚪ 待启动</text>
  <rect x="520" y="78" width="150" height="32" fill="#F06CA8" stroke="#0F0F0F" stroke-width="3"/><text x="536" y="101" font-size="16" font-weight="700" fill="#0F0F0F">❓ 待确认</text>

  <!-- ===== SECTION 1 已具备 ===== -->
  <rect x="52" y="142" width="180" height="150" fill="#136636"/>
  <rect x="40" y="130" width="180" height="150" fill="#1F8A4C" stroke="#0F0F0F" stroke-width="4"/>
  <text x="58" y="172" font-size="24" font-weight="700" fill="#EFE9D9">✅ 现状</text>
  <text x="58" y="204" font-size="18" font-weight="700" fill="#EFE9D9">已具备能力</text>
  <text x="58" y="246" font-size="15" fill="#EFE9D9">530 / 1227</text>
  <text x="58" y="268" font-size="15" fill="#EFE9D9">节点已完成</text>
  <!-- 10 capability boxes -->
  <rect x="240" y="130" width="292" height="68" fill="#E4DCC4" stroke="#0F0F0F" stroke-width="3"/><rect x="240" y="130" width="12" height="68" fill="#1F8A4C"/><text x="266" y="160" font-size="17" font-weight="700" fill="#0F0F0F">条件任务（云）</text><text x="266" y="184" font-size="15" fill="#2A2A2A">副驾上车给情绪价值…</text>
  <rect x="546" y="130" width="292" height="68" fill="#E4DCC4" stroke="#0F0F0F" stroke-width="3"/><rect x="546" y="130" width="12" height="68" fill="#1F8A4C"/><text x="572" y="160" font-size="17" font-weight="700" fill="#0F0F0F">定时任务（云）</text><text x="572" y="184" font-size="15" fill="#2A2A2A">每5分钟播报比分…</text>
  <rect x="852" y="130" width="292" height="68" fill="#E4DCC4" stroke="#0F0F0F" stroke-width="3"/><rect x="852" y="130" width="12" height="68" fill="#1F8A4C"/><text x="878" y="160" font-size="17" font-weight="700" fill="#0F0F0F">VLM 视觉识别（云）</text><text x="878" y="184" font-size="15" fill="#2A2A2A">睡着了调小音量…</text>
  <rect x="1158" y="130" width="292" height="68" fill="#E4DCC4" stroke="#0F0F0F" stroke-width="3"/><rect x="1158" y="130" width="12" height="68" fill="#1F8A4C"/><text x="1184" y="160" font-size="17" font-weight="700" fill="#0F0F0F">长时任务</text><text x="1184" y="184" font-size="15" fill="#2A2A2A">少量 query 特调</text>
  <rect x="1464" y="130" width="292" height="68" fill="#E4DCC4" stroke="#0F0F0F" stroke-width="3"/><rect x="1464" y="130" width="12" height="68" fill="#1F8A4C"/><text x="1490" y="160" font-size="17" font-weight="700" fill="#0F0F0F">场景注册</text><text x="1490" y="184" font-size="15" fill="#2A2A2A">手动 + Planner 注册</text>
  <rect x="240" y="206" width="292" height="68" fill="#E4DCC4" stroke="#0F0F0F" stroke-width="3"/><rect x="240" y="206" width="12" height="68" fill="#1F8A4C"/><text x="266" y="236" font-size="17" font-weight="700" fill="#0F0F0F">条件判定（云端）</text><text x="266" y="260" font-size="15" fill="#2A2A2A">端状态 / VLM / 时间</text>
  <rect x="546" y="206" width="292" height="68" fill="#E4DCC4" stroke="#0F0F0F" stroke-width="3"/><rect x="546" y="206" width="12" height="68" fill="#1F8A4C"/><text x="572" y="236" font-size="17" font-weight="700" fill="#0F0F0F">advisor 触发</text><text x="572" y="260" font-size="15" fill="#2A2A2A">驱动主动思考</text>
  <rect x="852" y="206" width="292" height="68" fill="#E4DCC4" stroke="#0F0F0F" stroke-width="3"/><rect x="852" y="206" width="12" height="68" fill="#1F8A4C"/><text x="878" y="236" font-size="17" font-weight="700" fill="#0F0F0F">planner 任务触发</text><text x="878" y="260" font-size="15" fill="#2A2A2A">条件任务闭环</text>
  <rect x="1158" y="206" width="292" height="68" fill="#E4DCC4" stroke="#0F0F0F" stroke-width="3"/><rect x="1158" y="206" width="12" height="68" fill="#1F8A4C"/><text x="1184" y="236" font-size="17" font-weight="700" fill="#0F0F0F">执行频次限定</text><text x="1184" y="260" font-size="15" fill="#2A2A2A">疲劳管理</text>
  <rect x="1464" y="206" width="292" height="68" fill="#E4DCC4" stroke="#0F0F0F" stroke-width="3"/><rect x="1464" y="206" width="12" height="68" fill="#1F8A4C"/><text x="1490" y="236" font-size="17" font-weight="700" fill="#0F0F0F">任务中心</text><text x="1490" y="260" font-size="15" fill="#2A2A2A">widget 卡片/状态管理</text>

  <!-- ===== SECTION 2 阶段进度 (3 columns) ===== -->
  <text x="40" y="324" font-size="22" font-weight="700" fill="#0F0F0F">📍 阶段进度（按交付节点分三批）</text>

  <!-- Col1 上汽610 -->
  <rect x="40" y="342" width="550" height="50" fill="#F06CA8" stroke="#0F0F0F" stroke-width="4"/>
  <text x="58" y="376" font-size="20" font-weight="700" fill="#0F0F0F">上汽 610 · P0 · 6/15 评审</text>
  <rect x="40" y="398" width="550" height="58" fill="#E4DCC4" stroke="#0F0F0F" stroke-width="3"/><rect x="40" y="398" width="14" height="58" fill="#F5C518"/><text x="68" y="423" font-size="17" font-weight="700" fill="#0F0F0F">需求1 高频触发条件清单</text><text x="68" y="446" font-size="15" fill="#2A2A2A">🔵 进行中 · 本周核心产出</text>
  <rect x="40" y="464" width="550" height="58" fill="#E4DCC4" stroke="#0F0F0F" stroke-width="3"/><rect x="40" y="464" width="14" height="58" fill="#F5C518"/><text x="68" y="489" font-size="17" font-weight="700" fill="#0F0F0F">需求2 打通条件任务（对接意图）</text><text x="68" y="512" font-size="15" fill="#2A2A2A">🔵 进行中 · 依赖需求1定稿</text>
  <rect x="40" y="530" width="550" height="58" fill="#E4DCC4" stroke="#0F0F0F" stroke-width="3"/><rect x="40" y="530" width="14" height="58" fill="#F5C518"/><text x="68" y="555" font-size="17" font-weight="700" fill="#0F0F0F">需求3 评估益红事件表</text><text x="68" y="578" font-size="15" fill="#2A2A2A">🔵 进行中 · 与需求1并行</text>
  <rect x="40" y="596" width="550" height="58" fill="#E4DCC4" stroke="#0F0F0F" stroke-width="3"/><rect x="40" y="596" width="14" height="58" fill="#F5C518"/><text x="68" y="621" font-size="17" font-weight="700" fill="#0F0F0F">需求4 收机器人需求</text><text x="68" y="644" font-size="15" fill="#2A2A2A">🔵 已面聊 · 待吕壮发表</text>

  <!-- Col2 DNA-616 -->
  <rect x="612" y="342" width="556" height="50" fill="#F5C518" stroke="#0F0F0F" stroke-width="4"/>
  <text x="630" y="376" font-size="20" font-weight="700" fill="#0F0F0F">DNA-616 · P0 · 导航 / 围栏（领导优先）</text>
  <rect x="612" y="398" width="556" height="58" fill="#E4DCC4" stroke="#0F0F0F" stroke-width="3"/><rect x="612" y="398" width="14" height="58" fill="#E85A1F"/><text x="640" y="423" font-size="17" font-weight="700" fill="#0F0F0F">需求10 导航 / POI 距离事件 ⭐被点名</text><text x="640" y="446" font-size="15" fill="#2A2A2A">⚪ 待评估云端可行性</text>
  <rect x="612" y="464" width="556" height="58" fill="#E4DCC4" stroke="#0F0F0F" stroke-width="3"/><rect x="612" y="464" width="14" height="58" fill="#E85A1F"/><text x="640" y="489" font-size="17" font-weight="700" fill="#0F0F0F">需求11 地理围栏机制</text><text x="640" y="512" font-size="15" fill="#2A2A2A">⚪ 待启动 · 需求10的底座</text>
  <rect x="612" y="530" width="556" height="58" fill="#E4DCC4" stroke="#0F0F0F" stroke-width="3"/><rect x="612" y="530" width="14" height="58" fill="#E85A1F"/><text x="640" y="555" font-size="17" font-weight="700" fill="#0F0F0F">需求12 事件接口透出 + 自动化验证</text><text x="640" y="578" font-size="15" fill="#2A2A2A">⚪ 待启动 · 触发器承接</text>
  <rect x="612" y="596" width="556" height="58" fill="#E4DCC4" stroke="#0F0F0F" stroke-width="3"/><rect x="612" y="596" width="14" height="58" fill="#E4DCC4"/><text x="640" y="621" font-size="17" font-weight="700" fill="#0F0F0F">通用长时任务架构（动态advisor）</text><text x="640" y="644" font-size="15" fill="#2A2A2A">⚪ 待启动 · 关注协同</text>
  <rect x="612" y="662" width="556" height="58" fill="#E4DCC4" stroke="#0F0F0F" stroke-width="3"/><rect x="612" y="662" width="14" height="58" fill="#E4DCC4"/><text x="640" y="687" font-size="17" font-weight="700" fill="#0F0F0F">任务策略预生成 / 条件创建交互</text><text x="640" y="710" font-size="15" fill="#2A2A2A">⚪ advisor / Director 承接</text>
  <rect x="612" y="728" width="556" height="58" fill="#E4DCC4" stroke="#0F0F0F" stroke-width="3"/><rect x="612" y="728" width="14" height="58" fill="#E4DCC4"/><text x="640" y="753" font-size="17" font-weight="700" fill="#0F0F0F">生态闭环类 Advisor</text><text x="640" y="776" font-size="15" fill="#2A2A2A">⚪ 美团订座/停车/充电</text>

  <!-- Col3 赛力斯 -->
  <rect x="1190" y="342" width="566" height="50" fill="#E4DCC4" stroke="#0F0F0F" stroke-width="4"/>
  <text x="1208" y="376" font-size="20" font-weight="700" fill="#0F0F0F">赛力斯 · 后续 · 架构级（先调研收料）</text>
  <rect x="1190" y="398" width="566" height="58" fill="#E4DCC4" stroke="#0F0F0F" stroke-width="3"/><rect x="1190" y="398" width="14" height="58" fill="#E4DCC4"/><text x="1218" y="423" font-size="17" font-weight="700" fill="#0F0F0F">需求5 触发机制重构（状态变更）</text><text x="1218" y="446" font-size="15" fill="#2A2A2A">⚪ 待启动 · 分清上/下车</text>
  <rect x="1190" y="464" width="566" height="58" fill="#E4DCC4" stroke="#0F0F0F" stroke-width="3"/><rect x="1190" y="464" width="14" height="58" fill="#E4DCC4"/><text x="1218" y="489" font-size="17" font-weight="700" fill="#0F0F0F">需求6 协议拍平 / 任意位置</text><text x="1218" y="512" font-size="15" fill="#2A2A2A">⚪ 待启动 · 需供应商</text>
  <rect x="1190" y="530" width="566" height="58" fill="#E4DCC4" stroke="#0F0F0F" stroke-width="3"/><rect x="1190" y="530" width="14" height="58" fill="#E4DCC4"/><text x="1218" y="555" font-size="17" font-weight="700" fill="#0F0F0F">需求7 端侧定时器</text><text x="1218" y="578" font-size="15" fill="#2A2A2A">⚪ 待启动 · 依赖需求9</text>
  <rect x="1190" y="596" width="566" height="58" fill="#E4DCC4" stroke="#0F0F0F" stroke-width="3"/><rect x="1190" y="596" width="14" height="58" fill="#E4DCC4"/><text x="1218" y="621" font-size="17" font-weight="700" fill="#0F0F0F">需求9 端云分工（架构地基）</text><text x="1218" y="644" font-size="15" fill="#2A2A2A">⚪ 待启动 · 7/8的前置</text>
  <rect x="1190" y="662" width="566" height="58" fill="#E4DCC4" stroke="#0F0F0F" stroke-width="3"/><rect x="1190" y="662" width="14" height="58" fill="#E4DCC4"/><text x="1218" y="687" font-size="17" font-weight="700" fill="#0F0F0F">需求8 距离事件 → 并入需求10/11</text><text x="1218" y="710" font-size="15" fill="#2A2A2A">⚪ 已被 DNA-616 提前</text>
  <rect x="1190" y="728" width="566" height="58" fill="#E4DCC4" stroke="#0F0F0F" stroke-width="3"/><rect x="1190" y="728" width="14" height="58" fill="#F06CA8"/><text x="1218" y="753" font-size="17" font-weight="700" fill="#0F0F0F">需求13 音频</text><text x="1218" y="776" font-size="15" fill="#2A2A2A">❓ 待与领导确认范围</text>

  <!-- ===== SECTION 3 关键缺口 ===== -->
  <rect x="52" y="832" width="1704" height="320" fill="#0F0F0F"/>
  <rect x="40" y="820" width="1704" height="320" fill="#EFE9D9" stroke="#0F0F0F" stroke-width="4"/>
  <rect x="40" y="820" width="1704" height="50" fill="#E85A1F" stroke="#0F0F0F" stroke-width="4"/>
  <text x="58" y="854" font-size="22" font-weight="700" fill="#0F0F0F">🔴 关键缺口（讲给领导：为什么要做上面这些）— 缺什么 → 对应需求</text>
  <rect x="58" y="884" width="820" height="58" fill="#E4DCC4" stroke="#0F0F0F" stroke-width="3"/><text x="74" y="909" font-size="16" font-weight="700" fill="#0F0F0F">① 触发/执行几乎全在云 → 缺端侧触发器+信号库（弱网闭环）</text><text x="74" y="932" font-size="15" fill="#E85A1F">→ 需求9 端云分工</text>
  <rect x="900" y="884" width="824" height="58" fill="#E4DCC4" stroke="#0F0F0F" stroke-width="3"/><text x="916" y="909" font-size="16" font-weight="700" fill="#0F0F0F">② 长时任务还是"少量 query 特调"，不通用</text><text x="916" y="932" font-size="15" fill="#E85A1F">→ DNA-616 通用长时任务架构</text>
  <rect x="58" y="950" width="820" height="58" fill="#E4DCC4" stroke="#0F0F0F" stroke-width="3"/><text x="74" y="975" font-size="16" font-weight="700" fill="#0F0F0F">③ 触发只看"当前态"不看变化，分不清上/下车</text><text x="74" y="998" font-size="15" fill="#E85A1F">→ 需求5 触发机制重构</text>
  <rect x="900" y="950" width="824" height="58" fill="#E4DCC4" stroke="#0F0F0F" stroke-width="3"/><text x="916" y="975" font-size="16" font-weight="700" fill="#0F0F0F">④ 不支持导航/距离类事件</text><text x="916" y="998" font-size="15" fill="#E85A1F">→ 需求10/11 导航POI + 地理围栏</text>
  <rect x="58" y="1016" width="820" height="58" fill="#E4DCC4" stroke="#0F0F0F" stroke-width="3"/><text x="74" y="1041" font-size="16" font-weight="700" fill="#0F0F0F">⑤ 协议套娃，配不出"任意位置"</text><text x="74" y="1064" font-size="15" fill="#E85A1F">→ 需求6 协议拍平</text>
  <rect x="900" y="1016" width="824" height="58" fill="#E4DCC4" stroke="#0F0F0F" stroke-width="3"/><text x="916" y="1041" font-size="16" font-weight="700" fill="#0F0F0F">⑥ 没有标准高频条件清单，条件"干巴巴"</text><text x="916" y="1064" font-size="15" fill="#E85A1F">→ 需求1 高频条件清单</text>
  <rect x="58" y="1082" width="1666" height="46" fill="#E4DCC4" stroke="#0F0F0F" stroke-width="3"/><text x="74" y="1111" font-size="16" font-weight="700" fill="#0F0F0F">⑦ 事件无透出接口、无自动化验证，下游不知道能订阅什么 　→ <tspan fill="#E85A1F">需求12 事件接口透出 + 自动化验证</tspan></text>
</svg>
