<svg xmlns="http://www.w3.org/2000/svg" viewBox="0 0 1400 2200">
<style>
  text { font-family: 'PingFang SC','Microsoft YaHei','Helvetica Neue',Arial,sans-serif; }
  .title { font-size:22px; font-weight:700; fill:#1e3a5f; }
  .subtitle { font-size:13px; fill:#6b7280; }
  .box-label { font-size:14px; font-weight:600; fill:#111827; }
  .box-detail { font-size:11px; fill:#374151; }
  .box-warn { font-size:11px; fill:#dc2626; font-weight:600; }
  .box-ok { font-size:11px; fill:#047857; }
  .arrow-label { font-size:10px; fill:#6b7280; }
  .section-label { font-size:12px; fill:#9333ea; font-weight:600; letter-spacing:1px; }
  .layer-label { font-size:10px; fill:#9ca3af; font-weight:600; letter-spacing:2px; }
</style>
<defs>
  <marker id="arr-blue" markerWidth="10" markerHeight="7" refX="9" refY="3.5" orient="auto"><polygon points="0 0,10 3.5,0 7" fill="#2563eb"/></marker>
  <marker id="arr-red" markerWidth="10" markerHeight="7" refX="9" refY="3.5" orient="auto"><polygon points="0 0,10 3.5,0 7" fill="#dc2626"/></marker>
  <marker id="arr-green" markerWidth="10" markerHeight="7" refX="9" refY="3.5" orient="auto"><polygon points="0 0,10 3.5,0 7" fill="#16a34a"/></marker>
  <marker id="arr-purple" markerWidth="10" markerHeight="7" refX="9" refY="3.5" orient="auto"><polygon points="0 0,10 3.5,0 7" fill="#7c3aed"/></marker>
  <marker id="arr-orange" markerWidth="10" markerHeight="7" refX="9" refY="3.5" orient="auto"><polygon points="0 0,10 3.5,0 7" fill="#ea580c"/></marker>
  <marker id="arr-gray" markerWidth="10" markerHeight="7" refX="9" refY="3.5" orient="auto"><polygon points="0 0,10 3.5,0 7" fill="#6b7280"/></marker>
  <filter id="shadow"><feDropShadow dx="0" dy="2" stdDeviation="3" flood-opacity="0.08"/></filter>
</defs>
<rect width="1400" height="2200" fill="#ffffff"/>
<text x="700" y="40" text-anchor="middle" class="title">AI 场景编排 · 系统架构图</text>
<text x="700" y="60" text-anchor="middle" class="subtitle">豆包上车 Driver Agent 2.0 · 从用户语音到车控执行的完整链路 · 负责人：王泽民</text>
<text x="30" y="95" class="layer-label">LAYER 1</text>
<rect x="350" y="80" width="700" height="70" rx="10" fill="#fff7ed" stroke="#ea580c" stroke-width="2" filter="url(#shadow)"/>
<text x="700" y="105" text-anchor="middle" class="box-label">👤 用户语音 Query</text>
<text x="700" y="122" text-anchor="middle" class="box-detail">"我想休息一下" · "打开宠物模式" · "车里有只猫帮我看着"</text>
<text x="700" y="140" text-anchor="middle" style="font-size:10px;fill:#9ca3af;">泛化型（说需求不说模式名）                     直接型（明确说出模式名称）</text>
<line x1="700" y1="150" x2="700" y2="180" stroke="#ea580c" stroke-width="2" marker-end="url(#arr-orange)"/>
<text x="30" y="205" class="layer-label">LAYER 2</text>
<rect x="530" y="180" width="340" height="45" rx="8" fill="#dbeafe" stroke="#2563eb" stroke-width="1.5" filter="url(#shadow)"/>
<text x="700" y="208" text-anchor="middle" class="box-label">ASR 语音转文字（端侧）</text>
<line x1="700" y1="225" x2="700" y2="260" stroke="#2563eb" stroke-width="2" marker-end="url(#arr-blue)"/>
<text x="718" y="248" class="arrow-label">端→云 L2</text>
<text x="30" y="310" class="layer-label">LAYER 3</text>
<polygon points="700,260 800,320 700,380 600,320" fill="#fef3c7" stroke="#d97706" stroke-width="2" filter="url(#shadow)"/>
<text x="700" y="315" text-anchor="middle" class="box-label" style="font-size:12px;">拒识仲裁</text>
<text x="700" y="332" text-anchor="middle" class="box-detail" style="font-size:11px;">意图模型 ⑨</text>
<path d="M 600,320 L 380,320" stroke="#d97706" stroke-width="1.5" fill="none" marker-end="url(#arr-orange)"/>
<rect x="100" y="290" width="280" height="60" rx="8" fill="#eff6ff" stroke="#93c5fd" stroke-width="1.5"/>
<text x="240" y="312" text-anchor="middle" class="box-detail" style="font-weight:600;">① 简单车控 → 端侧直接执行</text>
<text x="240" y="328" text-anchor="middle" class="box-detail">离线FC + 白名单 → 原子车控</text>
<text x="240" y="342" text-anchor="middle" style="font-size:10px;fill:#2563eb;">毫秒级 · 不进大脑</text>
<rect x="420" y="308" width="65" height="16" rx="3" fill="#ffffff" opacity="0.9"/>
<text x="453" y="320" text-anchor="middle" class="arrow-label">L3 车控</text>
<path d="M 800,320 L 1020,320" stroke="#d97706" stroke-width="1.5" fill="none" marker-end="url(#arr-orange)"/>
<rect x="1020" y="295" width="220" height="50" rx="8" fill="#f9fafb" stroke="#d1d5db" stroke-width="1" stroke-dasharray="4,2"/>
<text x="1130" y="317" text-anchor="middle" class="box-detail" style="font-weight:600;">④ 拒识 → Context 事件日志 ㉚</text>
<text x="1130" y="335" text-anchor="middle" style="font-size:10px;fill:#9ca3af;">不该接的话 → 存起来给Adviser感知</text>
<rect x="850" y="308" width="55" height="16" rx="3" fill="#ffffff" opacity="0.9"/>
<text x="878" y="320" text-anchor="middle" class="arrow-label">L6 拒识</text>
<path d="M 650,370 L 450,430" stroke="#d97706" stroke-width="1.5" fill="none" marker-end="url(#arr-orange)"/>
<rect x="300" y="420" width="260" height="50" rx="8" fill="#fef3c7" stroke="#d97706" stroke-width="1"/>
<text x="430" y="443" text-anchor="middle" class="box-detail" style="font-weight:600;">② 条件话术 → 意图解析 ⑩</text>
<text x="430" y="459" text-anchor="middle" class="box-detail">→ 触发器注册 ⑬ (如"10分钟后关加热")</text>
<rect x="525" y="388" width="72" height="16" rx="3" fill="#ffffff" opacity="0.9"/>
<text x="561" y="400" text-anchor="middle" class="arrow-label">L4 条件话术</text>
<path d="M 700,380 L 700,500" stroke="#d97706" stroke-width="3" fill="none" marker-end="url(#arr-orange)"/>
<rect x="715" y="420" width="110" height="16" rx="3" fill="#ffffff" opacity="0.9"/>
<text x="770" y="432" text-anchor="middle" class="arrow-label" style="font-weight:600;fill:#d97706;">L5 复杂/场景类 ★</text>
<text x="30" y="530" class="layer-label">LAYER 4</text>
<rect x="400" y="500" width="600" height="110" rx="10" fill="#fef3c7" stroke="#d97706" stroke-width="2" filter="url(#shadow)"/>
<text x="700" y="525" text-anchor="middle" class="box-label">Selector SP v11 场景分类器</text>
<text x="700" y="545" text-anchor="middle" class="box-detail">4步判定: ID_000预判过滤 → 上下文辅助 → 场景特殊规则 → 互斥锚定</text>
<text x="700" y="562" text-anchor="middle" class="box-detail">输出: 13个场景ID (ID_001~ID_013) + ID_000兜底</text>
<text x="700" y="580" text-anchor="middle" class="box-warn">⚠ 当前命中率 60-70%（目标 ≥85%）</text>
<text x="700" y="598" text-anchor="middle" style="font-size:10px;fill:#9ca3af;">13 = 合并后8个编排 + 兜底ID_000 + 预置场景走分子级不注入Skill</text>
<path d="M 530,610 L 280,670" stroke="#dc2626" stroke-width="2.5" fill="none" marker-end="url(#arr-red)"/>
<rect x="360" y="630" width="85" height="16" rx="3" fill="#ffffff" opacity="0.9"/>
<text x="403" y="642" text-anchor="middle" style="font-size:11px;fill:#dc2626;font-weight:700;">分子级路径</text>
<path d="M 870,610 L 1050,670" stroke="#16a34a" stroke-width="2.5" fill="none" marker-end="url(#arr-green)"/>
<rect x="900" y="630" width="85" height="16" rx="3" fill="#ffffff" opacity="0.9"/>
<text x="943" y="642" text-anchor="middle" style="font-size:11px;fill:#16a34a;font-weight:700;">编排级路径</text>
<text x="30" y="700" class="layer-label">LAYER 5A</text>
<rect x="80" y="670" width="400" height="180" rx="10" fill="#fef2f2" stroke="#dc2626" stroke-width="2" filter="url(#shadow)"/>
<text x="280" y="695" text-anchor="middle" style="font-size:14px;font-weight:700;fill:#991b1b;">🅰 分子级调用（6个预置场景）</text>
<line x1="100" y1="705" x2="460" y2="705" stroke="#fca5a5" stroke-width="1"/>
<text x="280" y="725" text-anchor="middle" class="box-detail">🐾 宠物模式    🚿 洗车模式    🏕 露营模式</text>
<text x="280" y="742" text-anchor="middle" class="box-detail">🔋 离车保电    🛏 大床模式    💺 一键躺平</text>
<line x1="100" y1="752" x2="460" y2="752" stroke="#fca5a5" stroke-width="1"/>
<text x="280" y="770" text-anchor="middle" style="font-size:10px;fill:#991b1b;font-weight:600;">特征: 执行项100%确定 · 有安全边界约束</text>
<text x="280" y="785" text-anchor="middle" style="font-size:10px;fill:#991b1b;">有完整回滚 · 有运行期持续监控</text>
<text x="280" y="802" text-anchor="middle" style="font-size:10px;fill:#6b7280;">用户对结果有预期、趋向一致</text>
<text x="280" y="838" text-anchor="middle" style="font-size:10px;fill:#374151;">不走 Planner 编排，不注入 Skill</text>
<line x1="280" y1="850" x2="280" y2="880" stroke="#dc2626" stroke-width="2" marker-end="url(#arr-red)"/>
<rect x="120" y="880" width="320" height="45" rx="8" fill="#fef2f2" stroke="#dc2626" stroke-width="1.5"/>
<text x="280" y="900" text-anchor="middle" class="box-detail" style="font-weight:600;">方向靠 Function Call</text>
<text x="280" y="916" text-anchor="middle" class="box-warn" style="font-size:10px;">⚠ 尚未注册指令 → 需整理Query提给左晨</text>
<line x1="280" y1="925" x2="280" y2="955" stroke="#dc2626" stroke-width="2" marker-end="url(#arr-red)"/>
<rect x="80" y="955" width="400" height="145" rx="10" fill="#fef2f2" stroke="#dc2626" stroke-width="2"/>
<text x="280" y="978" text-anchor="middle" style="font-size:13px;font-weight:700;fill:#991b1b;">预置应用执行</text>
<line x1="100" y1="988" x2="460" y2="988" stroke="#fca5a5" stroke-width="1"/>
<text x="280" y="1005" text-anchor="middle" class="box-ok">✅ 固定执行项（10-20条写死的规则化逻辑）</text>
<text x="280" y="1020" text-anchor="middle" class="box-ok">✅ 二次确认弹窗（安全场景进入前）</text>
<text x="280" y="1035" text-anchor="middle" class="box-ok">✅ 退出后所有设置项自动回滚至进入前状态</text>
<text x="280" y="1050" text-anchor="middle" class="box-ok">✅ 运行期持续监控（高压/SOC/档位异常自动退出）</text>
<text x="280" y="1065" text-anchor="middle" class="box-ok">✅ 异常退出 + APP消息 + 短信通知</text>
<text x="280" y="1085" text-anchor="middle" style="font-size:10px;fill:#6b7280;">确定性 100% · 安全有兜底 · 用户体验完整</text>
<text x="1310" y="700" class="layer-label">LAYER 5B</text>
<rect x="840" y="670" width="430" height="170" rx="10" fill="#faf5ff" stroke="#7c3aed" stroke-width="2" filter="url(#shadow)"/>
<text x="1055" y="695" text-anchor="middle" style="font-size:14px;font-weight:700;fill:#5b21b6;">📚 动态知识检索 + 注入</text>
<line x1="860" y1="705" x2="1250" y2="705" stroke="#c4b5fd" stroke-width="1"/>
<text x="1055" y="725" text-anchor="middle" class="box-detail">① Skill 知识库（场景执行项 / 前置条件 / 触发词）</text>
<text x="1055" y="742" text-anchor="middle" class="box-detail">② 动态示例（场景相关 few-shot 参考）</text>
<text x="1055" y="759" text-anchor="middle" class="box-detail">③ 端状态 env_info（P档 / 温度 / SOC / 座椅）</text>
<text x="1055" y="776" text-anchor="middle" class="box-detail">④ 用户记忆 memory（偏好 / FaceID / 历史）</text>
<line x1="860" y1="790" x2="1250" y2="790" stroke="#c4b5fd" stroke-width="1"/>
<text x="1055" y="808" text-anchor="middle" style="font-size:10px;fill:#7c3aed;">→ 注入 Planner SP 的 {{knowledge}} 动态模板变量</text>
<text x="1055" y="825" text-anchor="middle" style="font-size:10px;fill:#6b7280;">链路已通 · 6/4 提测分支 · 数据质量待打磨</text>
<rect x="840" y="855" width="430" height="110" rx="8" fill="#f0fdf4" stroke="#16a34a" stroke-width="1.5"/>
<text x="1055" y="878" text-anchor="middle" style="font-size:12px;font-weight:700;fill:#166534;">🅱 Planner 编排（8个场景，合并后）</text>
<line x1="860" y1="888" x2="1250" y2="888" stroke="#86efac" stroke-width="1"/>
<text x="960" y="907" text-anchor="middle" class="box-detail">🎬 观影模式(合并)</text>
<text x="1160" y="907" text-anchor="middle" class="box-detail">😴 车内小憩</text>
<text x="960" y="922" text-anchor="middle" class="box-detail">🌡 极速调温(合并)</text>
<text x="1160" y="922" text-anchor="middle" class="box-detail">🧘 冥想空间</text>
<text x="960" y="937" text-anchor="middle" class="box-detail">💨 快速通风</text>
<text x="1160" y="937" text-anchor="middle" class="box-detail">👨‍👩‍👧 用车关怀(合并)</text>
<text x="960" y="952" text-anchor="middle" class="box-detail">💅 副驾调节</text>
<text x="1160" y="952" text-anchor="middle" class="box-detail">🌧 雨天关怀</text>
<path d="M 1055,840 L 1055,970 L 780,1060" stroke="#7c3aed" stroke-width="2.5" fill="none" marker-end="url(#arr-purple)"/>
<rect x="860" y="990" width="175" height="16" rx="3" fill="#ffffff" opacity="0.9"/>
<text x="948" y="1002" text-anchor="middle" class="arrow-label" style="fill:#7c3aed;">Skill+示例+端状态+记忆 →注入SP</text>
<text x="30" y="1100" class="layer-label">LAYER 6</text>
<rect x="350" y="1060" width="700" height="150" rx="12" fill="#1e40af" stroke="#1e3a5f" stroke-width="3" filter="url(#shadow)"/>
<text x="700" y="1090" text-anchor="middle" style="font-size:16px;font-weight:700;fill:#ffffff;">🧠 Planner (Director) 推理引擎</text>
<line x1="380" y1="1100" x2="1020" y2="1100" stroke="#3b82f6" stroke-width="1"/>
<text x="700" y="1120" text-anchor="middle" style="font-size:11px;fill:#bfdbfe;">SP ~35K tokens: ①角色定义 ②工具定义(23个) ③输出格式+注意事项(12条)</text>
<text x="700" y="1137" text-anchor="middle" style="font-size:11px;fill:#bfdbfe;">④Few-shot示例(占SP约50%) ⑤知识库 ⑥人设风格 ⑦动态注入(env/memory/skill)</text>
<line x1="380" y1="1148" x2="1020" y2="1148" stroke="#3b82f6" stroke-width="1"/>
<text x="700" y="1168" text-anchor="middle" style="font-size:12px;fill:#ffffff;font-weight:600;">输出: talk_or_not / talk_content / action_list</text>
<text x="700" y="1188" text-anchor="middle" style="font-size:10px;fill:#fca5a5;">⚠ 耗时~800ms · 已下架 · 6/4提测分支 · 不能100%保证执行 · 上下文注意力有限</text>
<line x1="700" y1="1210" x2="700" y2="1260" stroke="#1e3a5f" stroke-width="2.5" marker-end="url(#arr-blue)"/>
<rect x="715" y="1222" width="95" height="16" rx="3" fill="#ffffff" opacity="0.9"/>
<text x="763" y="1234" text-anchor="middle" class="arrow-label" style="fill:#1e3a5f;">action_list 下发</text>
<text x="30" y="1290" class="layer-label">LAYER 7</text>
<rect x="370" y="1260" width="660" height="100" rx="10" fill="#eff6ff" stroke="#2563eb" stroke-width="1.5" filter="url(#shadow)"/>
<text x="700" y="1285" text-anchor="middle" style="font-size:14px;font-weight:700;fill:#1e40af;">⚙ 23个下游工具执行</text>
<text x="700" y="1305" text-anchor="middle" class="box-detail">vehicle_basic_control · ambient_light_control · search_and_control_music</text>
<text x="700" y="1320" text-anchor="middle" class="box-detail">goal_list_update · search_poi_qa · navi_basic_control · web_search ...</text>
<text x="700" y="1340" text-anchor="middle" style="font-size:10px;fill:#2563eb;">→ SOA 车控指令 → 方向靠（端侧执行） · 700条原子化功能</text>
<path d="M 1030,1300 L 1100,1300 L 1100,1135 L 1050,1135" stroke="#6b7280" stroke-width="1.5" fill="none" stroke-dasharray="5,3" marker-end="url(#arr-gray)"/>
<text x="1115" y="1220" text-anchor="start" style="font-size:9px;fill:#6b7280;">tool_feedback</text>
<text x="1115" y="1234" text-anchor="start" style="font-size:9px;fill:#6b7280;">回传Planner</text>
<text x="1115" y="1248" text-anchor="start" style="font-size:9px;fill:#6b7280;">二次推理</text>
<line x1="700" y1="1360" x2="700" y2="1400" stroke="#2563eb" stroke-width="2" marker-end="url(#arr-blue)"/>
<text x="30" y="1430" class="layer-label">LAYER 8</text>
<rect x="280" y="1400" width="840" height="80" rx="10" fill="#f9fafb" stroke="#d1d5db" stroke-width="1" stroke-dasharray="6,3"/>
<text x="700" y="1418" text-anchor="middle" style="font-size:10px;fill:#9ca3af;letter-spacing:2px;">呈现层（用户最终看到 / 听到 / 感知到的）</text>
<rect x="300" y="1430" width="170" height="40" rx="6" fill="#dbeafe" stroke="#93c5fd" stroke-width="1"/>
<text x="385" y="1455" text-anchor="middle" class="box-detail" style="font-weight:600;">🔊 TTS 语音播报</text>
<rect x="490" y="1430" width="190" height="40" rx="6" fill="#dbeafe" stroke="#93c5fd" stroke-width="1"/>
<text x="585" y="1455" text-anchor="middle" class="box-detail" style="font-weight:600;">📺 AI画布 执行项展示</text>
<rect x="700" y="1430" width="200" height="40" rx="6" fill="#dbeafe" stroke="#93c5fd" stroke-width="1"/>
<text x="800" y="1448" text-anchor="middle" class="box-detail" style="font-weight:600;">🤖 AIBOT 表情</text>
<text x="800" y="1462" text-anchor="middle" style="font-size:9px;fill:#6b7280;">触发后1分钟恢复桃子</text>
<rect x="920" y="1430" width="185" height="40" rx="6" fill="#dbeafe" stroke="#93c5fd" stroke-width="1"/>
<text x="1013" y="1448" text-anchor="middle" class="box-detail" style="font-weight:600;">🚗 车控执行</text>
<text x="1013" y="1462" text-anchor="middle" style="font-size:9px;fill:#6b7280;">空调/座椅/车窗/氛围灯</text>
<rect x="1290" y="420" width="100" height="20" rx="3" fill="#faf5ff"/>
<text x="1340" y="435" text-anchor="middle" class="section-label" style="font-size:10px;">右侧模块</text>
<rect x="1260" y="450" width="130" height="250" rx="10" fill="#faf5ff" stroke="#7c3aed" stroke-width="2" filter="url(#shadow)"/>
<text x="1325" y="475" text-anchor="middle" style="font-size:12px;font-weight:700;fill:#5b21b6;">⏱ 触发器</text>
<text x="1325" y="492" text-anchor="middle" style="font-size:12px;font-weight:700;fill:#5b21b6;">引擎 ⑮</text>
<line x1="1275" y1="500" x2="1375" y2="500" stroke="#c4b5fd" stroke-width="1"/>
<text x="1325" y="517" text-anchor="middle" style="font-size:9px;fill:#374151;">输入:</text>
<text x="1325" y="530" text-anchor="middle" style="font-size:9px;fill:#374151;">端侧信号库④</text>
<text x="1325" y="543" text-anchor="middle" style="font-size:8px;fill:#6b7280;">CAN/摄像头/</text>
<text x="1325" y="554" text-anchor="middle" style="font-size:8px;fill:#6b7280;">定位/时间</text>
<line x1="1275" y1="562" x2="1375" y2="562" stroke="#c4b5fd" stroke-width="1"/>
<text x="1325" y="578" text-anchor="middle" style="font-size:9px;fill:#374151;">输出:</text>
<text x="1325" y="591" text-anchor="middle" style="font-size:8px;fill:#374151;">→ 静态Advisor⑯</text>
<text x="1325" y="603" text-anchor="middle" style="font-size:8px;fill:#6b7280;">(仅情感·打招呼)</text>
<text x="1325" y="616" text-anchor="middle" style="font-size:8px;fill:#374151;">→ 动态Advisor⑰</text>
<text x="1325" y="629" text-anchor="middle" style="font-size:8px;fill:#374151;">→ L21通知Planner</text>
<line x1="1275" y1="638" x2="1375" y2="638" stroke="#c4b5fd" stroke-width="1"/>
<text x="1325" y="653" text-anchor="middle" style="font-size:8px;fill:#dc2626;font-weight:600;">⚠ 上汽无静态Advisor</text>
<text x="1325" y="666" text-anchor="middle" style="font-size:8px;fill:#dc2626;">L17断裂</text>
<text x="1325" y="679" text-anchor="middle" style="font-size:8px;fill:#dc2626;">临时方案:L21直连</text>
<text x="1325" y="692" text-anchor="middle" style="font-size:8px;fill:#dc2626;">Planner</text>
<path d="M 1260,650 L 1170,850 L 1080,1100" stroke="#7c3aed" stroke-width="1.5" fill="none" stroke-dasharray="6,3" marker-end="url(#arr-purple)"/>
<text x="1190" y="870" text-anchor="start" style="font-size:9px;fill:#7c3aed;">L21 条件触发</text>
<text x="1190" y="883" text-anchor="start" style="font-size:9px;fill:#7c3aed;">通知Planner</text>
<rect x="20" y="1040" width="90" height="20" rx="3" fill="#fef2f2"/>
<text x="65" y="1055" text-anchor="middle" class="section-label" style="font-size:10px;color:#dc2626;">左侧模块</text>
<rect x="20" y="1070" width="250" height="150" rx="10" fill="#fef2f2" stroke="#dc2626" stroke-width="2" filter="url(#shadow)"/>
<text x="145" y="1095" text-anchor="middle" style="font-size:12px;font-weight:700;fill:#991b1b;">🛡 安全兜底机制</text>
<line x1="40" y1="1105" x2="250" y2="1105" stroke="#fca5a5" stroke-width="1"/>
<text x="145" y="1125" text-anchor="middle" style="font-size:10px;fill:#374151;font-weight:600;">层1: Planner SP 约束</text>
<text x="145" y="1140" text-anchor="middle" style="font-size:9px;fill:#6b7280;">（不能100%保证）</text>
<text x="145" y="1158" text-anchor="middle" style="font-size:10px;fill:#374151;font-weight:600;">层2: Adviser 前置条件判断</text>
<text x="145" y="1173" text-anchor="middle" style="font-size:9px;fill:#6b7280;">（P档/电量/高压校验）</text>
<text x="145" y="1191" text-anchor="middle" style="font-size:10px;fill:#dc2626;font-weight:600;">层3: 车控底层写死兜底</text>
<text x="145" y="1206" text-anchor="middle" style="font-size:9px;fill:#dc2626;">⚠ 待定方案 · 周五沟通</text>
<path d="M 270,1135 L 350,1135" stroke="#dc2626" stroke-width="1.5" fill="none" stroke-dasharray="4,2" marker-end="url(#arr-red)"/>
<rect x="60" y="1530" width="1280" height="130" rx="10" fill="#f9fafb" stroke="#e5e7eb" stroke-width="1"/>
<text x="700" y="1555" text-anchor="middle" style="font-size:13px;font-weight:700;fill:#374151;">图例 Legend</text>
<line x1="100" y1="1578" x2="140" y2="1578" stroke="#ea580c" stroke-width="2" marker-end="url(#arr-orange)"/>
<text x="150" y="1582" style="font-size:10px;fill:#374151;">路由分流</text>
<line x1="250" y1="1578" x2="290" y2="1578" stroke="#dc2626" stroke-width="2.5" marker-end="url(#arr-red)"/>
<text x="300" y="1582" style="font-size:10px;fill:#374151;">分子级路径</text>
<line x1="410" y1="1578" x2="450" y2="1578" stroke="#16a34a" stroke-width="2.5" marker-end="url(#arr-green)"/>
<text x="460" y="1582" style="font-size:10px;fill:#374151;">编排级路径</text>
<line x1="570" y1="1578" x2="610" y2="1578" stroke="#7c3aed" stroke-width="2" marker-end="url(#arr-purple)"/>
<text x="620" y="1582" style="font-size:10px;fill:#374151;">知识注入/触发器</text>
<line x1="740" y1="1578" x2="780" y2="1578" stroke="#6b7280" stroke-width="1.5" stroke-dasharray="5,3" marker-end="url(#arr-gray)"/>
<text x="790" y="1582" style="font-size:10px;fill:#374151;">反馈回环/虚线连接</text>
<rect x="100" y="1600" width="50" height="20" rx="4" fill="#fff7ed" stroke="#ea580c" stroke-width="1.5"/>
<text x="160" y="1615" style="font-size:10px;fill:#374151;">用户输入</text>
<rect x="250" y="1600" width="50" height="20" rx="4" fill="#fef3c7" stroke="#d97706" stroke-width="1.5"/>
<text x="310" y="1615" style="font-size:10px;fill:#374151;">路由/决策</text>
<rect x="410" y="1600" width="50" height="20" rx="4" fill="#fef2f2" stroke="#dc2626" stroke-width="1.5"/>
<text x="470" y="1615" style="font-size:10px;fill:#374151;">分子级/安全</text>
<rect x="570" y="1600" width="50" height="20" rx="4" fill="#f0fdf4" stroke="#16a34a" stroke-width="1.5"/>
<text x="630" y="1615" style="font-size:10px;fill:#374151;">编排场景</text>
<rect x="720" y="1600" width="50" height="20" rx="4" fill="#faf5ff" stroke="#7c3aed" stroke-width="1.5"/>
<text x="780" y="1615" style="font-size:10px;fill:#374151;">知识/触发器</text>
<rect x="870" y="1600" width="50" height="20" rx="4" fill="#1e40af" stroke="#1e3a5f" stroke-width="1.5"/>
<text x="930" y="1615" style="font-size:10px;fill:#374151;">Planner引擎</text>
<rect x="1020" y="1600" width="50" height="20" rx="4" fill="#dbeafe" stroke="#93c5fd" stroke-width="1.5"/>
<text x="1080" y="1615" style="font-size:10px;fill:#374151;">工具/输出</text>
<text x="700" y="1648" text-anchor="middle" style="font-size:10px;fill:#9ca3af;">数据来源: 5/29走查纪要 · 6/3上午场景支持会(小明/左晨/明骏) · 6/3晚周例会 · 6/4沟通会 · AI场景编排评估文档(20张功能结构图)</text>
</svg>