<svg xmlns="http://www.w3.org/2000/svg" viewBox="0 0 1600 2200">
<style>
  text { font-family: 'PingFang SC','Microsoft YaHei','Helvetica Neue',Arial,sans-serif; }
  .t-title { font-size:24px; font-weight:800; fill:#1e3a5f; }
  .t-sub { font-size:13px; fill:#6b7280; }
  .t-h2 { font-size:16px; font-weight:700; fill:#1e293b; }
  .t-h3 { font-size:13px; font-weight:700; fill:#374151; }
  .t-body { font-size:11px; fill:#475569; }
  .t-sm { font-size:10px; fill:#6b7280; }
  .t-data { font-size:10px; fill:#1e3a5f; font-family:Consolas,Monaco,monospace; }
  .t-purple { font-size:11px; fill:#7c3aed; font-weight:600; }
  .t-orange { font-size:11px; fill:#ea580c; font-weight:600; }
  .t-white { font-size:11px; fill:#ffffff; }
  .t-white-b { font-size:12px; fill:#ffffff; font-weight:700; }
</style>
<defs>
  <marker id="a-blue" markerWidth="10" markerHeight="7" refX="9" refY="3.5" orient="auto"><polygon points="0 0,10 3.5,0 7" fill="#2563eb"/></marker>
  <marker id="a-orange" markerWidth="10" markerHeight="7" refX="9" refY="3.5" orient="auto"><polygon points="0 0,10 3.5,0 7" fill="#ea580c"/></marker>
  <filter id="sh"><feDropShadow dx="0" dy="2" stdDeviation="3" flood-opacity="0.08"/></filter>
  <linearGradient id="g-dir" x1="0" y1="0" x2="0" y2="1"><stop offset="0%" stop-color="#1e40af"/><stop offset="100%" stop-color="#1e3a5f"/></linearGradient>
</defs>
<rect width="1600" height="2200" fill="#ffffff"/>
<text x="800" y="40" text-anchor="middle" class="t-title">动态知识 vs 动态示例 - 逻辑架构详解</text>
<text x="800" y="62" text-anchor="middle" class="t-sub">两者是同一条链路上的不同组件 - 解决不同问题 - 注入SP的不同位置</text>
<rect x="100" y="90" width="1400" height="80" rx="12" fill="#f8fafc" stroke="#e2e8f0" stroke-width="1.5" filter="url(#sh)"/>
<text x="800" y="110" text-anchor="middle" class="t-h2">一句话区别</text>
<rect x="140" y="122" width="600" height="38" rx="8" fill="#faf5ff" stroke="#7c3aed" stroke-width="1.5"/>
<text x="440" y="145" text-anchor="middle" class="t-purple">动态知识 = 告诉Planner这个场景应该怎么做</text>
<text x="440" y="155" text-anchor="middle" class="t-sm">内容: 执行项/前置条件/注意事项/退出方式</text>
<rect x="860" y="122" width="600" height="38" rx="8" fill="#fff7ed" stroke="#ea580c" stroke-width="1.5"/>
<text x="1160" y="145" text-anchor="middle" class="t-orange">动态示例 = 给Planner看标准答案长什么样</text>
<text x="1160" y="155" text-anchor="middle" class="t-sm">内容: input-output的完整对话样本(few-shot)</text>
<text x="800" y="200" text-anchor="middle" class="t-h2">在全链路中的位置</text>
<text x="800" y="218" text-anchor="middle" class="t-sm">两者都在Selector之后、Planner之前，但注入SP的不同位置</text>
<rect x="80" y="240" width="180" height="55" rx="10" fill="#dbeafe" stroke="#2563eb" stroke-width="2" filter="url(#sh)"/>
<text x="170" y="265" text-anchor="middle" class="t-h3">用户说话</text>
<text x="170" y="282" text-anchor="middle" class="t-sm">我好热好闷</text>
<line x1="260" y1="268" x2="310" y2="268" stroke="#2563eb" stroke-width="2" marker-end="url(#a-blue)"/>
<rect x="310" y="240" width="180" height="55" rx="10" fill="#fef3c7" stroke="#d97706" stroke-width="2" filter="url(#sh)"/>
<text x="400" y="265" text-anchor="middle" class="t-h3">Selector SP</text>
<text x="400" y="282" text-anchor="middle" class="t-sm">输出 ID_004,ID_012</text>
<line x1="490" y1="268" x2="540" y2="268" stroke="#d97706" stroke-width="2" marker-end="url(#a-orange)"/>
<rect x="540" y="225" width="510" height="110" rx="12" fill="#f8fafc" stroke="#94a3b8" stroke-width="1" stroke-dasharray="6,3"/>
<text x="795" y="242" text-anchor="middle" class="t-h3">知识检索+拼接(纯机械,无AI)</text>
<rect x="560" y="252" width="220" height="70" rx="8" fill="#faf5ff" stroke="#7c3aed" stroke-width="2"/>
<text x="670" y="272" text-anchor="middle" class="t-purple">动态知识</text>
<text x="670" y="287" text-anchor="middle" class="t-sm">根据ID取Skill全文</text>
<text x="670" y="302" text-anchor="middle" class="t-data">注入 {{knowledge}}</text>
<text x="670" y="317" text-anchor="middle" class="t-sm">泽民写</text>
<rect x="800" y="252" width="220" height="70" rx="8" fill="#fff7ed" stroke="#ea580c" stroke-width="2"/>
<text x="910" y="272" text-anchor="middle" class="t-orange">动态示例</text>
<text x="910" y="287" text-anchor="middle" class="t-sm">根据ID取few-shot</text>
<text x="910" y="302" text-anchor="middle" class="t-data">注入 {{examples}}</text>
<text x="910" y="317" text-anchor="middle" class="t-sm">明骏配</text>
<line x1="1050" y1="268" x2="1100" y2="268" stroke="#1e3a5f" stroke-width="3" marker-end="url(#a-blue)"/>
<rect x="1100" y="240" width="200" height="55" rx="10" fill="url(#g-dir)" stroke="#1e3a5f" stroke-width="2" filter="url(#sh)"/>
<text x="1200" y="265" text-anchor="middle" class="t-white-b">Planner</text>
<text x="1200" y="282" text-anchor="middle" class="t-white">带着知识+示例推理</text>
<text x="1200" y="315" text-anchor="middle" class="t-sm">还注入: env_info + memory + 对话历史</text>
<text x="800" y="380" text-anchor="middle" class="t-h2">详细对比</text>
<rect x="100" y="395" width="300" height="30" rx="5" fill="#f1f5f9" stroke="#e2e8f0" stroke-width="1"/>
<text x="250" y="415" text-anchor="middle" class="t-h3" style="font-size:12px;">对比维度</text>
<rect x="400" y="395" width="560" height="30" rx="5" fill="#faf5ff" stroke="#7c3aed" stroke-width="1"/>
<text x="680" y="415" text-anchor="middle" class="t-purple" style="font-size:12px;">动态知识(Skill/Knowledge)</text>
<rect x="960" y="395" width="540" height="30" rx="5" fill="#fff7ed" stroke="#ea580c" stroke-width="1"/>
<text x="1230" y="415" text-anchor="middle" class="t-orange" style="font-size:12px;">动态示例(Few-shot Examples)</text>
<rect x="100" y="425" width="300" height="28" fill="#ffffff" stroke="#e2e8f0" stroke-width="0.5"/>
<text x="250" y="443" text-anchor="middle" class="t-h3" style="font-size:10px;">是什么</text>
<rect x="400" y="425" width="560" height="28" fill="#ffffff" stroke="#e2e8f0" stroke-width="0.5"/>
<text x="420" y="439" class="t-body" style="font-size:10px;">一份行为指南:告诉Planner该调哪些车控</text>
<rect x="960" y="425" width="540" height="28" fill="#ffffff" stroke="#e2e8f0" stroke-width="0.5"/>
<text x="980" y="439" class="t-body" style="font-size:10px;">一组标准答案:给Planner看输出该长什么样</text>
<rect x="100" y="453" width="300" height="28" fill="#f9fafb" stroke="#e2e8f0" stroke-width="0.5"/>
<text x="250" y="471" text-anchor="middle" class="t-h3" style="font-size:10px;">类比</text>
<rect x="400" y="453" width="560" height="28" fill="#f9fafb" stroke="#e2e8f0" stroke-width="0.5"/>
<text x="420" y="467" class="t-body" style="font-size:10px;">医生的诊疗手册(这个病怎么治/用什么药)</text>
<rect x="960" y="453" width="540" height="28" fill="#f9fafb" stroke="#e2e8f0" stroke-width="0.5"/>
<text x="980" y="467" class="t-body" style="font-size:10px;">医生的病历模板(写得好的病历长什么样)</text>
<rect x="100" y="481" width="300" height="54" fill="#ffffff" stroke="#e2e8f0" stroke-width="0.5"/>
<text x="250" y="512" text-anchor="middle" class="t-h3" style="font-size:10px;">内容包含</text>
<rect x="400" y="481" width="560" height="54" fill="#ffffff" stroke="#e2e8f0" stroke-width="0.5"/>
<text x="420" y="495" class="t-body" style="font-size:10px;">场景名/触发词/前置条件/执行项列表/</text>
<text x="420" y="509" class="t-body" style="font-size:10px;">可编辑项/退出条件/注意事项-禁止事项</text>
<rect x="960" y="481" width="540" height="54" fill="#ffffff" stroke="#e2e8f0" stroke-width="0.5"/>
<text x="980" y="495" class="t-body" style="font-size:10px;">完整的user-assistant-tool对话:</text>
<text x="980" y="509" class="t-body" style="font-size:10px;">user说什么/assistant输出什么JSON/</text>
<text x="980" y="523" class="t-body" style="font-size:10px;">tool返回什么/assistant怎么处理</text>
<rect x="100" y="535" width="300" height="28" fill="#f9fafb" stroke="#e2e8f0" stroke-width="0.5"/>
<text x="250" y="553" text-anchor="middle" class="t-h3" style="font-size:10px;">每条大小</text>
<rect x="400" y="535" width="560" height="28" fill="#f9fafb" stroke="#e2e8f0" stroke-width="0.5"/>
<text x="420" y="549" class="t-body" style="font-size:10px;">~1500-2500字(一个场景的完整行为指南)</text>
<rect x="960" y="535" width="540" height="28" fill="#f9fafb" stroke="#e2e8f0" stroke-width="0.5"/>
<text x="980" y="549" class="t-body" style="font-size:10px;">~500-1000字(一组完整多轮对话样本)</text>
<rect x="100" y="563" width="300" height="28" fill="#ffffff" stroke="#e2e8f0" stroke-width="0.5"/>
<text x="250" y="581" text-anchor="middle" class="t-h3" style="font-size:10px;">注入SP位置</text>
<rect x="400" y="563" width="560" height="28" fill="#ffffff" stroke="#e2e8f0" stroke-width="0.5"/>
<text x="420" y="577" class="t-body" style="font-size:10px;">{{knowledge}} 动态专业知识区域</text>
<rect x="960" y="563" width="540" height="28" fill="#ffffff" stroke="#e2e8f0" stroke-width="0.5"/>
<text x="980" y="577" class="t-body" style="font-size:10px;">{{examples}} 参考示例区域(替换/补充静态示例)</text>
<rect x="100" y="591" width="300" height="28" fill="#f9fafb" stroke="#e2e8f0" stroke-width="0.5"/>
<text x="250" y="609" text-anchor="middle" class="t-h3" style="font-size:10px;">数据来源</text>
<rect x="400" y="591" width="560" height="28" fill="#f9fafb" stroke="#e2e8f0" stroke-width="0.5"/>
<text x="420" y="605" class="t-body" style="font-size:10px;">上汽UC文档(20张图)+SOA清单(700条)</text>
<rect x="960" y="591" width="540" height="28" fill="#f9fafb" stroke="#e2e8f0" stroke-width="0.5"/>
<text x="980" y="605" class="t-body" style="font-size:10px;">参考Skill内容+当前SP的64条静态示例</text>
<rect x="100" y="619" width="300" height="28" fill="#ffffff" stroke="#e2e8f0" stroke-width="0.5"/>
<text x="250" y="637" text-anchor="middle" class="t-h3" style="font-size:10px;">谁负责写</text>
<rect x="400" y="619" width="560" height="28" fill="#ffffff" stroke="#e2e8f0" stroke-width="0.5"/>
<text x="420" y="633" class="t-body" style="font-size:10px;">泽民(产品)写 -> 发给明骏配置</text>
<rect x="960" y="619" width="540" height="28" fill="#ffffff" stroke="#e2e8f0" stroke-width="0.5"/>
<text x="980" y="633" class="t-body" style="font-size:10px;">明骏(研发)配置,泽民提供范本</text>
<rect x="100" y="647" width="300" height="28" fill="#f9fafb" stroke="#e2e8f0" stroke-width="0.5"/>
<text x="250" y="665" text-anchor="middle" class="t-h3" style="font-size:10px;">当前数量</text>
<rect x="400" y="647" width="560" height="28" fill="#f9fafb" stroke="#e2e8f0" stroke-width="0.5"/>
<text x="420" y="661" class="t-body" style="font-size:10px;">13条(v1质量差,正修复) / PRD目标64条</text>
<rect x="960" y="647" width="540" height="28" fill="#f9fafb" stroke="#e2e8f0" stroke-width="0.5"/>
<text x="980" y="661" class="t-body" style="font-size:10px;">明骏配置中 / 每场景2-3条</text>
<rect x="100" y="675" width="300" height="28" fill="#ffffff" stroke="#e2e8f0" stroke-width="0.5"/>
<text x="250" y="693" text-anchor="middle" class="t-h3" style="font-size:10px;">不做会怎样</text>
<rect x="400" y="675" width="560" height="28" fill="#ffffff" stroke="#e2e8f0" stroke-width="0.5"/>
<text x="420" y="689" class="t-body" style="font-size:10px;">Planner不知道该调什么->瞎编排->badcase</text>
<rect x="960" y="675" width="540" height="28" fill="#ffffff" stroke="#e2e8f0" stroke-width="0.5"/>
<text x="980" y="689" class="t-body" style="font-size:10px;">Planner知道做什么但格式不对->参数错误</text>
<rect x="100" y="703" width="300" height="28" fill="#f9fafb" stroke="#e2e8f0" stroke-width="0.5"/>
<text x="250" y="721" text-anchor="middle" class="t-h3" style="font-size:10px;">上游依赖</text>
<rect x="400" y="703" width="560" height="28" fill="#f9fafb" stroke="#e2e8f0" stroke-width="0.5"/>
<text x="420" y="717" class="t-body" style="font-size:10px;">上汽UC文档 + SOA清单 + 小明bug表</text>
<rect x="960" y="703" width="540" height="28" fill="#f9fafb" stroke="#e2e8f0" stroke-width="0.5"/>
<text x="980" y="717" class="t-body" style="font-size:10px;">依赖Skill先写好(Skill是上游)</text>
<text x="800" y="761" text-anchor="middle" class="t-h2">实际例子: 用户说"我好热好闷"时，分别注入了什么?</text>
<rect x="100" y="781" width="680" height="330" rx="12" fill="#faf5ff" stroke="#7c3aed" stroke-width="2" filter="url(#sh)"/>
<text x="440" y="803" text-anchor="middle" class="t-purple" style="font-size:14px;">注入的动态知识(极速降温Skill)</text>
<line x1="120" y1="813" x2="760" y2="813" stroke="#c4b5fd" stroke-width="1"/>
<text x="130" y="831" class="t-data" style="font-size:10px;">场景ID: ID_004 / 场景名: 极速降温</text>
<text x="130" y="847" class="t-data" style="font-size:10px;">触发词: 好热/暴晒/快速降温/晒太久了散散热</text>
<text x="130" y="863" class="t-data" style="font-size:10px;">前置条件: 无(行驶中也可触发)</text>
<text x="130" y="879" class="t-data" style="font-size:10px;">执行项:</text>
<text x="130" y="895" class="t-data" style="font-size:10px;">  - vehicle_basic_control: 空调开关 ON</text>
<text x="130" y="911" class="t-data" style="font-size:10px;">  - vehicle_basic_control: 空调温度 主驾LO/副驾LO</text>
<text x="130" y="927" class="t-data" style="font-size:10px;">  - vehicle_basic_control: 空调风量 11(最大)</text>
<text x="130" y="943" class="t-data" style="font-size:10px;">  - vehicle_basic_control: 空调AC 开启</text>
<text x="130" y="959" class="t-data" style="font-size:10px;">  - vehicle_basic_control: 空调循环模式 外循环</text>
<text x="130" y="975" class="t-data" style="font-size:10px;">  - vehicle_basic_control: 主驾车窗 打开(前1分钟)</text>
<text x="130" y="991" class="t-data" style="font-size:10px;">  - vehicle_basic_control: 右后车窗 打开(对角线通风)</text>
<text x="130" y="1007" class="t-data" style="font-size:10px;">  (延时60秒后) 关闭车窗</text>
<text x="130" y="1023" class="t-data" style="font-size:10px;">  (达温后) 空调AUTO + 温度22C</text>
<text x="130" y="1039" class="t-data" style="font-size:10px;">注意: 禁止调用极速降温模式一级指令</text>
<text x="130" y="1055" class="t-data" style="font-size:10px;">      必须拆成空调+车窗+风量等原子操作</text>
<text x="130" y="1071" class="t-data" style="font-size:10px;"></text>
<text x="130" y="1087" class="t-data" style="font-size:10px;">作用: Planner读完后知道该调哪些工具、什么参数</text>
<text x="130" y="1103" class="t-data" style="font-size:10px;">但不知道输出的JSON格式该怎么写 -> 需要示例</text>
<rect x="820" y="781" width="680" height="330" rx="12" fill="#fff7ed" stroke="#ea580c" stroke-width="2" filter="url(#sh)"/>
<text x="1160" y="803" text-anchor="middle" class="t-orange" style="font-size:14px;">注入的动态示例(few-shot样本)</text>
<line x1="840" y1="813" x2="1480" y2="813" stroke="#fed7aa" stroke-width="1"/>
<text x="850" y="831" class="t-data" style="font-size:10px;">示例#1: 降温场景标准对话</text>
<text x="850" y="845" class="t-data" style="font-size:10px;">---------------------------------------</text>
<text x="850" y="859" class="t-data" style="font-size:10px;">user: {"query":"好热啊赶紧降温",</text>
<text x="850" y="873" class="t-data" style="font-size:10px;">       "speaker":"主驾"}</text>
<text x="850" y="887" class="t-data" style="font-size:10px;"></text>
<text x="850" y="901" class="t-data" style="font-size:10px;">assistant: {</text>
<text x="850" y="915" class="t-data" style="font-size:10px;">  "talk_or_not": "yes",</text>
<text x="850" y="929" class="t-data" style="font-size:10px;">  "talk_content": "好的,我帮你快速降温~",</text>
<text x="850" y="943" class="t-data" style="font-size:10px;">  "action_list": [</text>
<text x="850" y="957" class="t-data" style="font-size:10px;">    {"tool":"vehicle_basic_control",</text>
<text x="850" y="971" class="t-data" style="font-size:10px;">     "param":"空调ON,温度LO,风量11,AC开启"},</text>
<text x="850" y="985" class="t-data" style="font-size:10px;">    {"tool":"vehicle_basic_control",</text>
<text x="850" y="999" class="t-data" style="font-size:10px;">     "param":"主驾车窗打开50%"},</text>
<text x="850" y="1013" class="t-data" style="font-size:10px;">    {"tool":"vehicle_basic_control",</text>
<text x="850" y="1027" class="t-data" style="font-size:10px;">     "param":"右后车窗打开50%(对角线通风)"}</text>
<text x="850" y="1041" class="t-data" style="font-size:10px;">  ]</text>
<text x="850" y="1055" class="t-data" style="font-size:10px;">}</text>
<text x="850" y="1069" class="t-data" style="font-size:10px;"></text>
<text x="850" y="1083" class="t-data" style="font-size:10px;">作用: Planner看完后知道输出格式怎么写:</text>
<text x="850" y="1097" class="t-data" style="font-size:10px;">  JSON三个字段、action_list的工具名和参数写法</text>
<text x="800" y="1141" text-anchor="middle" class="t-h2">Planner SP结构: 两者各自注入到哪里</text>
<rect x="250" y="1156" width="1100" height="420" rx="14" fill="url(#g-dir)" stroke="#1e3a5f" stroke-width="3" filter="url(#sh)"/>
<text x="800" y="1183" text-anchor="middle" class="t-white-b" style="font-size:15px;">Planner System Prompt (~35K tokens)</text>
<rect x="290" y="1201" width="1020" height="26" rx="5" fill="#1e3a5f" stroke="#2563eb" stroke-width="0.5"/>
<text x="310" y="1218" class="t-white" style="font-size:10px;">1 角色定义 (~500 tokens)</text>
<text x="850" y="1218" class="t-white" style="font-size:9px;">固定 | 你是豆包,一台AI汽车的个人助手</text>
<rect x="290" y="1231" width="1020" height="26" rx="5" fill="#1e3a5f" stroke="#2563eb" stroke-width="0.5"/>
<text x="310" y="1248" class="t-white" style="font-size:10px;">2 工具定义x23 (~4000 tokens)</text>
<text x="850" y="1248" class="t-white" style="font-size:9px;">固定 | vehicle_basic_control / music / navi ...</text>
<rect x="290" y="1261" width="1020" height="26" rx="5" fill="#1e3a5f" stroke="#2563eb" stroke-width="0.5"/>
<text x="310" y="1278" class="t-white" style="font-size:10px;">3 输出格式+注意事项14条 (~800 tokens)</text>
<text x="850" y="1278" class="t-white" style="font-size:9px;">固定 | talk_or_not / talk_content / action_list</text>
<rect x="290" y="1291" width="1020" height="26" rx="5" fill="#1e3a5f" stroke="#2563eb" stroke-width="0.5"/>
<text x="310" y="1308" class="t-white" style="font-size:10px;">4 参考示例 (~16000 tokens = 占SP的50%!)</text>
<text x="850" y="1308" class="t-white" style="font-size:9px;">静态64条 | 固定的input-output对话样本(远期被动态示例替换)</text>
<rect x="290" y="1321" width="1020" height="26" rx="5" fill="#1e3a5f" stroke="#2563eb" stroke-width="0.5"/>
<text x="310" y="1338" class="t-white" style="font-size:10px;">5 车辆设备知识 (~1500 tokens)</text>
<text x="850" y="1338" class="t-white" style="font-size:9px;">固定 | 空调范围/座椅档位/氛围灯颜色...</text>
<rect x="290" y="1351" width="1020" height="26" rx="5" fill="#1e3a5f" stroke="#2563eb" stroke-width="0.5"/>
<text x="310" y="1368" class="t-white" style="font-size:10px;">6 人设与聊天风格 (~800 tokens)</text>
<text x="850" y="1368" class="t-white" style="font-size:9px;">固定 | 温柔高知女生</text>
<rect x="290" y="1391" width="1020" height="55" rx="8" fill="#2d1b69" stroke="#7c3aed" stroke-width="2.5"/>
<text x="310" y="1409" class="t-white-b">7 动态专业知识 {{knowledge}}  ← 泽民写的Skill注入这里</text>
<text x="310" y="1426" class="t-white" style="font-size:10px;">内容: 场景执行项/前置条件/注意事项/退出方式 | ~1500-2500字/条 | 每轮根据Selector命中的ID动态替换</text>
<text x="310" y="1439" class="t-white" style="font-size:10px;">当前: 13条(v1) | PRD目标: 64条(6个专家角色 x 多场景)</text>
<rect x="290" y="1456" width="1020" height="55" rx="8" fill="#4a2800" stroke="#ea580c" stroke-width="2.5"/>
<text x="310" y="1474" class="t-white-b">8 动态示例 {{examples}}  ← 明骏配的few-shot注入这里</text>
<text x="310" y="1491" class="t-white" style="font-size:10px;">内容: 完整的user-assistant对话(含action_list的JSON格式) | ~500-1000字/条 | 替换/补充上面4的静态示例</text>
<text x="310" y="1504" class="t-white" style="font-size:10px;">目的: 让Planner学会该场景的输出格式 | 依赖Skill先写好(Skill是上游)</text>
<rect x="290" y="1521" width="330" height="26" rx="5" fill="#0a2818" stroke="#16a34a" stroke-width="1"/>
<text x="310" y="1538" class="t-white" style="font-size:10px;">9 env_info {{env_info}} P档/温度32C/SOC78%...</text>
<rect x="640" y="1521" width="330" height="26" rx="5" fill="#0a2818" stroke="#16a34a" stroke-width="1"/>
<text x="660" y="1538" class="t-white" style="font-size:10px;">10 memory {{memory}} 偏好温度24C/FaceID...</text>
<rect x="990" y="1521" width="320" height="26" rx="5" fill="#0a2818" stroke="#16a34a" stroke-width="1"/>
<text x="1010" y="1538" class="t-white" style="font-size:10px;">11 对话历史 最近10轮user/assistant</text>
<text x="800" y="1566" text-anchor="middle" class="t-white-b" style="font-size:10px;">总计~35K-40K tokens | 固定部分~25K | 动态部分(知识+示例+env+memory+历史)~10K-15K</text>
<text x="800" y="1601" text-anchor="middle" class="t-h2">谁来写? 怎么写? 给谁?</text>
<rect x="100" y="1616" width="680" height="175" rx="12" fill="#faf5ff" stroke="#7c3aed" stroke-width="2" filter="url(#sh)"/>
<text x="440" y="1639" text-anchor="middle" class="t-purple" style="font-size:13px;">动态知识的生产流程</text>
<line x1="120" y1="1649" x2="760" y2="1649" stroke="#c4b5fd" stroke-width="1"/>
<text x="130" y="1667" class="t-body" style="font-size:10px;">1. 上汽提供场景UC文档(20张功能结构图+流程图)</text>
<text x="130" y="1681" class="t-body" style="font-size:10px;">2. 左晨提供SOA能力清单(700条原子功能)</text>
<text x="130" y="1695" class="t-body" style="font-size:10px;">3. 泽民(我)对照UC+SOA写Skill -> 每个场景一份</text>
<text x="130" y="1709" class="t-body" style="font-size:10px;">4. 泽民发给明骏 -> 明骏配置到知识库 -> 绑定场景ID</text>
<text x="130" y="1723" class="t-body" style="font-size:10px;">5. Selector命中ID -> 检索模块根据ID取出Skill全文</text>
<text x="130" y="1737" class="t-body" style="font-size:10px;">6. 全文拼接后注入SP的 {{knowledge}} 位置</text>
<text x="130" y="1751" class="t-body" style="font-size:10px;"></text>
<text x="130" y="1765" class="t-body" style="font-size:10px;">当前: 13条(v1质量差) -> 正在修复重写(P0)</text>
<rect x="820" y="1616" width="680" height="175" rx="12" fill="#fff7ed" stroke="#ea580c" stroke-width="2" filter="url(#sh)"/>
<text x="1160" y="1639" text-anchor="middle" class="t-orange" style="font-size:13px;">动态示例的生产流程</text>
<line x1="840" y1="1649" x2="1480" y2="1649" stroke="#fed7aa" stroke-width="1"/>
<text x="850" y="1667" class="t-body" style="font-size:10px;">1. 泽民写好Skill后 -> 提供几条典型query作为范本</text>
<text x="850" y="1681" class="t-body" style="font-size:10px;">2. 明骏参照Skill内容写few-shot样本:</text>
<text x="850" y="1695" class="t-body" style="font-size:10px;">   每个场景2-3条完整对话(user->assistant->tool)</text>
<text x="850" y="1709" class="t-body" style="font-size:10px;">   重点展示action_list的JSON格式和参数写法</text>
<text x="850" y="1723" class="t-body" style="font-size:10px;">3. 明骏配置到示例库 -> 绑定场景ID</text>
<text x="850" y="1737" class="t-body" style="font-size:10px;">4. Selector命中ID -> 取出对应few-shot</text>
<text x="850" y="1751" class="t-body" style="font-size:10px;">5. 替换/补充SP中4的静态示例 -> 注入 {{examples}}</text>
<text x="850" y="1765" class="t-body" style="font-size:10px;"></text>
<text x="850" y="1779" class="t-body" style="font-size:10px;">注意: 动态示例依赖Skill先写好 -> Skill是上游!</text>
<rect x="100" y="1811" width="1400" height="40" rx="8" fill="#f9fafb" stroke="#e5e7eb" stroke-width="1"/>
<text x="800" y="1825" text-anchor="middle" style="font-size:10px;font-weight:600;fill:#374151;">图例</text>
<rect x="200" y="1833" width="14" height="10" rx="3" fill="#faf5ff" stroke="#7c3aed" stroke-width="1.5"/>
<text x="220" y="1842" style="font-size:9px;fill:#374151;">动态知识(Skill) - 泽民写</text>
<rect x="450" y="1833" width="14" height="10" rx="3" fill="#fff7ed" stroke="#ea580c" stroke-width="1.5"/>
<text x="470" y="1842" style="font-size:9px;fill:#374151;">动态示例(Few-shot) - 明骏配</text>
<rect x="700" y="1833" width="14" height="10" rx="3" fill="#1e3a5f" stroke="#2563eb" stroke-width="1.5"/>
<text x="720" y="1842" style="font-size:9px;fill:#374151;">SP固定部分</text>
<rect x="850" y="1833" width="14" height="10" rx="3" fill="#0a2818" stroke="#16a34a" stroke-width="1.5"/>
<text x="870" y="1842" style="font-size:9px;fill:#374151;">其他动态变量</text>
<text x="1100" y="1842" style="font-size:8px;fill:#94a3b8;">数据来源: 动态知识检索需求说明PRD + 动态知识注入逻辑讲解文档</text>
</svg>