<svg xmlns="http://www.w3.org/2000/svg" viewBox="0 0 1140 821" font-family="PingFang SC, Heiti SC, sans-serif">
<defs><marker id="a" markerWidth="12" markerHeight="10" refX="8" refY="5" orient="auto"><path d="M0,0 L11,5 L0,10 z" fill="#64748b"/></marker>
<filter id="sh" x="-6%" y="-6%" width="112%" height="112%"><feDropShadow dx="0" dy="2" stdDeviation="2" flood-opacity="0.14"/></filter></defs>
<rect width="1140" height="821" fill="#ffffff"/>
<rect x="20" y="18" width="1100" height="84" rx="14" fill="#0f172a"/>
<text x="46" y="52" font-size="22" font-weight="bold" fill="#fff">需求5 ｜ 触发机制重构</text>
<text x="46" y="80" font-size="13" fill="#cbd5e1">现机制每帧全量扫、只看当前态不看变化,分不清上车/下车</text>
<rect x="950" y="38" width="150" height="36" rx="18" fill="#64748b"/>
<text x="1025.0" y="62" font-size="15" font-weight="bold" fill="#fff" text-anchor="middle">赛力斯 · P1</text>
<rect x="40" y="126" width="1060" height="135" rx="12" fill="#eff6ff" stroke="#2563eb" stroke-width="1.8" filter="url(#sh)"/>
<rect x="40" y="126" width="1060" height="36" rx="12" fill="#2563eb"/>
<rect x="40" y="144" width="1060" height="18" fill="#2563eb"/>
<circle cx="66" cy="144" r="12" fill="#ffffff"/>
<text x="66" y="149" font-size="14" font-weight="bold" fill="#2563eb" text-anchor="middle">1</text>
<text x="88" y="150" font-size="15.5" font-weight="bold" fill="#ffffff">你(PM)产出 — 两份交付物</text>
<text x="62" y="186" font-size="13.5" font-weight="bold" fill="#1e3a8a">交付物1:触发机制调研报告</text>
<text x="90" y="212" font-size="12" fill="#64748b">– 对标理想 / 老极客:1个触发事件 + 一堆静态约束条件</text>
<text x="62" y="233" font-size="13.5" font-weight="bold" fill="#1e3a8a">交付物2:给每个条件补『触发时机 / 瞬间』定义</text>
<path d="M570.0,263 L570.0,287" stroke="#94a3b8" stroke-width="2.6" marker-end="url(#a)"/>
<rect x="40" y="291" width="1060" height="132" rx="12" fill="#f5f3ff" stroke="#7c3aed" stroke-width="1.8" filter="url(#sh)"/>
<rect x="40" y="291" width="1060" height="36" rx="12" fill="#7c3aed"/>
<rect x="40" y="309" width="1060" height="18" fill="#7c3aed"/>
<circle cx="66" cy="309" r="12" fill="#ffffff"/>
<text x="66" y="314" font-size="14" font-weight="bold" fill="#7c3aed" text-anchor="middle">2</text>
<text x="88" y="315" font-size="15.5" font-weight="bold" fill="#ffffff">交给谁 → 他拿到后做什么</text>
<text x="62" y="351" font-size="13.5" font-weight="bold" fill="#5b21b6">开发 · 刘洋(北京)</text>
<text x="66" y="377" font-size="13" fill="#1f2937">• 改造触发引擎:支持『状态变更』判断</text>
<text x="66" y="399" font-size="13" fill="#1f2937">• 支持多条件组合(任一满足 / 全部满足)</text>
<path d="M570.0,425 L570.0,449" stroke="#94a3b8" stroke-width="2.6" marker-end="url(#a)"/>
<rect x="40" y="453" width="1060" height="84" rx="12" fill="#f0fdfa" stroke="#0d9488" stroke-width="1.8" filter="url(#sh)"/>
<rect x="40" y="453" width="1060" height="36" rx="12" fill="#0d9488"/>
<rect x="40" y="471" width="1060" height="18" fill="#0d9488"/>
<circle cx="66" cy="471" r="12" fill="#ffffff"/>
<text x="66" y="476" font-size="14" font-weight="bold" fill="#0d9488" text-anchor="middle">3</text>
<text x="88" y="477" font-size="15.5" font-weight="bold" fill="#ffffff">测试验收</text>
<text x="66" y="513" font-size="13" fill="#1f2937">• 测试·萝莉:覆盖上车 / 下车等易混场景</text>
<path d="M570.0,539 L570.0,563" stroke="#94a3b8" stroke-width="2.6" marker-end="url(#a)"/>
<rect x="40" y="567" width="1060" height="84" rx="12" fill="#f0fdf4" stroke="#16a34a" stroke-width="1.8" filter="url(#sh)"/>
<rect x="40" y="567" width="1060" height="36" rx="12" fill="#16a34a"/>
<rect x="40" y="585" width="1060" height="18" fill="#16a34a"/>
<circle cx="66" cy="585" r="12" fill="#ffffff"/>
<text x="66" y="590" font-size="14" font-weight="bold" fill="#16a34a" text-anchor="middle">4</text>
<text x="88" y="591" font-size="15.5" font-weight="bold" fill="#ffffff">最终落地</text>
<text x="66" y="627" font-size="13" fill="#1f2937">• 赛力斯版触发更准,能处理多条件组合</text>
<rect x="40" y="673" width="520.0" height="128" rx="12" fill="#fef2f2" stroke="#dc2626" stroke-width="1.8" filter="url(#sh)"/>
<rect x="40" y="673" width="520.0" height="34" rx="12" fill="#dc2626"/>
<rect x="40" y="690" width="520.0" height="17" fill="#dc2626"/>
<text x="58" y="696" font-size="14.5" font-weight="bold" fill="#ffffff">🔑 开发前置 · 缺了开不了工</text>
<text x="60" y="731" font-size="12.5" fill="#1f2937">• 调研结论先出</text>
<text x="60" y="753" font-size="12.5" fill="#1f2937">• 高频条件清单 ← 需求1(知道给哪些条件定时机)</text>
<text x="60" y="775" font-size="12.5" fill="#1f2937">• 上汽这版先用『变更为』凑合,不重构</text>
<rect x="580.0" y="673" width="520.0" height="128" rx="12" fill="#fffbeb" stroke="#d97706" stroke-width="1.8" filter="url(#sh)"/>
<rect x="580.0" y="673" width="520.0" height="34" rx="12" fill="#d97706"/>
<rect x="580.0" y="690" width="520.0" height="17" fill="#d97706"/>
<text x="598.0" y="696" font-size="14.5" font-weight="bold" fill="#ffffff">🗓 排期 · 依赖 · 风险</text>
<text x="600.0" y="731" font-size="12.5" fill="#1f2937">• 赛力斯阶段</text>
<text x="600.0" y="753" font-size="12.5" fill="#1f2937">• 依赖需求1产出的条件集</text>
</svg>