<svg xmlns="http://www.w3.org/2000/svg" viewBox="0 0 1120 450" font-family="-apple-system,PingFang SC,Microsoft YaHei,sans-serif">
<defs>
<marker id="a-64748b" markerWidth="11" markerHeight="9" refX="8.5" refY="4.2" orient="auto"><path d="M0,0 L10,4.2 L0,8.4 z" fill="#64748b"/></marker>
<marker id="a-2563eb" markerWidth="11" markerHeight="9" refX="8.5" refY="4.2" orient="auto"><path d="M0,0 L10,4.2 L0,8.4 z" fill="#2563eb"/></marker>
<marker id="a-16a34a" markerWidth="11" markerHeight="9" refX="8.5" refY="4.2" orient="auto"><path d="M0,0 L10,4.2 L0,8.4 z" fill="#16a34a"/></marker>
<marker id="a-ea580c" markerWidth="11" markerHeight="9" refX="8.5" refY="4.2" orient="auto"><path d="M0,0 L10,4.2 L0,8.4 z" fill="#ea580c"/></marker>
<marker id="a-7c3aed" markerWidth="11" markerHeight="9" refX="8.5" refY="4.2" orient="auto"><path d="M0,0 L10,4.2 L0,8.4 z" fill="#7c3aed"/></marker>
<marker id="a-a16207" markerWidth="11" markerHeight="9" refX="8.5" refY="4.2" orient="auto"><path d="M0,0 L10,4.2 L0,8.4 z" fill="#a16207"/></marker>
<marker id="a-0891b2" markerWidth="11" markerHeight="9" refX="8.5" refY="4.2" orient="auto"><path d="M0,0 L10,4.2 L0,8.4 z" fill="#0891b2"/></marker>
<marker id="a-dc2626" markerWidth="11" markerHeight="9" refX="8.5" refY="4.2" orient="auto"><path d="M0,0 L10,4.2 L0,8.4 z" fill="#dc2626"/></marker>
<marker id="a-6d28d9" markerWidth="11" markerHeight="9" refX="8.5" refY="4.2" orient="auto"><path d="M0,0 L10,4.2 L0,8.4 z" fill="#6d28d9"/></marker>
<filter id="sh" x="-5%" y="-6%" width="110%" height="124%"><feDropShadow dx="0" dy="1" stdDeviation="1.1" flood-color="#000" flood-opacity="0.13"/></filter></defs>
<rect width="1120" height="450" fill="#ffffff"/>
<rect x="50" y="180" width="210" height="100" rx="9" fill="#e8f1ff" stroke="#2563eb" stroke-width="1.7" filter="url(#sh)"/>
<text x="155.0" y="200" text-anchor="middle" font-size="14" font-weight="bold" fill="#0f172a">⑨ 拒识 / 仲裁 / 意图</text>
<text x="155.0" y="218" text-anchor="middle" font-size="11" fill="#475569">ASR 后第一分流口</text>
<text x="155.0" y="234" text-anchor="middle" font-size="11" fill="#475569">判错→后面全错</text>
<rect x="440" y="55" width="360" height="56" rx="9" fill="#f1f5f9" stroke="#475569" stroke-width="1.7" filter="url(#sh)"/>
<text x="620.0" y="75" text-anchor="middle" font-size="13" font-weight="bold" fill="#0f172a">① 简单车控 → ⑤ 端侧闭环</text>
<text x="620.0" y="93" text-anchor="middle" font-size="10" fill="#475569">例:"打开车窗" · 尽量端侧毫秒级</text>
<rect x="440" y="140" width="360" height="56" rx="9" fill="#f1f5f9" stroke="#475569" stroke-width="1.7" filter="url(#sh)"/>
<text x="620.0" y="160" text-anchor="middle" font-size="13" font-weight="bold" fill="#0f172a">② 复杂对话 → ⑲ Director 大脑</text>
<text x="620.0" y="178" text-anchor="middle" font-size="10" fill="#475569">例:"我好热" / "附近招行"</text>
<rect x="440" y="225" width="360" height="56" rx="9" fill="#f1f5f9" stroke="#475569" stroke-width="1.7" filter="url(#sh)"/>
<text x="620.0" y="245" text-anchor="middle" font-size="13" font-weight="bold" fill="#0f172a">③ 条件/定时 → ⑩→⑬ 触发器注册</text>
<text x="620.0" y="263" text-anchor="middle" font-size="10" fill="#475569">例:"超25度开空调" / "10分钟后…"</text>
<rect x="440" y="310" width="360" height="56" rx="9" fill="#f1f5f9" stroke="#475569" stroke-width="1.7" filter="url(#sh)"/>
<text x="620.0" y="330" text-anchor="middle" font-size="13" font-weight="bold" fill="#0f172a">④ 拒识 → ㉚ Context 日志</text>
<text x="620.0" y="348" text-anchor="middle" font-size="10" fill="#475569">没听懂/能力不支持 → 沉淀排查</text>
<path d="M 260,230.0 L 360,208 L 360,83 L 440,83.0" fill="none" stroke="#2563eb" stroke-width="1.9" marker-end="url(#a-2563eb)"/>
<path d="M 260,230.0 L 380,230 L 380,168 L 440,168.0" fill="none" stroke="#16a34a" stroke-width="1.9" marker-end="url(#a-16a34a)"/>
<path d="M 260,230.0 L 380,252 L 380,253 L 440,253.0" fill="none" stroke="#ea580c" stroke-width="1.9" marker-end="url(#a-ea580c)"/>
<path d="M 260,230.0 L 360,252 L 360,338 L 440,338.0" fill="none" stroke="#64748b" stroke-width="1.9" marker-end="url(#a-64748b)"/>
</svg>