<svg xmlns="http://www.w3.org/2000/svg" viewBox="0 0 1080 430" font-family="-apple-system,PingFang SC,Microsoft YaHei,sans-serif">
<defs>
<marker id="a-64748b" markerWidth="11" markerHeight="9" refX="8.5" refY="4.2" orient="auto"><path d="M0,0 L10,4.2 L0,8.4 z" fill="#64748b"/></marker>
<marker id="a-2563eb" markerWidth="11" markerHeight="9" refX="8.5" refY="4.2" orient="auto"><path d="M0,0 L10,4.2 L0,8.4 z" fill="#2563eb"/></marker>
<marker id="a-16a34a" markerWidth="11" markerHeight="9" refX="8.5" refY="4.2" orient="auto"><path d="M0,0 L10,4.2 L0,8.4 z" fill="#16a34a"/></marker>
<marker id="a-ea580c" markerWidth="11" markerHeight="9" refX="8.5" refY="4.2" orient="auto"><path d="M0,0 L10,4.2 L0,8.4 z" fill="#ea580c"/></marker>
<marker id="a-7c3aed" markerWidth="11" markerHeight="9" refX="8.5" refY="4.2" orient="auto"><path d="M0,0 L10,4.2 L0,8.4 z" fill="#7c3aed"/></marker>
<marker id="a-a16207" markerWidth="11" markerHeight="9" refX="8.5" refY="4.2" orient="auto"><path d="M0,0 L10,4.2 L0,8.4 z" fill="#a16207"/></marker>
<marker id="a-0891b2" markerWidth="11" markerHeight="9" refX="8.5" refY="4.2" orient="auto"><path d="M0,0 L10,4.2 L0,8.4 z" fill="#0891b2"/></marker>
<marker id="a-dc2626" markerWidth="11" markerHeight="9" refX="8.5" refY="4.2" orient="auto"><path d="M0,0 L10,4.2 L0,8.4 z" fill="#dc2626"/></marker>
<marker id="a-6d28d9" markerWidth="11" markerHeight="9" refX="8.5" refY="4.2" orient="auto"><path d="M0,0 L10,4.2 L0,8.4 z" fill="#6d28d9"/></marker>
<filter id="sh" x="-5%" y="-6%" width="110%" height="124%"><feDropShadow dx="0" dy="1" stdDeviation="1.1" flood-color="#000" flood-opacity="0.13"/></filter></defs>
<rect width="1080" height="430" fill="#ffffff"/>
<rect x="40" y="70" width="180" height="58" rx="9" fill="#f1f5f9" stroke="#475569" stroke-width="1.7" filter="url(#sh)"/>
<text x="130.0" y="90" text-anchor="middle" font-size="13" font-weight="bold" fill="#0f172a">① 用户语音 query</text>
<text x="130.0" y="108" text-anchor="middle" font-size="10" fill="#475569">speaker / position</text>
<rect x="280" y="70" width="160" height="58" rx="9" fill="#f1f5f9" stroke="#475569" stroke-width="1.7" filter="url(#sh)"/>
<text x="360.0" y="103.0" text-anchor="middle" font-size="13" font-weight="bold" fill="#0f172a">② ASR 转文字</text>
<rect x="520" y="62" width="200" height="74" rx="9" fill="#e8f1ff" stroke="#2563eb" stroke-width="1.7" filter="url(#sh)"/>
<text x="620.0" y="82" text-anchor="middle" font-size="13" font-weight="bold" fill="#0f172a">⑨ 拒识 / 意图分流</text>
<text x="620.0" y="100" text-anchor="middle" font-size="10.5" fill="#475569">所有语音第一关</text>
<rect x="40" y="200" width="180" height="64" rx="9" fill="#fef9c3" stroke="#a16207" stroke-width="1.7" filter="url(#sh)"/>
<text x="130.0" y="220" text-anchor="middle" font-size="13" font-weight="bold" fill="#0f172a">③ 端信号源</text>
<text x="130.0" y="238" text-anchor="middle" font-size="10" fill="#475569">车门/座椅/温度/VLM…</text>
<rect x="300" y="202" width="160" height="58" rx="9" fill="#fef9c3" stroke="#a16207" stroke-width="1.7" filter="url(#sh)"/>
<text x="380.0" y="222" text-anchor="middle" font-size="13" font-weight="bold" fill="#0f172a">④ 端侧信号库</text>
<text x="380.0" y="240" text-anchor="middle" font-size="10.5" fill="#475569">标准化快照</text>
<rect x="40" y="310" width="180" height="52" rx="9" fill="#fef9c3" stroke="#a16207" stroke-width="1.7" filter="url(#sh)"/>
<text x="130.0" y="340.0" text-anchor="middle" font-size="13" font-weight="bold" fill="#0f172a">⑪ 云信号源</text>
<rect x="300" y="308" width="160" height="58" rx="9" fill="#fef9c3" stroke="#a16207" stroke-width="1.7" filter="url(#sh)"/>
<text x="380.0" y="328" text-anchor="middle" font-size="13" font-weight="bold" fill="#0f172a">⑫ 云端信号库</text>
<text x="380.0" y="346" text-anchor="middle" font-size="9.5" fill="#475569">端信号同步上来(全集)</text>
<rect x="560" y="232" width="220" height="90" rx="9" fill="#e8f1ff" stroke="#2563eb" stroke-width="1.7" filter="url(#sh)"/>
<text x="670.0" y="252" text-anchor="middle" font-size="13" font-weight="bold" fill="#0f172a">触发器只读信号库</text>
<text x="670.0" y="270" text-anchor="middle" font-size="10" fill="#475569">⑮/㉔ 只读标准信号</text>
<text x="670.0" y="286" text-anchor="middle" font-size="10" fill="#475569">不碰原始信号源</text>
<text x="670.0" y="302" text-anchor="middle" font-size="10" fill="#475569">→ 规则可跨车型复用</text>
<path d="M 220,99.0 L 280,99.0" fill="none" stroke="#64748b" stroke-width="1.9" marker-end="url(#a-64748b)"/>
<rect x="211.4" y="89.0" width="77.19999999999999" height="19" rx="4" fill="#fff" opacity="0.97" stroke="#64748b" stroke-width="0.6"/>
<text x="250.0" y="102.5" text-anchor="middle" font-size="10.5" font-weight="bold" fill="#64748b">开口→转文字</text>
<path d="M 440,99.0 L 520,99.0" fill="none" stroke="#64748b" stroke-width="1.9" marker-end="url(#a-64748b)"/>
<rect x="447.0" y="89.0" width="66.0" height="19" rx="4" fill="#fff" opacity="0.97" stroke="#64748b" stroke-width="0.6"/>
<text x="480.0" y="102.5" text-anchor="middle" font-size="10.5" font-weight="bold" fill="#64748b">上云判意图</text>
<path d="M 220,232.0 L 300,231.0" fill="none" stroke="#a16207" stroke-width="1.9" marker-end="url(#a-a16207)"/>
<rect x="243.8" y="221.5" width="32.4" height="19" rx="4" fill="#fff" opacity="0.97" stroke="#a16207" stroke-width="0.6"/>
<text x="260.0" y="235.0" text-anchor="middle" font-size="10.5" font-weight="bold" fill="#a16207">入库</text>
<path d="M 220,336.0 L 300,337.0" fill="none" stroke="#a16207" stroke-width="1.9" marker-end="url(#a-a16207)"/>
<rect x="243.8" y="326.5" width="32.4" height="19" rx="4" fill="#fff" opacity="0.97" stroke="#a16207" stroke-width="0.6"/>
<text x="260.0" y="340.0" text-anchor="middle" font-size="10.5" font-weight="bold" fill="#a16207">入库</text>
<path d="M 380.0,260 L 380,290 L 380.0,308" fill="none" stroke="#a16207" stroke-width="3.0" marker-end="url(#a-a16207)"/>
<rect x="335.8" y="274.0" width="88.39999999999999" height="19" rx="4" fill="#fff" opacity="0.97" stroke="#a16207" stroke-width="0.6"/>
<text x="380.0" y="287.5" text-anchor="middle" font-size="10.5" font-weight="bold" fill="#a16207">端信号同步上云</text>
<path d="M 460,337.0 L 560,277.0" fill="none" stroke="#a16207" stroke-width="1.9" marker-end="url(#a-a16207)"/>
<rect x="477.0" y="297.0" width="66.0" height="19" rx="4" fill="#fff" opacity="0.97" stroke="#a16207" stroke-width="0.6"/>
<text x="510.0" y="310.5" text-anchor="middle" font-size="10.5" font-weight="bold" fill="#a16207">快照供判定</text>
</svg>