<svg xmlns="http://www.w3.org/2000/svg" viewBox="0 0 1340 470" font-family="-apple-system,PingFang SC,Microsoft YaHei,sans-serif">
<defs>
<marker id="a-64748b" markerWidth="11" markerHeight="9" refX="8.5" refY="4.2" orient="auto"><path d="M0,0 L10,4.2 L0,8.4 z" fill="#64748b"/></marker>
<marker id="a-2563eb" markerWidth="11" markerHeight="9" refX="8.5" refY="4.2" orient="auto"><path d="M0,0 L10,4.2 L0,8.4 z" fill="#2563eb"/></marker>
<marker id="a-16a34a" markerWidth="11" markerHeight="9" refX="8.5" refY="4.2" orient="auto"><path d="M0,0 L10,4.2 L0,8.4 z" fill="#16a34a"/></marker>
<marker id="a-ea580c" markerWidth="11" markerHeight="9" refX="8.5" refY="4.2" orient="auto"><path d="M0,0 L10,4.2 L0,8.4 z" fill="#ea580c"/></marker>
<marker id="a-7c3aed" markerWidth="11" markerHeight="9" refX="8.5" refY="4.2" orient="auto"><path d="M0,0 L10,4.2 L0,8.4 z" fill="#7c3aed"/></marker>
<marker id="a-a16207" markerWidth="11" markerHeight="9" refX="8.5" refY="4.2" orient="auto"><path d="M0,0 L10,4.2 L0,8.4 z" fill="#a16207"/></marker>
<marker id="a-0891b2" markerWidth="11" markerHeight="9" refX="8.5" refY="4.2" orient="auto"><path d="M0,0 L10,4.2 L0,8.4 z" fill="#0891b2"/></marker>
<marker id="a-dc2626" markerWidth="11" markerHeight="9" refX="8.5" refY="4.2" orient="auto"><path d="M0,0 L10,4.2 L0,8.4 z" fill="#dc2626"/></marker>
<marker id="a-6d28d9" markerWidth="11" markerHeight="9" refX="8.5" refY="4.2" orient="auto"><path d="M0,0 L10,4.2 L0,8.4 z" fill="#6d28d9"/></marker>
<filter id="sh" x="-5%" y="-6%" width="110%" height="124%"><feDropShadow dx="0" dy="1" stdDeviation="1.1" flood-color="#000" flood-opacity="0.13"/></filter></defs>
<rect width="1340" height="470" fill="#ffffff"/>
<rect x="40" y="80" width="290" height="340" rx="9" fill="#f1f5f9" stroke="#475569" stroke-width="1.7" filter="url(#sh)"/>
<text x="185.0" y="100" text-anchor="middle" font-size="14" font-weight="bold" fill="#0f172a">① 入口区</text>
<text x="185.0" y="118" text-anchor="middle" font-size="11" fill="#475569">拿事实</text>
<text x="185.0" y="134" text-anchor="middle" font-size="11" fill="#475569">① 用户语音 query</text>
<text x="185.0" y="150" text-anchor="middle" font-size="11" fill="#475569">② ASR 转文字</text>
<text x="185.0" y="166" text-anchor="middle" font-size="11" fill="#475569">③ 端信号源 / ④ 端信号库</text>
<text x="185.0" y="182" text-anchor="middle" font-size="11" fill="#475569">⑪ 云信号源 / ⑫ 云信号库</text>
<rect x="390" y="80" width="300" height="340" rx="9" fill="#e8f1ff" stroke="#2563eb" stroke-width="1.7" filter="url(#sh)"/>
<text x="540.0" y="100" text-anchor="middle" font-size="14" font-weight="bold" fill="#0f172a">② 触发器</text>
<text x="540.0" y="118" text-anchor="middle" font-size="11" fill="#475569">判时机(今天主角)</text>
<text x="540.0" y="134" text-anchor="middle" font-size="11" fill="#475569">⑬ 规则平台 / ⑭ 条件解析</text>
<text x="540.0" y="150" text-anchor="middle" font-size="11" fill="#475569">⑮ 云端触发器(云)</text>
<text x="540.0" y="166" text-anchor="middle" font-size="11" fill="#475569">㉔ 端侧触发器(端)</text>
<text x="540.0" y="182" text-anchor="middle" font-size="11" fill="#475569">㉕ 感知订阅 / VLM</text>
<rect x="750" y="80" width="290" height="340" rx="9" fill="#f3e8ff" stroke="#7c3aed" stroke-width="1.7" filter="url(#sh)"/>
<text x="895.0" y="100" text-anchor="middle" font-size="14" font-weight="bold" fill="#0f172a">③ 智能决策</text>
<text x="895.0" y="118" text-anchor="middle" font-size="11" fill="#475569">决定说不说/做什么</text>
<text x="895.0" y="134" text-anchor="middle" font-size="11" fill="#475569">⑯/⑰ Advisor 建议</text>
<text x="895.0" y="150" text-anchor="middle" font-size="11" fill="#475569">⑱ Goal List 看板</text>
<text x="895.0" y="166" text-anchor="middle" font-size="11" fill="#475569">⑲/⑳ Director 大脑</text>
<text x="895.0" y="182" text-anchor="middle" font-size="11" fill="#475569">㉑ Context 事实</text>
<rect x="1100" y="80" width="200" height="340" rx="9" fill="#dcfce7" stroke="#16a34a" stroke-width="1.7" filter="url(#sh)"/>
<text x="1200.0" y="100" text-anchor="middle" font-size="14" font-weight="bold" fill="#0f172a">④ 执行触达</text>
<text x="1200.0" y="118" text-anchor="middle" font-size="11" fill="#475569">说·做·反馈</text>
<text x="1200.0" y="134" text-anchor="middle" font-size="11" fill="#475569">㉒ 工具 / ㉓ 任务中心</text>
<text x="1200.0" y="150" text-anchor="middle" font-size="11" fill="#475569">㉖ TTS / ㉗ 机器人</text>
<text x="1200.0" y="166" text-anchor="middle" font-size="11" fill="#475569">㉘ 车控 / ㉙ 输出</text>
<path d="M 330,250.0 L 390,250.0" fill="none" stroke="#64748b" stroke-width="1.9" marker-end="url(#a-64748b)"/>
<path d="M 690,250.0 L 750,250.0" fill="none" stroke="#64748b" stroke-width="1.9" marker-end="url(#a-64748b)"/>
<path d="M 1040,250.0 L 1100,250.0" fill="none" stroke="#64748b" stroke-width="1.9" marker-end="url(#a-64748b)"/>
<rect x="390" y="430" width="409" height="30" rx="8" fill="#fef9c3" stroke="#eab308" stroke-width="1.1"/>
<text x="402" y="452" font-size="10.5" fill="#713f12">横向还有云端/端侧分界:⑮在云端、㉔在端侧;上面登记裁决,下面本地履约</text>
</svg>