<svg xmlns="http://www.w3.org/2000/svg" viewBox="0 0 1340 440" font-family="-apple-system,PingFang SC,Microsoft YaHei,sans-serif">
<defs>
<marker id="a-64748b" markerWidth="11" markerHeight="9" refX="8.5" refY="4.2" orient="auto"><path d="M0,0 L10,4.2 L0,8.4 z" fill="#64748b"/></marker>
<marker id="a-2563eb" markerWidth="11" markerHeight="9" refX="8.5" refY="4.2" orient="auto"><path d="M0,0 L10,4.2 L0,8.4 z" fill="#2563eb"/></marker>
<marker id="a-16a34a" markerWidth="11" markerHeight="9" refX="8.5" refY="4.2" orient="auto"><path d="M0,0 L10,4.2 L0,8.4 z" fill="#16a34a"/></marker>
<marker id="a-ea580c" markerWidth="11" markerHeight="9" refX="8.5" refY="4.2" orient="auto"><path d="M0,0 L10,4.2 L0,8.4 z" fill="#ea580c"/></marker>
<marker id="a-7c3aed" markerWidth="11" markerHeight="9" refX="8.5" refY="4.2" orient="auto"><path d="M0,0 L10,4.2 L0,8.4 z" fill="#7c3aed"/></marker>
<marker id="a-a16207" markerWidth="11" markerHeight="9" refX="8.5" refY="4.2" orient="auto"><path d="M0,0 L10,4.2 L0,8.4 z" fill="#a16207"/></marker>
<marker id="a-0891b2" markerWidth="11" markerHeight="9" refX="8.5" refY="4.2" orient="auto"><path d="M0,0 L10,4.2 L0,8.4 z" fill="#0891b2"/></marker>
<marker id="a-dc2626" markerWidth="11" markerHeight="9" refX="8.5" refY="4.2" orient="auto"><path d="M0,0 L10,4.2 L0,8.4 z" fill="#dc2626"/></marker>
<marker id="a-6d28d9" markerWidth="11" markerHeight="9" refX="8.5" refY="4.2" orient="auto"><path d="M0,0 L10,4.2 L0,8.4 z" fill="#6d28d9"/></marker>
<filter id="sh" x="-5%" y="-6%" width="110%" height="124%"><feDropShadow dx="0" dy="1" stdDeviation="1.1" flood-color="#000" flood-opacity="0.13"/></filter></defs>
<rect width="1340" height="440" fill="#ffffff"/>
<rect x="40" y="70" width="180" height="52" rx="9" fill="#faf5ff" stroke="#9333ea" stroke-width="1.7" filter="url(#sh)"/>
<text x="130.0" y="100.0" text-anchor="middle" font-size="13" font-weight="bold" fill="#0f172a">⑰ 提目标</text>
<rect x="250" y="70" width="180" height="52" rx="9" fill="#e8f1ff" stroke="#2563eb" stroke-width="1.7" filter="url(#sh)"/>
<text x="340.0" y="100.0" text-anchor="middle" font-size="13" font-weight="bold" fill="#0f172a">15-1 校验</text>
<rect x="460" y="70" width="180" height="52" rx="9" fill="#e8f1ff" stroke="#2563eb" stroke-width="1.7" filter="url(#sh)"/>
<text x="550.0" y="100.0" text-anchor="middle" font-size="13" font-weight="bold" fill="#0f172a">15-2 入库</text>
<rect x="670" y="70" width="180" height="52" rx="9" fill="#e8f1ff" stroke="#2563eb" stroke-width="1.7" filter="url(#sh)"/>
<text x="760.0" y="100.0" text-anchor="middle" font-size="13" font-weight="bold" fill="#0f172a">15-5 转VLMtask</text>
<rect x="880" y="70" width="180" height="52" rx="9" fill="#e8f1ff" stroke="#2563eb" stroke-width="1.7" filter="url(#sh)"/>
<text x="970.0" y="100.0" text-anchor="middle" font-size="13" font-weight="bold" fill="#0f172a">15-9 分类</text>
<rect x="1090" y="70" width="180" height="52" rx="9" fill="#e8f1ff" stroke="#2563eb" stroke-width="1.7" filter="url(#sh)"/>
<text x="1180.0" y="100.0" text-anchor="middle" font-size="13" font-weight="bold" fill="#0f172a">15-12 下发</text>
<path d="M 220,96.0 L 250,96.0" fill="none" stroke="#7c3aed" stroke-width="1.9" marker-end="url(#a-7c3aed)"/>
<path d="M 430,96.0 L 460,96.0" fill="none" stroke="#7c3aed" stroke-width="1.9" marker-end="url(#a-7c3aed)"/>
<path d="M 640,96.0 L 670,96.0" fill="none" stroke="#7c3aed" stroke-width="1.9" marker-end="url(#a-7c3aed)"/>
<path d="M 850,96.0 L 880,96.0" fill="none" stroke="#7c3aed" stroke-width="1.9" marker-end="url(#a-7c3aed)"/>
<path d="M 1060,96.0 L 1090,96.0" fill="none" stroke="#7c3aed" stroke-width="1.9" marker-end="url(#a-7c3aed)"/>
<rect x="40" y="250" width="166" height="52" rx="9" fill="#fff3e6" stroke="#ea580c" stroke-width="1.7" filter="url(#sh)"/>
<text x="123.0" y="280.0" text-anchor="middle" font-size="13" font-weight="bold" fill="#0f172a">24-1 接收</text>
<rect x="226" y="250" width="166" height="52" rx="9" fill="#fff3e6" stroke="#ea580c" stroke-width="1.7" filter="url(#sh)"/>
<text x="309.0" y="280.0" text-anchor="middle" font-size="13" font-weight="bold" fill="#0f172a">24-7 仲裁</text>
<rect x="412" y="250" width="166" height="52" rx="9" fill="#fff3e6" stroke="#ea580c" stroke-width="1.7" filter="url(#sh)"/>
<text x="495.0" y="280.0" text-anchor="middle" font-size="13" font-weight="bold" fill="#0f172a">24-8 调度</text>
<rect x="598" y="250" width="166" height="52" rx="9" fill="#dcfce7" stroke="#16a34a" stroke-width="1.7" filter="url(#sh)"/>
<text x="681.0" y="280.0" text-anchor="middle" font-size="13" font-weight="bold" fill="#0f172a">㉕ 执行VQA</text>
<rect x="784" y="250" width="166" height="52" rx="9" fill="#fff3e6" stroke="#ea580c" stroke-width="1.7" filter="url(#sh)"/>
<text x="867.0" y="280.0" text-anchor="middle" font-size="13" font-weight="bold" fill="#0f172a">24-9 五态</text>
<rect x="970" y="250" width="166" height="52" rx="9" fill="#fff3e6" stroke="#ea580c" stroke-width="1.7" filter="url(#sh)"/>
<text x="1053.0" y="280.0" text-anchor="middle" font-size="13" font-weight="bold" fill="#0f172a">24-10 阈值穿越</text>
<rect x="1156" y="250" width="166" height="52" rx="9" fill="#dcfce7" stroke="#16a34a" stroke-width="1.7" filter="url(#sh)"/>
<text x="1239.0" y="280.0" text-anchor="middle" font-size="13" font-weight="bold" fill="#0f172a">24-11 回写Context</text>
<path d="M 206,276.0 L 226,276.0" fill="none" stroke="#7c3aed" stroke-width="1.9" marker-end="url(#a-7c3aed)"/>
<path d="M 392,276.0 L 412,276.0" fill="none" stroke="#7c3aed" stroke-width="1.9" marker-end="url(#a-7c3aed)"/>
<path d="M 578,276.0 L 598,276.0" fill="none" stroke="#7c3aed" stroke-width="1.9" marker-end="url(#a-7c3aed)"/>
<path d="M 764,276.0 L 784,276.0" fill="none" stroke="#7c3aed" stroke-width="1.9" marker-end="url(#a-7c3aed)"/>
<path d="M 950,276.0 L 970,276.0" fill="none" stroke="#7c3aed" stroke-width="1.9" marker-end="url(#a-7c3aed)"/>
<path d="M 1136,276.0 L 1156,276.0" fill="none" stroke="#7c3aed" stroke-width="1.9" marker-end="url(#a-7c3aed)"/>
<path d="M 1180.0,122 L 1090,160 L 123,210 L 123.0,250" fill="none" stroke="#7c3aed" stroke-width="3.0" marker-end="url(#a-7c3aed)"/>
<rect x="572.6" y="175" width="54.8" height="19" rx="4" fill="#fff" opacity="0.97" stroke="#7c3aed" stroke-width="0.6"/>
<text x="600" y="188.5" text-anchor="middle" font-size="10.5" font-weight="bold" fill="#7c3aed">下发到端</text>
<rect x="520" y="360" width="300" height="52" rx="9" fill="#ecfeff" stroke="#0891b2" stroke-width="1.7" filter="url(#sh)"/>
<text x="670.0" y="380" text-anchor="middle" font-size="13" font-weight="bold" fill="#0f172a">⑰ Advisor / ⑲ Director 从 Context 消费</text>
<text x="670.0" y="398" text-anchor="middle" font-size="9.5" fill="#475569">端侧不直接通知 Advisor</text>
<path d="M 1239.0,302 L 1175,330 L 830,386 L 820,386.0" fill="none" stroke="#0891b2" stroke-width="1.9" marker-end="url(#a-0891b2)"/>
</svg>