<svg xmlns="http://www.w3.org/2000/svg" viewBox="0 0 1140 430" font-family="-apple-system,PingFang SC,Microsoft YaHei,sans-serif">
<defs>
<marker id="a-64748b" markerWidth="11" markerHeight="9" refX="8.5" refY="4.2" orient="auto"><path d="M0,0 L10,4.2 L0,8.4 z" fill="#64748b"/></marker>
<marker id="a-2563eb" markerWidth="11" markerHeight="9" refX="8.5" refY="4.2" orient="auto"><path d="M0,0 L10,4.2 L0,8.4 z" fill="#2563eb"/></marker>
<marker id="a-16a34a" markerWidth="11" markerHeight="9" refX="8.5" refY="4.2" orient="auto"><path d="M0,0 L10,4.2 L0,8.4 z" fill="#16a34a"/></marker>
<marker id="a-ea580c" markerWidth="11" markerHeight="9" refX="8.5" refY="4.2" orient="auto"><path d="M0,0 L10,4.2 L0,8.4 z" fill="#ea580c"/></marker>
<marker id="a-7c3aed" markerWidth="11" markerHeight="9" refX="8.5" refY="4.2" orient="auto"><path d="M0,0 L10,4.2 L0,8.4 z" fill="#7c3aed"/></marker>
<marker id="a-a16207" markerWidth="11" markerHeight="9" refX="8.5" refY="4.2" orient="auto"><path d="M0,0 L10,4.2 L0,8.4 z" fill="#a16207"/></marker>
<marker id="a-0891b2" markerWidth="11" markerHeight="9" refX="8.5" refY="4.2" orient="auto"><path d="M0,0 L10,4.2 L0,8.4 z" fill="#0891b2"/></marker>
<marker id="a-dc2626" markerWidth="11" markerHeight="9" refX="8.5" refY="4.2" orient="auto"><path d="M0,0 L10,4.2 L0,8.4 z" fill="#dc2626"/></marker>
<marker id="a-6d28d9" markerWidth="11" markerHeight="9" refX="8.5" refY="4.2" orient="auto"><path d="M0,0 L10,4.2 L0,8.4 z" fill="#6d28d9"/></marker>
<filter id="sh" x="-5%" y="-6%" width="110%" height="124%"><feDropShadow dx="0" dy="1" stdDeviation="1.1" flood-color="#000" flood-opacity="0.13"/></filter></defs>
<rect width="1140" height="430" fill="#ffffff"/>
<rect x="40" y="70" width="220" height="60" rx="9" fill="#f3e8ff" stroke="#7c3aed" stroke-width="1.7" filter="url(#sh)"/>
<text x="150.0" y="90" text-anchor="middle" font-size="13" font-weight="bold" fill="#0f172a">⑯ 静态Advisor</text>
<text x="150.0" y="108" text-anchor="middle" font-size="10" fill="#475569">预置:舒适/出行/情感/内容</text>
<rect x="40" y="165" width="220" height="76" rx="9" fill="#f3e8ff" stroke="#7c3aed" stroke-width="1.7" filter="url(#sh)"/>
<text x="150.0" y="185" text-anchor="middle" font-size="13" font-weight="bold" fill="#0f172a">⑰ 动态Advisor</text>
<text x="150.0" y="203" text-anchor="middle" font-size="10" fill="#475569">一目标一监控</text>
<text x="150.0" y="219" text-anchor="middle" font-size="10" fill="#475569">订阅㉕ VLM 结果</text>
<rect x="40" y="290" width="220" height="54" rx="9" fill="#f3e8ff" stroke="#7c3aed" stroke-width="1.7" filter="url(#sh)"/>
<text x="150.0" y="310" text-anchor="middle" font-size="13" font-weight="bold" fill="#0f172a">⑱ Goal List</text>
<text x="150.0" y="328" text-anchor="middle" font-size="10" fill="#475569">目标队列·防打架</text>
<rect x="340" y="140" width="210" height="96" rx="9" fill="#ede9fe" stroke="#6d28d9" stroke-width="1.7" filter="url(#sh)"/>
<text x="445.0" y="160" text-anchor="middle" font-size="13" font-weight="bold" fill="#0f172a">⑲ Director 汇入</text>
<text x="445.0" y="178" text-anchor="middle" font-size="10" fill="#475569">统一收口 6 路</text>
<rect x="600" y="150" width="200" height="76" rx="9" fill="#ede9fe" stroke="#6d28d9" stroke-width="1.7" filter="url(#sh)"/>
<text x="700.0" y="170" text-anchor="middle" font-size="13" font-weight="bold" fill="#0f172a">⑳ Director 推理</text>
<text x="700.0" y="188" text-anchor="middle" font-size="10" fill="#475569">说不说/说什么/做什么</text>
<rect x="340" y="300" width="210" height="58" rx="9" fill="#ecfeff" stroke="#0891b2" stroke-width="1.7" filter="url(#sh)"/>
<text x="445.0" y="320" text-anchor="middle" font-size="13" font-weight="bold" fill="#0f172a">㉑ Context</text>
<text x="445.0" y="338" text-anchor="middle" font-size="10" fill="#475569">统一事实源</text>
<rect x="840" y="290" width="260" height="68" rx="9" fill="#fff3e6" stroke="#ea580c" stroke-width="1.7" filter="url(#sh)"/>
<text x="970.0" y="310" text-anchor="middle" font-size="13" font-weight="bold" fill="#0f172a">㉔ 端侧结果</text>
<text x="970.0" y="328" text-anchor="middle" font-size="9.5" fill="#475569">写信号库 → 上报 ㉑Context</text>
<text x="970.0" y="344" text-anchor="middle" font-size="9.5" fill="#475569">红线:不直接通知 Advisor</text>
<path d="M 260,100.0 L 340,188.0" fill="none" stroke="#7c3aed" stroke-width="1.9" marker-end="url(#a-7c3aed)"/>
<rect x="283.8" y="134.0" width="32.4" height="19" rx="4" fill="#fff" opacity="0.97" stroke="#7c3aed" stroke-width="0.6"/>
<text x="300.0" y="147.5" text-anchor="middle" font-size="10.5" font-weight="bold" fill="#7c3aed">建议</text>
<path d="M 260,203.0 L 340,188.0" fill="none" stroke="#7c3aed" stroke-width="1.9" marker-end="url(#a-7c3aed)"/>
<rect x="283.8" y="185.5" width="32.4" height="19" rx="4" fill="#fff" opacity="0.97" stroke="#7c3aed" stroke-width="0.6"/>
<text x="300.0" y="199.0" text-anchor="middle" font-size="10.5" font-weight="bold" fill="#7c3aed">建议</text>
<path d="M 260,317.0 L 300,317 L 300,210 L 340,188.0" fill="none" stroke="#7c3aed" stroke-width="1.9" marker-end="url(#a-7c3aed)"/>
<rect x="283.8" y="242.5" width="32.4" height="19" rx="4" fill="#fff" opacity="0.97" stroke="#7c3aed" stroke-width="0.6"/>
<text x="300.0" y="256.0" text-anchor="middle" font-size="10.5" font-weight="bold" fill="#7c3aed">目标</text>
<path d="M 445.0,300 L 445.0,236" fill="none" stroke="#0891b2" stroke-width="1.9" marker-end="url(#a-0891b2)"/>
<rect x="428.8" y="258.0" width="32.4" height="19" rx="4" fill="#fff" opacity="0.97" stroke="#0891b2" stroke-width="0.6"/>
<text x="445.0" y="271.5" text-anchor="middle" font-size="10.5" font-weight="bold" fill="#0891b2">注入</text>
<path d="M 550,188.0 L 600,188.0" fill="none" stroke="#6d28d9" stroke-width="1.9" marker-end="url(#a-6d28d9)"/>
<rect x="558.8" y="178.0" width="32.4" height="19" rx="4" fill="#fff" opacity="0.97" stroke="#6d28d9" stroke-width="0.6"/>
<text x="575.0" y="191.5" text-anchor="middle" font-size="10.5" font-weight="bold" fill="#6d28d9">推理</text>
<path d="M 840,324.0 L 560,324 L 550,329.0" fill="none" stroke="#dc2626" stroke-width="1.9" marker-end="url(#a-dc2626)"/>
<rect x="645.2" y="316.5" width="99.6" height="19" rx="4" fill="#fff" opacity="0.97" stroke="#dc2626" stroke-width="0.6"/>
<text x="695.0" y="330.0" text-anchor="middle" font-size="10.5" font-weight="bold" fill="#dc2626">经Context</text>
</svg>