<svg xmlns="http://www.w3.org/2000/svg" viewBox="0 0 2420 1800" font-family="-apple-system,PingFang SC,Microsoft YaHei,sans-serif">
<defs>
<marker id="ar-2563eb" markerWidth="11" markerHeight="8" refX="9" refY="4" orient="auto"><path d="M0,0 L10,4 L0,8 z" fill="#2563eb"/></marker>
<marker id="ar-ea580c" markerWidth="11" markerHeight="8" refX="9" refY="4" orient="auto"><path d="M0,0 L10,4 L0,8 z" fill="#ea580c"/></marker>
<marker id="ar-059669" markerWidth="11" markerHeight="8" refX="9" refY="4" orient="auto"><path d="M0,0 L10,4 L0,8 z" fill="#059669"/></marker>
<marker id="ar-7c3aed" markerWidth="11" markerHeight="8" refX="9" refY="4" orient="auto"><path d="M0,0 L10,4 L0,8 z" fill="#7c3aed"/></marker>
<marker id="ar-6b7280" markerWidth="11" markerHeight="8" refX="9" refY="4" orient="auto"><path d="M0,0 L10,4 L0,8 z" fill="#6b7280"/></marker>
<marker id="ar-dc2626" markerWidth="11" markerHeight="8" refX="9" refY="4" orient="auto"><path d="M0,0 L10,4 L0,8 z" fill="#dc2626"/></marker>
<marker id="ar-0891b2" markerWidth="11" markerHeight="8" refX="9" refY="4" orient="auto"><path d="M0,0 L10,4 L0,8 z" fill="#0891b2"/></marker>
<marker id="ar-d97706" markerWidth="11" markerHeight="8" refX="9" refY="4" orient="auto"><path d="M0,0 L10,4 L0,8 z" fill="#d97706"/></marker>
<filter id="sh" x="-4%" y="-4%" width="108%" height="116%"><feDropShadow dx="0" dy="1.1" stdDeviation="1.2" flood-color="#000" flood-opacity="0.12"/></filter>
</defs>
<rect width="2420" height="1800" fill="#ffffff"/>
<text x="1210.0" y="34" text-anchor="middle" font-size="24" font-weight="bold" fill="#0f172a">舱驾融合 Agent · 端云协同触发器 评审架构大图（26节点 · 严格复刻评审大图）</text>
<text x="1210.0" y="58" text-anchor="middle" font-size="12.5" fill="#475569">核心原则：触发器只负责"什么时候唤醒系统"，复杂决策统一回 Director 二次推理；Advisor 只输出建议、不直接控车　·　红线：默认 need_second_reasoning=true</text>
<rect x="14" y="74" width="2392" height="600" rx="12" fill="#f3f8ff" stroke="#cfe0fb"/>
<text x="26" y="94" font-size="14" font-weight="bold" fill="#1d4ed8">☁ 云端</text>
<rect x="14" y="690" width="2392" height="378" rx="12" fill="#f1fdf5" stroke="#c3f0d4"/>
<text x="26" y="710" font-size="14" font-weight="bold" fill="#15803d">▣ 端侧（车机 · 弱网可用）</text>
<line x1="14" y1="682" x2="2406" y2="682" stroke="#94a3b8" stroke-width="1.6" stroke-dasharray="9,6"/>
<rect x="28" y="100" width="300" height="560" rx="10" fill="none" stroke="#2563eb" stroke-width="1.3" stroke-dasharray="6,4"/>
<rect x="28" y="100" width="300" height="24" rx="8" fill="#2563eb"/><rect x="28" y="112" width="300" height="12" fill="#2563eb"/>
<text x="40" y="117" font-size="13" font-weight="bold" fill="#fff">A · 入口与意图分流</text>
<rect x="340" y="100" width="300" height="560" rx="10" fill="none" stroke="#2563eb" stroke-width="1.3" stroke-dasharray="6,4"/>
<rect x="340" y="100" width="300" height="24" rx="8" fill="#2563eb"/><rect x="340" y="112" width="300" height="12" fill="#2563eb"/>
<text x="352" y="117" font-size="13" font-weight="bold" fill="#fff">B · 云端任务编排与注册</text>
<rect x="652" y="100" width="400" height="560" rx="10" fill="none" stroke="#ea580c" stroke-width="1.3" stroke-dasharray="6,4"/>
<rect x="652" y="100" width="400" height="24" rx="8" fill="#ea580c"/><rect x="652" y="112" width="400" height="12" fill="#ea580c"/>
<text x="664" y="117" font-size="13" font-weight="bold" fill="#fff">C · 云端触发器核心 ★</text>
<rect x="1064" y="100" width="372" height="560" rx="10" fill="none" stroke="#4338ca" stroke-width="1.3" stroke-dasharray="6,4"/>
<rect x="1064" y="100" width="372" height="24" rx="8" fill="#4338ca"/><rect x="1064" y="112" width="372" height="12" fill="#4338ca"/>
<text x="1076" y="117" font-size="13" font-weight="bold" fill="#fff">D · Advisor / Director / 执行</text>
<rect x="1448" y="100" width="344" height="560" rx="10" fill="none" stroke="#7c3aed" stroke-width="1.3" stroke-dasharray="6,4"/>
<rect x="1448" y="100" width="344" height="24" rx="8" fill="#7c3aed"/><rect x="1448" y="112" width="344" height="12" fill="#7c3aed"/>
<text x="1460" y="117" font-size="13" font-weight="bold" fill="#fff">信号库 / Context / 状态闭环</text>
<rect x="1804" y="110" width="592" height="250" rx="10" fill="#fffbeb" stroke="#f59e0b" stroke-width="1.4"/>
<text x="1822" y="134" font-size="13.5" font-weight="bold" fill="#b45309">触发器红线（评审必读）</text>
<text x="1822" y="160" font-size="11" fill="#334155">• 只负责条件命中与事件唤醒，不替代 Director 做复杂决策</text>
<text x="1822" y="182" font-size="11" fill="#334155">• 默认 need_second_reasoning = true</text>
<text x="1822" y="204" font-size="11" fill="#334155">• Advisor 只出 advice，不直接面向用户、不直接控车</text>
<text x="1822" y="226" font-size="11" fill="#334155">• timeout 绝不写"无异常"/伪结果</text>
<text x="1822" y="248" font-size="11" fill="#334155">• 触发器只读信号库，不读裸信号源</text>
<text x="1822" y="270" font-size="11" fill="#334155">• 复杂语义仲裁在云端；端侧只做确定性判定+履约</text>
<rect x="1804" y="372" width="592" height="288" rx="10" fill="#ffffff" stroke="#cbd5e1"/>
<text x="1822" y="396" font-size="13.5" font-weight="bold" fill="#0f172a">连线 L1–L15</text>
<text x="1822" y="420" font-size="11" fill="#334155">L1 输入</text>
<text x="1822" y="448" font-size="11" fill="#334155">L2 意图分流</text>
<text x="1822" y="476" font-size="11" fill="#334155">L3 条件/定时/持续</text>
<text x="1822" y="504" font-size="11" fill="#334155">L4 查能力</text>
<text x="1822" y="532" font-size="11" fill="#334155">L5 生成规则</text>
<text x="1822" y="560" font-size="11" fill="#334155">L6 注册场景</text>
<text x="1822" y="588" font-size="11" fill="#334155">L7 事件消费</text>
<text x="1822" y="616" font-size="11" fill="#334155">L8 触发事件</text>
<text x="2122" y="420" font-size="11" fill="#334155">L9 汇入</text>
<text x="2122" y="448" font-size="11" fill="#334155">L10 action</text>
<text x="2122" y="476" font-size="11" fill="#334155">L11 端云同步</text>
<text x="2122" y="504" font-size="11" fill="#334155">L12 下发端侧规则</text>
<text x="2122" y="532" font-size="11" fill="#334155">L13 视觉调度</text>
<text x="2122" y="560" font-size="11" fill="#334155">L14 回写/恢复同步</text>
<text x="2122" y="588" font-size="11" fill="#334155">L15 Context 注入</text>
<rect x="44" y="132" width="272" height="55" rx="7" fill="#fff" stroke="#2563eb" stroke-width="1.3" filter="url(#sh)"/>
<circle cx="59" cy="148" r="11" fill="#2563eb"/>
<text x="59" y="152" text-anchor="middle" font-size="10.5" font-weight="bold" fill="#fff">1</text>
<text x="76" y="152" font-size="12.5" font-weight="bold" fill="#0f172a">用户输入</text>
<text x="55" y="171" font-size="10" fill="#334155">query · speaker · position · timestamp</text>
<rect x="44" y="196" width="272" height="55" rx="7" fill="#fff" stroke="#2563eb" stroke-width="1.3" filter="url(#sh)"/>
<circle cx="59" cy="212" r="11" fill="#2563eb"/>
<text x="59" y="216" text-anchor="middle" font-size="10.5" font-weight="bold" fill="#fff">2</text>
<text x="76" y="216" font-size="12.5" font-weight="bold" fill="#0f172a">ASR / 文本</text>
<text x="55" y="235" font-size="10" fill="#334155">语音转文本，保留说话人和座位</text>
<rect x="44" y="256" width="272" height="55" rx="7" fill="#fff7ed" stroke="#ea580c" stroke-width="1.3" filter="url(#sh)"/>
<circle cx="59" cy="272" r="11" fill="#ea580c"/>
<text x="59" y="276" text-anchor="middle" font-size="10.5" font-weight="bold" fill="#fff">3</text>
<text x="76" y="276" font-size="12.5" font-weight="bold" fill="#0f172a">拒识 / 仲裁</text>
<text x="55" y="295" font-size="10" fill="#334155">简单 / 复杂 / 条件 / 持续</text>
<rect x="44" y="322" width="272" height="70" rx="7" fill="#fef2f2" stroke="#dc2626" stroke-width="1.3" filter="url(#sh)"/>
<circle cx="59" cy="338" r="11" fill="#dc2626"/>
<text x="59" y="342" text-anchor="middle" font-size="10.5" font-weight="bold" fill="#fff">4</text>
<text x="76" y="342" font-size="12.5" font-weight="bold" fill="#0f172a">简单快链路</text>
<text x="55" y="361" font-size="10" fill="#334155">明确车控·白名单·高频低时延</text>
<text x="55" y="376" font-size="10" fill="#334155">不进入触发器</text>
<rect x="44" y="408" width="272" height="55" rx="7" fill="#eef2ff" stroke="#4338ca" stroke-width="1.3" filter="url(#sh)"/>
<circle cx="59" cy="424" r="11" fill="#4338ca"/>
<text x="59" y="428" text-anchor="middle" font-size="10.5" font-weight="bold" fill="#fff">5</text>
<text x="76" y="428" font-size="12.5" font-weight="bold" fill="#0f172a">Director</text>
<text x="55" y="447" font-size="10" fill="#334155">复杂对话·多步任务·二次推理入口</text>
<rect x="44" y="474" width="272" height="70" rx="7" fill="#fff" stroke="#2563eb" stroke-width="1.3" filter="url(#sh)"/>
<circle cx="59" cy="490" r="11" fill="#2563eb"/>
<text x="59" y="494" text-anchor="middle" font-size="10.5" font-weight="bold" fill="#fff">6</text>
<text x="76" y="494" font-size="12.5" font-weight="bold" fill="#0f172a">任务识别</text>
<text x="55" y="513" font-size="10" fill="#334155">条件任务 / 定时任务</text>
<text x="55" y="528" font-size="10" fill="#334155">长时 / GUI / VLM</text>
<rect x="356" y="132" width="272" height="55" rx="7" fill="#fff" stroke="#2563eb" stroke-width="1.3" filter="url(#sh)"/>
<circle cx="371" cy="148" r="11" fill="#2563eb"/>
<text x="371" y="152" text-anchor="middle" font-size="10.5" font-weight="bold" fill="#fff">7</text>
<text x="388" y="152" font-size="12.5" font-weight="bold" fill="#0f172a">能力查询</text>
<text x="367" y="171" font-size="10" fill="#334155">信号/事件 · 操作符/DSL · VLM/POI</text>
<rect x="356" y="196" width="272" height="70" rx="7" fill="#fff" stroke="#2563eb" stroke-width="1.3" filter="url(#sh)"/>
<circle cx="371" cy="212" r="11" fill="#2563eb"/>
<text x="371" y="216" text-anchor="middle" font-size="10.5" font-weight="bold" fill="#fff">8</text>
<text x="388" y="216" font-size="12.5" font-weight="bold" fill="#0f172a">可行性校验</text>
<text x="367" y="235" font-size="10" fill="#334155">条件能否感知 · 动作能否执行</text>
<text x="367" y="250" font-size="10" fill="#334155">条件动作是否冲突 · 是否超上限</text>
<rect x="356" y="278" width="272" height="70" rx="7" fill="#fff" stroke="#2563eb" stroke-width="1.3" filter="url(#sh)"/>
<circle cx="371" cy="294" r="11" fill="#2563eb"/>
<text x="371" y="298" text-anchor="middle" font-size="10.5" font-weight="bold" fill="#fff">9</text>
<text x="388" y="298" font-size="12.5" font-weight="bold" fill="#0f172a">DSL / 事件库</text>
<text x="367" y="317" font-size="10" fill="#334155">优先选已有事件 · 生成动态脚本</text>
<text x="367" y="332" font-size="10" fill="#334155">失败返回原因</text>
<rect x="356" y="360" width="272" height="85" rx="7" fill="#fff" stroke="#2563eb" stroke-width="1.3" filter="url(#sh)"/>
<circle cx="371" cy="376" r="11" fill="#2563eb"/>
<text x="371" y="380" text-anchor="middle" font-size="10.5" font-weight="bold" fill="#fff">10</text>
<text x="388" y="380" font-size="12.5" font-weight="bold" fill="#0f172a">任务/场景注册服务</text>
<text x="367" y="399" font-size="10" fill="#334155">注册·更新·取消·查询</text>
<text x="367" y="414" font-size="10" fill="#334155">创建任务中心卡片</text>
<text x="367" y="429" font-size="10" fill="#334155">输出条件/执行字段·失败原因</text>
<rect x="666" y="132" width="372" height="192" rx="7" fill="#fff7ed" stroke="#ea580c" stroke-width="2.7" filter="url(#sh)"/>
<circle cx="681" cy="148" r="11" fill="#ea580c"/>
<text x="681" y="152" text-anchor="middle" font-size="10.5" font-weight="bold" fill="#fff">11</text>
<text x="698" y="152" font-size="12.5" font-weight="bold" fill="#0f172a">云端触发器 / 规则执行引擎</text>
<text x="677" y="170" font-size="9.5" font-style="italic" fill="#64748b">承接动态任务和系统预设场景</text>
<text x="677" y="183" font-size="9.5" font-style="italic" fill="#64748b">只做确定性规则执行，不做开放式语义决策</text>
<text x="677" y="201" font-size="10" fill="#334155">11.1 场景库：静态规则/动态任务/系统预设/灰度</text>
<text x="677" y="216" font-size="10" fill="#334155">11.2 规则扫描：信号更新触发/周期扫描/状态过滤</text>
<text x="677" y="231" font-size="10" fill="#334155">11.3 条件判定：AND/OR·group·range·变更为·持续时长</text>
<text x="677" y="246" font-size="10" fill="#334155">11.4 去抖冷却：debounce·cooldown·max_execution·expire</text>
<text x="677" y="261" font-size="10" fill="#334155">11.5 优先级仲裁：P0-P4·重复抑制·互斥组·冲突检测</text>
<text x="677" y="276" font-size="10" fill="#334155">11.6 端云分类：云端处理/下发端侧/VLM调度/本地兜底</text>
<text x="677" y="291" font-size="10" fill="#334155">11.7 标准事件：task_id·原始任务·快照·是否二次推理</text>
<text x="677" y="306" font-size="10" fill="#334155">11.8 Callback Router：Director/动态Advisor/Context/任务中心/端</text>
<rect x="1078" y="132" width="344" height="102" rx="7" fill="#eef2ff" stroke="#4338ca" stroke-width="1.3" filter="url(#sh)"/>
<circle cx="1093" cy="148" r="11" fill="#4338ca"/>
<text x="1093" y="152" text-anchor="middle" font-size="10.5" font-weight="bold" fill="#fff">12</text>
<text x="1110" y="152" font-size="12.5" font-weight="bold" fill="#0f172a">Advisor 层</text>
<text x="1089" y="170" font-size="9.5" font-style="italic" fill="#64748b">消费 Context/事件→生成 advice</text>
<text x="1089" y="183" font-size="9.5" font-style="italic" fill="#64748b">不直接面向用户，不直接控车</text>
<text x="1089" y="201" font-size="10" fill="#334155">12.1 静态：舒适/出行/情感/内容(系统预设主动服务)</text>
<text x="1089" y="216" font-size="10" fill="#334155">12.2 动态：一目标一实例(条件/定时/VLM/GUI闭环)</text>
<rect x="1078" y="256" width="344" height="55" rx="7" fill="#eef2ff" stroke="#4338ca" stroke-width="1.3" filter="url(#sh)"/>
<circle cx="1093" cy="272" r="11" fill="#4338ca"/>
<text x="1093" y="276" text-anchor="middle" font-size="10.5" font-weight="bold" fill="#fff">13</text>
<text x="1110" y="276" font-size="12.5" font-weight="bold" fill="#0f172a">Goal List</text>
<text x="1089" y="295" font-size="10" fill="#334155">Director 建删目标 · Advisor 更新进展</text>
<rect x="1078" y="318" width="344" height="70" rx="7" fill="#eef2ff" stroke="#4338ca" stroke-width="1.3" filter="url(#sh)"/>
<circle cx="1093" cy="334" r="11" fill="#4338ca"/>
<text x="1093" y="338" text-anchor="middle" font-size="10.5" font-weight="bold" fill="#fff">14</text>
<text x="1110" y="338" font-size="12.5" font-weight="bold" fill="#0f172a">Director 汇入</text>
<text x="1089" y="357" font-size="10" fill="#334155">query·advice·trigger_event</text>
<text x="1089" y="372" font-size="10" fill="#334155">tool_feedback·Context</text>
<rect x="1078" y="400" width="344" height="70" rx="7" fill="#e0e7ff" stroke="#4338ca" stroke-width="2.7" filter="url(#sh)"/>
<circle cx="1093" cy="416" r="11" fill="#4338ca"/>
<text x="1093" y="420" text-anchor="middle" font-size="10.5" font-weight="bold" fill="#fff">15</text>
<text x="1110" y="420" font-size="12.5" font-weight="bold" fill="#0f172a">二次推理</text>
<text x="1089" y="439" font-size="10" fill="#334155">talk_or_not · talk_content(情绪/emoji)</text>
<text x="1089" y="454" font-size="10" fill="#334155">action_list</text>
<rect x="1078" y="482" width="344" height="70" rx="7" fill="#eef2ff" stroke="#4338ca" stroke-width="1.3" filter="url(#sh)"/>
<circle cx="1093" cy="498" r="11" fill="#4338ca"/>
<text x="1093" y="502" text-anchor="middle" font-size="10.5" font-weight="bold" fill="#fff">16</text>
<text x="1110" y="502" font-size="12.5" font-weight="bold" fill="#0f172a">工具 / 执行</text>
<text x="1089" y="521" font-size="10" fill="#334155">车控·导航·搜索·音乐</text>
<text x="1089" y="536" font-size="10" fill="#334155">HMI·TTS·AI PUSH</text>
<rect x="1462" y="132" width="316" height="70" rx="7" fill="#faf5ff" stroke="#7c3aed" stroke-width="1.3" filter="url(#sh)"/>
<circle cx="1477" cy="148" r="11" fill="#7c3aed"/>
<text x="1477" y="152" text-anchor="middle" font-size="10.5" font-weight="bold" fill="#fff">23</text>
<text x="1494" y="152" font-size="12.5" font-weight="bold" fill="#0f172a">云端信号库</text>
<text x="1473" y="171" font-size="10" fill="#334155">端云同步·云信号·导航·POI</text>
<text x="1473" y="186" font-size="10" fill="#334155">任务状态·VLM 回写结果</text>
<rect x="1462" y="214" width="316" height="70" rx="7" fill="#ecfeff" stroke="#0891b2" stroke-width="1.3" filter="url(#sh)"/>
<circle cx="1477" cy="230" r="11" fill="#0891b2"/>
<text x="1477" y="234" text-anchor="middle" font-size="10.5" font-weight="bold" fill="#fff">24</text>
<text x="1494" y="234" font-size="12.5" font-weight="bold" fill="#0f172a">Context / Event Log</text>
<text x="1473" y="253" font-size="10" fill="#334155">情景·端状态·记忆</text>
<text x="1473" y="268" font-size="10" fill="#334155">触发事件·VLM结果·执行反馈</text>
<rect x="1462" y="296" width="316" height="85" rx="7" fill="#faf5ff" stroke="#7c3aed" stroke-width="1.3" filter="url(#sh)"/>
<circle cx="1477" cy="312" r="11" fill="#7c3aed"/>
<text x="1477" y="316" text-anchor="middle" font-size="10.5" font-weight="bold" fill="#fff">25</text>
<text x="1494" y="316" font-size="12.5" font-weight="bold" fill="#0f172a">任务状态机</text>
<text x="1473" y="335" font-size="10" fill="#334155">创建中/成功/失败</text>
<text x="1473" y="350" font-size="10" fill="#334155">生效/触发/执行中</text>
<text x="1473" y="365" font-size="10" fill="#334155">完成/取消/过期</text>
<rect x="1462" y="396" width="316" height="85" rx="7" fill="#fef2f2" stroke="#dc2626" stroke-width="1.3" filter="url(#sh)"/>
<circle cx="1477" cy="412" r="11" fill="#dc2626"/>
<text x="1477" y="416" text-anchor="middle" font-size="10.5" font-weight="bold" fill="#fff">26</text>
<text x="1494" y="416" font-size="12.5" font-weight="bold" fill="#0f172a">异常降级</text>
<text x="1473" y="435" font-size="10" fill="#334155">注册失败/超上限</text>
<text x="1473" y="450" font-size="10" fill="#334155">VLM timeout 不写伪结果</text>
<text x="1473" y="465" font-size="10" fill="#334155">callback 失败重试</text>
<rect x="28" y="698" width="400" height="360" rx="10" fill="none" stroke="#16a34a" stroke-width="1.3" stroke-dasharray="6,4"/>
<rect x="28" y="698" width="400" height="24" rx="8" fill="#16a34a"/><rect x="28" y="710" width="400" height="12" fill="#16a34a"/>
<text x="40" y="715" font-size="13" font-weight="bold" fill="#fff">端侧 与 OEM/CDC 能力</text>
<rect x="440" y="698" width="640" height="360" rx="10" fill="none" stroke="#ea580c" stroke-width="1.3" stroke-dasharray="6,4"/>
<rect x="440" y="698" width="640" height="24" rx="8" fill="#ea580c"/><rect x="440" y="710" width="640" height="12" fill="#ea580c"/>
<text x="452" y="715" font-size="13" font-weight="bold" fill="#fff">端侧触发器 与 VLM 调度 ★</text>
<rect x="44" y="728" width="372" height="70" rx="7" fill="#fff" stroke="#16a34a" stroke-width="1.3" filter="url(#sh)"/>
<circle cx="59" cy="744" r="11" fill="#16a34a"/>
<text x="59" y="748" text-anchor="middle" font-size="10.5" font-weight="bold" fill="#fff">17</text>
<text x="76" y="748" font-size="12.5" font-weight="bold" fill="#0f172a">OEM / CDC / AI Box</text>
<text x="55" y="767" font-size="10" fill="#334155">原始车端信号·高阶CDC事件</text>
<text x="55" y="782" font-size="10" fill="#334155">图片URL·车控执行能力</text>
<rect x="44" y="810" width="372" height="70" rx="7" fill="#fff" stroke="#16a34a" stroke-width="1.3" filter="url(#sh)"/>
<circle cx="59" cy="826" r="11" fill="#16a34a"/>
<text x="59" y="830" text-anchor="middle" font-size="10.5" font-weight="bold" fill="#fff">18</text>
<text x="76" y="830" font-size="12.5" font-weight="bold" fill="#0f172a">端侧信号库</text>
<text x="55" y="849" font-size="10" fill="#334155">标准化快照 key/value/source/timestamp</text>
<text x="55" y="864" font-size="10" fill="#334155">触发器只读信号库，不读裸源</text>
<rect x="44" y="884" width="372" height="70" rx="7" fill="#fff" stroke="#16a34a" stroke-width="1.3" filter="url(#sh)"/>
<circle cx="59" cy="900" r="11" fill="#16a34a"/>
<text x="59" y="904" text-anchor="middle" font-size="10.5" font-weight="bold" fill="#fff">19</text>
<text x="76" y="904" font-size="12.5" font-weight="bold" fill="#0f172a">端侧可闭环事件</text>
<text x="55" y="923" font-size="10" fill="#334155">本地定时到点·弱网AI PUSH</text>
<text x="55" y="938" font-size="10" fill="#334155">部分本地状态组合</text>
<rect x="44" y="958" width="372" height="70" rx="7" fill="#fef2f2" stroke="#dc2626" stroke-width="1.3" filter="url(#sh)"/>
<circle cx="59" cy="974" r="11" fill="#dc2626"/>
<text x="59" y="978" text-anchor="middle" font-size="10.5" font-weight="bold" fill="#fff">20</text>
<text x="76" y="978" font-size="12.5" font-weight="bold" fill="#0f172a">边界待确认</text>
<text x="55" y="997" font-size="10" fill="#334155">赛力斯CDC自闭环/CDC上报字节</text>
<text x="55" y="1012" font-size="10" fill="#334155">字节端侧触发器承接·逐场景打表</text>
<rect x="456" y="728" width="300" height="132" rx="7" fill="#fff7ed" stroke="#ea580c" stroke-width="2.7" filter="url(#sh)"/>
<circle cx="471" cy="744" r="11" fill="#ea580c"/>
<text x="471" y="748" text-anchor="middle" font-size="10.5" font-weight="bold" fill="#fff">21</text>
<text x="488" y="748" font-size="12.5" font-weight="bold" fill="#0f172a">端侧触发器 Core</text>
<text x="467" y="766" font-size="9.5" font-style="italic" fill="#64748b">证明端侧价值：离线·弱网</text>
<text x="467" y="779" font-size="9.5" font-style="italic" fill="#64748b">倒计时·本地状态组合</text>
<text x="467" y="797" font-size="10" fill="#334155">21.1 端侧规则接收：下发/本地生效/灰度/回滚</text>
<text x="467" y="812" font-size="10" fill="#334155">21.2 本地定时器：一次性/循环/倒计时/分钟合并</text>
<text x="467" y="827" font-size="10" fill="#334155">21.3 本地持久化：上下电/重启恢复·任务不丢</text>
<text x="467" y="842" font-size="10" fill="#334155">21.4 弱网兜底：本地AI PUSH·网络恢复后同步</text>
<rect x="772" y="728" width="296" height="132" rx="7" fill="#fff7ed" stroke="#ea580c" stroke-width="2.7" filter="url(#sh)"/>
<circle cx="787" cy="744" r="11" fill="#ea580c"/>
<text x="787" y="748" text-anchor="middle" font-size="10.5" font-weight="bold" fill="#fff">22</text>
<text x="804" y="748" font-size="12.5" font-weight="bold" fill="#0f172a">VLM / Watcher 调度器</text>
<text x="783" y="766" font-size="9.5" font-style="italic" fill="#64748b">视觉非普通信号：需调度·互斥</text>
<text x="783" y="779" font-size="9.5" font-style="italic" fill="#64748b">终态·阈值穿越(last=F&amp;this=T)</text>
<text x="783" y="797" font-size="10" fill="#334155">22.1 视觉订阅：VLM query·event/state·SP/attention</text>
<text x="783" y="812" font-size="10" fill="#334155">22.2 任务调度：P0-P4·VLM_CABIN·VLM_FRONT</text>
<text x="783" y="827" font-size="10" fill="#334155">22.3 VQA调用：取图·请求模型·JSON result/desc</text>
<text x="783" y="842" font-size="10" fill="#334155">22.4 终态回写：success/empty/failed/timeout/interrupt</text>
<path d="M 180.0,187 L 180.0,196" fill="none" stroke="#2563eb" stroke-width="1.7" marker-end="url(#ar-2563eb)"/>
<rect x="159.25" y="177" width="41.5" height="16" rx="3" fill="#fff" stroke="#2563eb" stroke-width="0.6" opacity="0.97"/>
<text x="180" y="189" text-anchor="middle" font-size="9.5" font-weight="bold" fill="#2563eb">L1 输入</text>
<path d="M 180.0,251 L 180.0,256" fill="none" stroke="#ea580c" stroke-width="1.7" marker-end="url(#ar-ea580c)"/>
<rect x="157.95" y="237" width="54.1" height="16" rx="3" fill="#fff" stroke="#ea580c" stroke-width="0.6" opacity="0.97"/>
<text x="185" y="249" text-anchor="middle" font-size="9.5" font-weight="bold" fill="#ea580c">L2 意图分流</text>
<path d="M 180.0,311 L 180.0,322" fill="none" stroke="#dc2626" stroke-width="1.7" marker-end="url(#ar-dc2626)"/>
<path d="M 180.0,392 L 180.0,408" fill="none" stroke="#6b7280" stroke-width="1.7" marker-end="url(#ar-6b7280)"/>
<path d="M 316,283.5 L 335,300 L 335,490 L 44,509.0" fill="none" stroke="#6b7280" stroke-width="1.7" marker-end="url(#ar-6b7280)"/>
<path d="M 316,509.0 L 356,159.5" fill="none" stroke="#ea580c" stroke-width="1.7" marker-end="url(#ar-ea580c)"/>
<rect x="296.35" y="511" width="79.3" height="16" rx="3" fill="#fff" stroke="#ea580c" stroke-width="0.6" opacity="0.97"/>
<text x="336" y="523" text-anchor="middle" font-size="9.5" font-weight="bold" fill="#ea580c">L3 条件/定时/持续</text>
<path d="M 492.0,187 L 492.0,196" fill="none" stroke="#2563eb" stroke-width="1.7" marker-end="url(#ar-2563eb)"/>
<rect x="446.1" y="181" width="47.8" height="16" rx="3" fill="#fff" stroke="#2563eb" stroke-width="0.6" opacity="0.97"/>
<text x="470" y="193" text-anchor="middle" font-size="9.5" font-weight="bold" fill="#2563eb">L4 查能力</text>
<path d="M 492.0,266 L 492.0,278" fill="none" stroke="#2563eb" stroke-width="1.7" marker-end="url(#ar-2563eb)"/>
<path d="M 492.0,348 L 492.0,360" fill="none" stroke="#2563eb" stroke-width="1.7" marker-end="url(#ar-2563eb)"/>
<rect x="442.95" y="343" width="54.1" height="16" rx="3" fill="#fff" stroke="#2563eb" stroke-width="0.6" opacity="0.97"/>
<text x="470" y="355" text-anchor="middle" font-size="9.5" font-weight="bold" fill="#2563eb">L5 生成规则</text>
<path d="M 628,402.5 L 666,228.0" fill="none" stroke="#ea580c" stroke-width="1.7" marker-end="url(#ar-ea580c)"/>
<rect x="620.95" y="411" width="54.1" height="16" rx="3" fill="#fff" stroke="#ea580c" stroke-width="0.6" opacity="0.97"/>
<text x="648" y="423" text-anchor="middle" font-size="9.5" font-weight="bold" fill="#ea580c">L6 注册场景</text>
<path d="M 316,435.5 L 1060,440 L 1078,360" fill="none" stroke="#4338ca" stroke-width="1.5" marker-end="url(#ar-4338ca)"/>
<path d="M 1038,228.0 L 1052,300 L 1078,183.0" fill="none" stroke="#ea580c" stroke-width="1.7" marker-end="url(#ar-ea580c)"/>
<rect x="1030.95" y="241" width="54.1" height="16" rx="3" fill="#fff" stroke="#ea580c" stroke-width="0.6" opacity="0.97"/>
<text x="1058" y="253" text-anchor="middle" font-size="9.5" font-weight="bold" fill="#ea580c">L7 事件消费</text>
<path d="M 1038,228.0 L 1052,470 L 1064,350 L 1078,353.0" fill="none" stroke="#ea580c" stroke-width="1.7" marker-end="url(#ar-ea580c)"/>
<rect x="1030.95" y="461" width="54.1" height="16" rx="3" fill="#fff" stroke="#ea580c" stroke-width="0.6" opacity="0.97"/>
<text x="1058" y="473" text-anchor="middle" font-size="9.5" font-weight="bold" fill="#ea580c">L8 触发事件</text>
<path d="M 1250.0,234 L 1250.0,256" fill="none" stroke="#4338ca" stroke-width="1.7" marker-end="url(#ar-4338ca)"/>
<path d="M 1250.0,311 L 1250.0,318" fill="none" stroke="#4338ca" stroke-width="1.7" marker-end="url(#ar-4338ca)"/>
<rect x="1229.25" y="303" width="41.5" height="16" rx="3" fill="#fff" stroke="#4338ca" stroke-width="0.6" opacity="0.97"/>
<text x="1250" y="315" text-anchor="middle" font-size="9.5" font-weight="bold" fill="#4338ca">L9 汇入</text>
<path d="M 1250.0,388 L 1250.0,400" fill="none" stroke="#4338ca" stroke-width="1.7" marker-end="url(#ar-4338ca)"/>
<path d="M 1250.0,470 L 1250.0,482" fill="none" stroke="#4338ca" stroke-width="1.7" marker-end="url(#ar-4338ca)"/>
<rect x="1213.5" y="469" width="73.0" height="16" rx="3" fill="#fff" stroke="#4338ca" stroke-width="0.6" opacity="0.97"/>
<text x="1250" y="481" text-anchor="middle" font-size="9.5" font-weight="bold" fill="#4338ca">L10 action</text>
<path d="M 1422,517.0 L 1440,514 L 1440,260 L 1462,260" fill="none" stroke="#0891b2" stroke-width="1.4" marker-end="url(#ar-0891b2)"/>
<path d="M 1620.0,202 L 1620.0,214" fill="none" stroke="#7c3aed" stroke-width="1.7" marker-end="url(#ar-7c3aed)"/>
<path d="M 1462,249.0 L 1450,256 L 1056,256 L 1422,183.0" fill="none" stroke="#0891b2" stroke-width="1.7" marker-end="url(#ar-0891b2)"/>
<rect x="1194.05" y="241" width="91.89999999999999" height="16" rx="3" fill="#fff" stroke="#0891b2" stroke-width="0.6" opacity="0.97"/>
<text x="1240" y="253" text-anchor="middle" font-size="9.5" font-weight="bold" fill="#0891b2">L15 Context注入</text>
<path d="M 416,845.0 L 432,846 L 1455,846 L 1455,180 L 1620.0,202" fill="none" stroke="#16a34a" stroke-width="2.2" marker-end="url(#ar-16a34a)"/>
<rect x="869.8" y="837" width="60.4" height="16" rx="3" fill="#fff" stroke="#16a34a" stroke-width="0.6" opacity="0.97"/>
<text x="900" y="849" text-anchor="middle" font-size="9.5" font-weight="bold" fill="#16a34a">L11 端云同步</text>
<path d="M 852.0,324 L 852,640 L 606,728 L 606.0,728" fill="none" stroke="#ea580c" stroke-width="2.6" marker-end="url(#ar-ea580c)"/>
<rect x="683.5" y="659" width="73.0" height="16" rx="3" fill="#fff" stroke="#ea580c" stroke-width="0.6" opacity="0.97"/>
<text x="720" y="671" text-anchor="middle" font-size="9.5" font-weight="bold" fill="#ea580c">L12 下发端侧规则</text>
<path d="M 230.0,798 L 230.0,810" fill="none" stroke="#16a34a" stroke-width="1.7" marker-end="url(#ar-16a34a)"/>
<path d="M 416,845.0 L 456,846" fill="none" stroke="#16a34a" stroke-width="1.7" marker-end="url(#ar-16a34a)"/>
<path d="M 756,794.0 L 772,794.0" fill="none" stroke="#ea580c" stroke-width="1.7" marker-end="url(#ar-ea580c)"/>
<rect x="733.8" y="821" width="60.4" height="16" rx="3" fill="#fff" stroke="#ea580c" stroke-width="0.6" opacity="0.97"/>
<text x="764" y="833" text-anchor="middle" font-size="9.5" font-weight="bold" fill="#ea580c">L13 视觉调度</text>
<path d="M 920.0,860 L 920,1062 L 1455,1062 L 1455,300 L 1500,378" fill="none" stroke="#16a34a" stroke-width="2.2" marker-end="url(#ar-16a34a)"/>
<rect x="1100.35" y="1053" width="79.3" height="16" rx="3" fill="#fff" stroke="#16a34a" stroke-width="0.6" opacity="0.97"/>
<text x="1140" y="1065" text-anchor="middle" font-size="9.5" font-weight="bold" fill="#16a34a">L14 回写/恢复同步</text>
<path d="M 606.0,860 L 606,1062 L 606,1062" fill="none" stroke="#16a34a" stroke-width="1.4" marker-end="url(#ar-16a34a)"/>
<text x="44" y="1108" font-size="17" font-weight="bold" fill="#0f172a">▶ 触发器模块到底要做什么（评审核心）</text>
<rect x="44" y="1124" width="230" height="34" fill="#334155"/><text x="56" y="1146" font-size="12.5" font-weight="bold" fill="#fff">模块</text>
<rect x="274" y="1124" width="640" height="34" fill="#334155"/><text x="286" y="1146" font-size="12.5" font-weight="bold" fill="#fff">必须做</text>
<rect x="914" y="1124" width="520" height="34" fill="#334155"/><text x="926" y="1146" font-size="12.5" font-weight="bold" fill="#fff">明确不做</text>
<rect x="1434" y="1124" width="400" height="34" fill="#334155"/><text x="1446" y="1146" font-size="12.5" font-weight="bold" fill="#fff">评审输出</text>
<rect x="44" y="1158" width="230" height="58" fill="#fff7ed" stroke="#cbd5e1"/>
<text x="53" y="1178" font-size="10.5" font-weight="bold" fill="#1f2937">云端触发器</text>
<rect x="274" y="1158" width="640" height="58" fill="#ffffff" stroke="#cbd5e1"/>
<text x="283" y="1178" font-size="10.5" font-weight="normal" fill="#1f2937">接收注册·扫描云端信号库·条件判定·去抖冷却·优先级和冲突仲裁·生成标准触发事件·callback路由</text>
<rect x="914" y="1158" width="520" height="58" fill="#ffffff" stroke="#cbd5e1"/>
<text x="923" y="1178" font-size="10.5" font-weight="normal" fill="#1f2937">不做开放式语义推理·不直接控车·不和某个Advisor实例强耦合</text>
<rect x="1434" y="1158" width="400" height="58" fill="#ffffff" stroke="#cbd5e1"/>
<text x="1443" y="1178" font-size="10.5" font-weight="normal" fill="#1f2937">标准事件·触发记录·任务状态·失败原因</text>
<rect x="44" y="1216" width="230" height="58" fill="#fff7ed" stroke="#cbd5e1"/>
<text x="53" y="1236" font-size="10.5" font-weight="bold" fill="#1f2937">端侧触发器 Core</text>
<rect x="274" y="1216" width="640" height="58" fill="#ffffff" stroke="#cbd5e1"/>
<text x="283" y="1236" font-size="10.5" font-weight="normal" fill="#1f2937">端侧定时器·弱网/断网AI PUSH·本地任务持久化·本地状态组合·网络恢复后同步</text>
<rect x="914" y="1216" width="520" height="58" fill="#ffffff" stroke="#cbd5e1"/>
<text x="923" y="1236" font-size="10.5" font-weight="normal" fill="#1f2937">不替代Director·不做复杂语义仲裁·不绕过安全策略做车控</text>
<rect x="1434" y="1216" width="400" height="58" fill="#ffffff" stroke="#cbd5e1"/>
<text x="1443" y="1236" font-size="10.5" font-weight="normal" fill="#1f2937">本地触发·倒计时·离线履约·恢复同步</text>
<rect x="44" y="1274" width="230" height="58" fill="#fff7ed" stroke="#cbd5e1"/>
<text x="53" y="1294" font-size="10.5" font-weight="bold" fill="#1f2937">VLM 调度器</text>
<rect x="274" y="1274" width="640" height="58" fill="#ffffff" stroke="#cbd5e1"/>
<text x="283" y="1294" font-size="10.5" font-weight="normal" fill="#1f2937">视觉订阅·SP/attention·图片获取·VQA调用·阈值穿越·P0-P4·互斥组·终态回写</text>
<rect x="914" y="1274" width="520" height="58" fill="#ffffff" stroke="#cbd5e1"/>
<text x="923" y="1294" font-size="10.5" font-weight="normal" fill="#1f2937">不承接用户意图理解·不把timeout写成无异常·不无限并发视觉任务</text>
<rect x="1434" y="1274" width="400" height="58" fill="#ffffff" stroke="#cbd5e1"/>
<text x="1443" y="1294" font-size="10.5" font-weight="normal" fill="#1f2937">VLM JSON·视觉事件·success/empty/failed/timeout</text>
<rect x="44" y="1332" width="230" height="58" fill="#eef2ff" stroke="#cbd5e1"/>
<text x="53" y="1352" font-size="10.5" font-weight="bold" fill="#1f2937">Callback Router</text>
<rect x="274" y="1332" width="640" height="58" fill="#ffffff" stroke="#cbd5e1"/>
<text x="283" y="1352" font-size="10.5" font-weight="normal" fill="#1f2937">按任务归属投递到 Director/动态Advisor/Context/任务中心/端侧</text>
<rect x="914" y="1332" width="520" height="58" fill="#ffffff" stroke="#cbd5e1"/>
<text x="923" y="1352" font-size="10.5" font-weight="normal" fill="#1f2937">不做业务推理</text>
<rect x="1434" y="1332" width="400" height="58" fill="#ffffff" stroke="#cbd5e1"/>
<text x="1443" y="1352" font-size="10.5" font-weight="normal" fill="#1f2937">可靠投递·失败重试·投递日志</text>
<rect x="1830" y="1090" width="556" height="320" rx="10" fill="#fff7ed" stroke="#ea580c" stroke-width="1.6"/>
<text x="1846" y="1116" font-size="15" font-weight="bold" fill="#b45309">研发评审必须确认（8）</text>
<text x="1846" y="1142" font-size="11" fill="#334155">1 DSL能力：=、&gt;、&lt;、range、变更为、持续时长、group logic 是否支持</text>
<text x="1846" y="1164" font-size="11" fill="#334155">2 信号范围：信号库v2.5 哪些可量产、哪些只是规划字段</text>
<text x="1846" y="1186" font-size="11" fill="#334155">3 端侧定时器：是否支持持久化、上下电恢复、任务中心倒计时</text>
<text x="1846" y="1208" font-size="11" fill="#334155">4 VLM并发：固定1个，还是按 VLM_CABIN/VLM_FRONT 分组</text>
<text x="1846" y="1230" font-size="11" fill="#334155">5 图片服务：车内/车外/屏幕 image url 是否有稳定接口</text>
<text x="1846" y="1252" font-size="11" fill="#334155">6 callback：是否有 ACK、重试、幂等、失败日志</text>
<text x="1846" y="1274" font-size="11" fill="#334155">7 端侧闭环白名单：提醒类可本地闭环，车控类是否必须回Director</text>
<text x="1846" y="1296" font-size="11" fill="#334155">8 CDC边界：哪些赛力斯自闭环，哪些事件给字节触发器</text>
<rect x="44" y="1430" width="2342" height="338" rx="10" fill="#ffffff" stroke="#cbd5e1" stroke-width="1.3"/>
<text x="60" y="1454" font-size="14" font-weight="bold" fill="#0891b2">对外接口 / DSL（已逐字核对 触发器接口文档·DSL定义【对外】；⚠=研发待确认）</text>
<text x="60" y="1478" font-size="10.3" font-weight="bold" fill="#0f172a">【6 REST API · /aidv/v1/trigger · HMAC-SHA256】</text>
<text x="60" y="1498" font-size="10.3" font-weight="normal" fill="#334155">GET  /signals          查询条件信号(vehicle/vlm)</text>
<text x="60" y="1518" font-size="10.3" font-weight="normal" fill="#334155">GET  /actions          查询动作(vehicle_id=trigger)</text>
<text x="60" y="1538" font-size="10.3" font-weight="normal" fill="#334155">POST /scene            注册场景</text>
<text x="60" y="1558" font-size="10.3" font-weight="normal" fill="#334155">POST /scene/update     更新场景(scene_id)</text>
<text x="60" y="1578" font-size="10.3" font-weight="normal" fill="#334155">GET  /scene            查询(page/status/name前缀)</text>
<text x="60" y="1598" font-size="10.3" font-weight="normal" fill="#334155">POST /scene/update_status  1生效/2失效/3删除</text>
<text x="60" y="1618" font-size="10.3" font-weight="normal" fill="#334155">签名: X-Signature=AK:HMAC(SK, METHOD\n排序query\nMD5(body))</text>
<text x="645" y="1478" font-size="10.3" font-weight="bold" fill="#0f172a">【DSL · 场景=条件+动作+策略+范围+优先级】</text>
<text x="645" y="1498" font-size="10.3" font-weight="normal" fill="#334155">Condition{code,operator,value,logic,group_index,</text>
<text x="645" y="1518" font-size="10.3" font-weight="normal" fill="#334155">        group_logic}  Option{type,value}</text>
<text x="645" y="1538" font-size="10.3" font-weight="normal" fill="#334155">Action{code,name,params,execute_info}</text>
<text x="645" y="1558" font-size="10.3" font-weight="normal" fill="#334155">execute_info{repeat_num(上下电周期次数),</text>
<text x="645" y="1578" font-size="10.3" font-weight="normal" fill="#334155">            repeat_interval(纳秒)}</text>
<text x="645" y="1598" font-size="10.3" font-weight="normal" fill="#dc2626">operator: = &gt; &gt;= &lt; &lt;=   ⚠range ⚠持续时长 ⚠group</text>
<text x="645" y="1618" font-size="10.3" font-weight="normal" fill="#334155">dynamic_conditions: operator_name=变更为/等于</text>
<text x="1230" y="1478" font-size="10.3" font-weight="bold" fill="#0f172a">【场景策略 / 范围】</text>
<text x="1230" y="1498" font-size="10.3" font-weight="normal" fill="#334155">priority 1-10(默认1, Planner默认最高)</text>
<text x="1230" y="1518" font-size="10.3" font-weight="normal" fill="#334155">source: aidv_backend / extour</text>
<text x="1230" y="1538" font-size="10.3" font-weight="normal" fill="#334155">execute_policy{total_count,daily_count,</text>
<text x="1230" y="1558" font-size="10.3" font-weight="normal" fill="#334155">   power_count, execute_interval(秒)}</text>
<text x="1230" y="1578" font-size="10.3" font-weight="normal" fill="#334155">effective_scope{vehicle_type, client{model,</text>
<text x="1230" y="1598" font-size="10.3" font-weight="normal" fill="#334155">   values(版本)}, vehicle_id(VIN)}</text>
<text x="1230" y="1618" font-size="10.3" font-weight="normal" fill="#334155">actions: comfort_advisor/emotion_advisor/</text>
<text x="1230" y="1638" font-size="10.3" font-weight="normal" fill="#334155">   recommend(advisor_input)/custom_callback</text>
<text x="1815" y="1478" font-size="10.3" font-weight="bold" fill="#0f172a">【信号示例(real)】</text>
<text x="1815" y="1498" font-size="10.3" font-weight="normal" fill="#334155">vehicle: vehicle_control_0013(空调)</text>
<text x="1815" y="1518" font-size="10.3" font-weight="normal" fill="#334155">  args: switch/position/temperature/mode/states</text>
<text x="1815" y="1538" font-size="10.3" font-weight="normal" fill="#334155">vehicle_control_0004.velocity / _0021.temperature</text>
<text x="1815" y="1558" font-size="10.3" font-weight="normal" fill="#334155">  / _0028(车门 position·switch)</text>
<text x="1815" y="1578" font-size="10.3" font-weight="normal" fill="#334155">vlm: people(position一排主驾..二排右/gender)</text>
<text x="1815" y="1598" font-size="10.3" font-weight="normal" fill="#334155">     cabin_contents(child_seat 有/无)</text>
<text x="1815" y="1618" font-size="10.3" font-weight="normal" fill="#dc2626">⚠VLM并发是否=1、端侧定时器持久化 待研发确认</text>
</svg>