<svg xmlns="http://www.w3.org/2000/svg" viewBox="0 0 1620 1340" font-family="-apple-system,PingFang SC,Microsoft YaHei,sans-serif">
<rect width="1620" height="1340" fill="#ffffff"/>
<text x="40" y="40" font-size="20" font-weight="bold" fill="#0f172a">触发器原子模块 · 输入 / 输出 / 谁负责 / 卡点 · 6.22 评审修正版</text>
<text x="40" y="64" font-size="11.5" fill="#64748b">24 个原子(云端15 + 端侧9) · 🔴=6.22新增 · 已删除移交CDC的5原子 · ⚠=待确认</text>

<!-- 表头 -->
<rect x="40" y="90" width="200" height="34" fill="#334155"/><text x="50" y="112" font-size="12.5" font-weight="bold" fill="#fff">原子</text>
<rect x="240" y="90" width="340" height="34" fill="#334155"/><text x="250" y="112" font-size="12.5" font-weight="bold" fill="#fff">输入 (从哪来)</text>
<rect x="580" y="90" width="320" height="34" fill="#334155"/><text x="590" y="112" font-size="12.5" font-weight="bold" fill="#fff">输出 (给下一步)</text>
<rect x="900" y="90" width="190" height="34" fill="#334155"/><text x="910" y="112" font-size="12.5" font-weight="bold" fill="#fff">谁负责</text>
<rect x="1090" y="90" width="490" height="34" fill="#334155"/><text x="1100" y="112" font-size="12.5" font-weight="bold" fill="#fff">卡点 / 待确认 ⚠</text>

<!-- ===== 云端触发器 15 原子 ===== -->
<rect x="40" y="124" width="1540" height="26" fill="#ea580c"/><text x="52" y="142" font-size="13" font-weight="bold" fill="#fff">☁ 云端触发器 ⑮（15 原子 · 6.22 从12+3）</text>

<!-- 15-1 -->
<rect x="40" y="150" width="200" height="38" fill="#fff" stroke="#e2e8f0" stroke-width="0.8"/>
<text x="48" y="168" font-size="9.5" font-weight="bold" fill="#0f172a">15-1 注册校验 iCanDo</text>
<rect x="240" y="150" width="340" height="38" fill="#fff" stroke="#e2e8f0" stroke-width="0.8"/>
<text x="248" y="168" font-size="9" fill="#334155">注册请求(Advisor/Director/⑬配置平台)</text>
<rect x="580" y="150" width="320" height="38" fill="#fff" stroke="#e2e8f0" stroke-width="0.8"/>
<text x="588" y="168" font-size="9" fill="#334155">iCanDo→select/create→入15-2</text>
<rect x="900" y="150" width="190" height="38" fill="#fff" stroke="#e2e8f0" stroke-width="0.8"/>
<text x="908" y="168" font-size="9" fill="#334155">⑮研发·兰若</text>
<rect x="1090" y="150" width="490" height="38" fill="#fff" stroke="#e2e8f0" stroke-width="0.8"/>
<text x="1098" y="168" font-size="9" fill="#dc2626">P0 iCanDo能力清单(信号+动作)待泽民出·找CDC研发要CAN信号表⚠</text>

<!-- 15-2 -->
<rect x="40" y="188" width="200" height="32" fill="#f8fafc" stroke="#e2e8f0" stroke-width="0.8"/>
<text x="48" y="206" font-size="9.5" font-weight="bold" fill="#0f172a">15-2 场景入库</text>
<rect x="240" y="188" width="340" height="32" fill="#f8fafc" stroke="#e2e8f0" stroke-width="0.8"/>
<text x="248" y="206" font-size="9" fill="#334155">15-1校验通过的规则</text>
<rect x="580" y="188" width="320" height="32" fill="#f8fafc" stroke="#e2e8f0" stroke-width="0.8"/>
<text x="588" y="206" font-size="9" fill="#334155">scene_id+version+灰度→15-3订阅</text>
<rect x="900" y="188" width="190" height="32" fill="#f8fafc" stroke="#e2e8f0" stroke-width="0.8"/>
<text x="908" y="206" font-size="9" fill="#334155">⑮研发</text>
<rect x="1090" y="188" width="490" height="32" fill="#f8fafc" stroke="#e2e8f0" stroke-width="0.8"/>
<text x="1098" y="206" font-size="9" fill="#334155">灰度策略(1%→10%→全量)待定</text>

<!-- 15-3 -->
<rect x="40" y="220" width="200" height="32" fill="#fff" stroke="#e2e8f0" stroke-width="0.8"/>
<text x="48" y="238" font-size="9.5" font-weight="bold" fill="#0f172a">15-3 信号扫描</text>
<rect x="240" y="220" width="340" height="32" fill="#fff" stroke="#e2e8f0" stroke-width="0.8"/>
<text x="248" y="238" font-size="9" fill="#334155">⑫云端信号库/㉑Context快照(周期5s)</text>
<rect x="580" y="220" width="320" height="32" fill="#fff" stroke="#e2e8f0" stroke-width="0.8"/>
<text x="588" y="238" font-size="9" fill="#334155">当前值快照→15-4判定</text>
<rect x="900" y="220" width="190" height="32" fill="#fff" stroke="#e2e8f0" stroke-width="0.8"/>
<text x="908" y="238" font-size="9" fill="#334155">⑮研发</text>
<rect x="1090" y="220" width="490" height="32" fill="#fff" stroke="#e2e8f0" stroke-width="0.8"/>
<text x="1098" y="238" font-size="9" fill="#334155">P1 订阅信号清单+分类频率(温度5s/车速1s/充电30s)⚠</text>

<!-- 15-4 -->
<rect x="40" y="252" width="200" height="32" fill="#f8fafc" stroke="#e2e8f0" stroke-width="0.8"/>
<text x="48" y="270" font-size="9.5" font-weight="bold" fill="#0f172a">15-4 条件判定</text>
<rect x="240" y="252" width="340" height="32" fill="#f8fafc" stroke="#e2e8f0" stroke-width="0.8"/>
<text x="248" y="270" font-size="9" fill="#334155">15-3快照 + 场景条件(=/>/range/变更为/AND/OR)</text>
<rect x="580" y="252" width="320" height="32" fill="#f8fafc" stroke="#e2e8f0" stroke-width="0.8"/>
<text x="588" y="270" font-size="9" fill="#334155">条件全达成→候选集→15-5/15-6</text>
<rect x="900" y="252" width="190" height="32" fill="#f8fafc" stroke="#e2e8f0" stroke-width="0.8"/>
<text x="908" y="270" font-size="9" fill="#334155">⑮研发·泽民定规则</text>
<rect x="1090" y="252" width="490" height="32" fill="#f8fafc" stroke="#e2e8f0" stroke-width="0.8"/>
<text x="1098" y="270" font-size="9" fill="#dc2626">P1 运算符扩展排期(一期=/>/range/AND/OR·二期=持续时长/任一)⚠</text>

<!-- 15-5 -->
<rect x="40" y="284" width="200" height="38" fill="#fff" stroke="#e2e8f0" stroke-width="0.8"/>
<text x="48" y="302" font-size="9.5" font-weight="bold" fill="#0f172a">15-5 模型推理/VLM编译</text>
<rect x="240" y="284" width="340" height="38" fill="#fff" stroke="#e2e8f0" stroke-width="0.8"/>
<text x="248" y="302" font-size="9" fill="#334155">Advisor语义条件("盯副驾睡没睡")</text>
<rect x="580" y="284" width="320" height="38" fill="#fff" stroke="#e2e8f0" stroke-width="0.8"/>
<text x="588" y="302" font-size="9" fill="#334155">VLM 7字段task→15-9分类下发</text>
<rect x="900" y="284" width="190" height="38" fill="#fff" stroke="#e2e8f0" stroke-width="0.8"/>
<text x="908" y="302" font-size="9" fill="#334155">泽民出·找丁斌确认</text>
<rect x="1090" y="284" width="490" height="38" fill="#fff" stroke="#e2e8f0" stroke-width="0.8"/>
<text x="1098" y="302" font-size="9" fill="#dc2626">P0 VLM task 7字段定义(camera/seat/query/interval/timeout/priority/mutex)⚠</text>

<!-- 15-6 -->
<rect x="40" y="322" width="200" height="32" fill="#f8fafc" stroke="#e2e8f0" stroke-width="0.8"/>
<text x="48" y="340" font-size="9.5" font-weight="bold" fill="#0f172a">15-6 抖动过滤</text>
<rect x="240" y="322" width="340" height="32" fill="#f8fafc" stroke="#e2e8f0" stroke-width="0.8"/>
<text x="248" y="340" font-size="9" fill="#334155">15-4候选(数值条件在阈值附近波动)</text>
<rect x="580" y="322" width="320" height="32" fill="#f8fafc" stroke="#e2e8f0" stroke-width="0.8"/>
<text x="588" y="340" font-size="9" fill="#334155">去重→15-7频控</text>
<rect x="900" y="322" width="190" height="32" fill="#f8fafc" stroke="#e2e8f0" stroke-width="0.8"/>
<text x="908" y="340" font-size="9" fill="#334155">泽民定区间·⑮研发</text>
<rect x="1090" y="322" width="490" height="32" fill="#f8fafc" stroke="#e2e8f0" stroke-width="0.8"/>
<text x="1098" y="340" font-size="9" fill="#334155">P1 各数值条件抖动区间表(温度±0.5°/车速±3km/h/电量±2%)</text>

<!-- 15-7 -->
<rect x="40" y="354" width="200" height="32" fill="#fff" stroke="#e2e8f0" stroke-width="0.8"/>
<text x="48" y="372" font-size="9.5" font-weight="bold" fill="#0f172a">15-7 冷却频控</text>
<rect x="240" y="354" width="340" height="32" fill="#fff" stroke="#e2e8f0" stroke-width="0.8"/>
<text x="248" y="372" font-size="9" fill="#334155">15-6去重结果 + execute_policy</text>
<rect x="580" y="354" width="320" height="32" fill="#fff" stroke="#e2e8f0" stroke-width="0.8"/>
<text x="588" y="372" font-size="9" fill="#334155">过频控→15-8排优先级</text>
<rect x="900" y="354" width="190" height="32" fill="#fff" stroke="#e2e8f0" stroke-width="0.8"/>
<text x="908" y="372" font-size="9" fill="#334155">泽民定数值·⑮研发</text>
<rect x="1090" y="354" width="490" height="32" fill="#fff" stroke="#e2e8f0" stroke-width="0.8"/>
<text x="1098" y="372" font-size="9" fill="#334155">P1 各场景cooldown/每日上限数值表</text>

<!-- 15-8 -->
<rect x="40" y="386" width="200" height="38" fill="#f8fafc" stroke="#e2e8f0" stroke-width="0.8"/>
<text x="48" y="404" font-size="9.5" font-weight="bold" fill="#0f172a">15-8 优先级仲裁</text>
<rect x="240" y="386" width="340" height="38" fill="#f8fafc" stroke="#e2e8f0" stroke-width="0.8"/>
<text x="248" y="404" font-size="9" fill="#334155">15-7过频控的候选集(可能多规则同时命中)</text>
<rect x="580" y="386" width="320" height="38" fill="#f8fafc" stroke="#e2e8f0" stroke-width="0.8"/>
<text x="588" y="404" font-size="9" fill="#334155">P0~P4排序+互斥组→胜出→15-9</text>
<rect x="900" y="386" width="190" height="38" fill="#f8fafc" stroke="#e2e8f0" stroke-width="0.8"/>
<text x="908" y="404" font-size="9" fill="#334155">泽民定P级+互斥</text>
<rect x="1090" y="386" width="490" height="38" fill="#f8fafc" stroke="#e2e8f0" stroke-width="0.8"/>
<text x="1098" y="404" font-size="9" fill="#dc2626">P1 互斥组(降温vs加热/开窗vs空调)·P0安全类找智驾confirm⚠</text>

<!-- 15-9 -->
<rect x="40" y="424" width="200" height="38" fill="#fff" stroke="#e2e8f0" stroke-width="0.8"/>
<text x="48" y="442" font-size="9.5" font-weight="bold" fill="#0f172a">15-9 端云分类 [需9★]</text>
<rect x="240" y="424" width="340" height="38" fill="#fff" stroke="#e2e8f0" stroke-width="0.8"/>
<text x="248" y="442" font-size="9" fill="#334155">15-8胜出的命中规则</text>
<rect x="580" y="424" width="320" height="38" fill="#fff" stroke="#e2e8f0" stroke-width="0.8"/>
<text x="588" y="436" font-size="9" fill="#334155">四出口:留云端/下发端侧㉔/</text>
<text x="588" y="450" font-size="9" fill="#334155">转VLM/回⑳Director→15-10/15-12</text>
<rect x="900" y="424" width="190" height="38" fill="#fff" stroke="#e2e8f0" stroke-width="0.8"/>
<text x="908" y="442" font-size="9" fill="#334155">泽民主导·找兰若confirm</text>
<rect x="1090" y="424" width="490" height="38" fill="#fff" stroke="#e2e8f0" stroke-width="0.8"/>
<text x="1098" y="442" font-size="9" fill="#dc2626">P0 端云分类规则表(需求9)·找兰若confirm边界·上会讨论⚠</text>

<!-- 15-10 -->
<rect x="40" y="462" width="200" height="32" fill="#f8fafc" stroke="#e2e8f0" stroke-width="0.8"/>
<text x="48" y="480" font-size="9.5" font-weight="bold" fill="#0f172a">15-10 标准事件生成</text>
<rect x="240" y="462" width="340" height="32" fill="#f8fafc" stroke="#e2e8f0" stroke-width="0.8"/>
<text x="248" y="480" font-size="9" fill="#334155">命中结果(云端处理路径)</text>
<rect x="580" y="462" width="320" height="32" fill="#f8fafc" stroke="#e2e8f0" stroke-width="0.8"/>
<text x="588" y="480" font-size="9" fill="#334155">统一事件格式→15-11路由</text>
<rect x="900" y="462" width="190" height="32" fill="#f8fafc" stroke="#e2e8f0" stroke-width="0.8"/>
<text x="908" y="480" font-size="9" fill="#334155">⑮研发·泽民定协议</text>
<rect x="1090" y="462" width="490" height="32" fill="#f8fafc" stroke="#e2e8f0" stroke-width="0.8"/>
<text x="1098" y="480" font-size="9" fill="#334155">P1 事件字段定义+二次推理规则(哪些need_second_reasoning=true)</text>

<!-- 15-11 -->
<rect x="40" y="494" width="200" height="38" fill="#fff" stroke="#e2e8f0" stroke-width="0.8"/>
<text x="48" y="512" font-size="9.5" font-weight="bold" fill="#0f172a">15-11 Callback Router</text>
<rect x="240" y="494" width="340" height="38" fill="#fff" stroke="#e2e8f0" stroke-width="0.8"/>
<text x="248" y="512" font-size="9" fill="#334155">15-10标准事件</text>
<rect x="580" y="494" width="320" height="38" fill="#fff" stroke="#e2e8f0" stroke-width="0.8"/>
<text x="588" y="506" font-size="9" fill="#334155">路由→Director⑳/Advisor⑯⑰/</text>
<text x="588" y="520" font-size="9" fill="#334155">Context㉑/端㉔</text>
<rect x="900" y="494" width="190" height="38" fill="#fff" stroke="#e2e8f0" stroke-width="0.8"/>
<text x="908" y="512" font-size="9" fill="#334155">⑮研发</text>
<rect x="1090" y="494" width="490" height="38" fill="#fff" stroke="#e2e8f0" stroke-width="0.8"/>
<text x="1098" y="512" font-size="9" fill="#334155">铁律①②的代码实现·找晓伟确认Director接口/施佳杰Context接口</text>

<!-- 15-12 -->
<rect x="40" y="532" width="200" height="38" fill="#f8fafc" stroke="#e2e8f0" stroke-width="0.8"/>
<text x="48" y="550" font-size="9.5" font-weight="bold" fill="#0f172a">15-12 场景下发器</text>
<rect x="240" y="532" width="340" height="38" fill="#f8fafc" stroke="#e2e8f0" stroke-width="0.8"/>
<text x="248" y="550" font-size="9" fill="#334155">15-9分类为"下发端侧"的规则</text>
<rect x="580" y="532" width="320" height="38" fill="#f8fafc" stroke="#e2e8f0" stroke-width="0.8"/>
<text x="588" y="550" font-size="9" fill="#334155">规则包(全/增/灰)→㉔24-1·铁律①唯一通道</text>
<rect x="900" y="532" width="190" height="38" fill="#f8fafc" stroke="#e2e8f0" stroke-width="0.8"/>
<text x="908" y="550" font-size="9" fill="#334155">⑮研发+㉔端侧研发</text>
<rect x="1090" y="532" width="490" height="38" fill="#f8fafc" stroke="#e2e8f0" stroke-width="0.8"/>
<text x="1098" y="550" font-size="9" fill="#dc2626">P1 规则包协议v2(含VLM task/valid_phases)·牵头联调会⚠</text>

<!-- ★ 6.22 新增分隔线 -->
<rect x="40" y="570" width="1540" height="22" fill="#dc2626"/><text x="52" y="585" font-size="11" font-weight="bold" fill="#fff">🔴 6.22 新增 3 原子：事件加工 + 视觉感知</text>

<!-- 15-13 -->
<rect x="40" y="592" width="200" height="44" fill="#fef2f2" stroke="#dc2626" stroke-width="1.2"/>
<text x="48" y="608" font-size="9.5" font-weight="bold" fill="#dc2626">15-13 状态→事件push</text>
<text x="48" y="622" font-size="8" fill="#991b1b">🔴6.22 佳杰定调</text>
<rect x="240" y="592" width="340" height="44" fill="#fef2f2" stroke="#dc2626" stroke-width="1.2"/>
<text x="248" y="608" font-size="9" fill="#334155">⑫信号变化(阈值穿越F→T/首次/变更)</text>
<rect x="580" y="592" width="320" height="44" fill="#fef2f2" stroke="#dc2626" stroke-width="1.2"/>
<text x="588" y="608" font-size="9" fill="#334155">语义事件→主动push给订阅的Advisor</text>
<text x="588" y="622" font-size="8" fill="#dc2626">★非轮询Context!</text>
<rect x="900" y="592" width="190" height="44" fill="#fef2f2" stroke="#dc2626" stroke-width="1.2"/>
<text x="908" y="608" font-size="9" fill="#334155">⑮研发·找施佳杰对齐push</text>
<rect x="1090" y="592" width="490" height="44" fill="#fef2f2" stroke="#dc2626" stroke-width="1.2"/>
<text x="1098" y="608" font-size="9" fill="#dc2626">P0 "状态→事件"规则表+事件schema+push协议⚠</text>

<!-- 15-14 -->
<rect x="40" y="636" width="200" height="44" fill="#fef2f2" stroke="#dc2626" stroke-width="1.2"/>
<text x="48" y="652" font-size="9.5" font-weight="bold" fill="#dc2626">15-14 动态视觉SP注册</text>
<text x="48" y="666" font-size="8" fill="#991b1b">🔴6.22 仁杰修正</text>
<rect x="240" y="636" width="340" height="44" fill="#fef2f2" stroke="#dc2626" stroke-width="1.2"/>
<text x="248" y="652" font-size="9" fill="#334155">⑰动态Advisor改写的注意力SP</text>
<text x="248" y="666" font-size="8" fill="#dc2626">★Director不直接到触发器</text>
<rect x="580" y="636" width="320" height="44" fill="#fef2f2" stroke="#dc2626" stroke-width="1.2"/>
<text x="588" y="652" font-size="9" fill="#334155">注册视觉场景→15-12下发端模→结果→15-13</text>
<rect x="900" y="636" width="190" height="44" fill="#fef2f2" stroke="#dc2626" stroke-width="1.2"/>
<text x="908" y="652" font-size="9" fill="#334155">泽民·找丁斌/兰若</text>
<rect x="1090" y="636" width="490" height="44" fill="#fef2f2" stroke="#dc2626" stroke-width="1.2"/>
<text x="1098" y="652" font-size="9" fill="#dc2626">3卡点7月中定:SP下发路径/端模条件式注意力/视觉判定放哪⚠</text>

<!-- 15-15 -->
<rect x="40" y="680" width="200" height="44" fill="#fef2f2" stroke="#dc2626" stroke-width="1.2"/>
<text x="48" y="696" font-size="9.5" font-weight="bold" fill="#dc2626">15-15 通用视觉通道</text>
<text x="48" y="710" font-size="8" fill="#991b1b">🔴6.22 西钺/佳杰</text>
<rect x="240" y="680" width="340" height="44" fill="#fef2f2" stroke="#dc2626" stroke-width="1.2"/>
<text x="248" y="696" font-size="9" fill="#334155">枚举不满足时Advisor动态query+SP</text>
<rect x="580" y="680" width="320" height="44" fill="#fef2f2" stroke="#dc2626" stroke-width="1.2"/>
<text x="588" y="696" font-size="9" fill="#334155">透传AIBox·舱内静/动/舱外·增量非覆盖</text>
<rect x="900" y="680" width="190" height="44" fill="#fef2f2" stroke="#dc2626" stroke-width="1.2"/>
<text x="908" y="696" font-size="9" fill="#334155">泽民·找施佳杰/丁彬</text>
<rect x="1090" y="680" width="490" height="44" fill="#fef2f2" stroke="#dc2626" stroke-width="1.2"/>
<text x="1098" y="696" font-size="9" fill="#334155">P1 通用视觉配置(⑬)+三类分舱定义+增量prompt机制</text>

<!-- ===== 端侧触发器 9 原子 ===== -->
<rect x="40" y="736" width="1540" height="26" fill="#ea580c"/><text x="52" y="754" font-size="13" font-weight="bold" fill="#fff">▣ 端侧触发器 ㉔（收窄 · 9 原子 · 6.22 从12→9 · 固定闭环归CDC）</text>

<!-- 24-1 -->
<rect x="40" y="762" width="200" height="32" fill="#fff" stroke="#e2e8f0" stroke-width="0.8"/>
<text x="48" y="780" font-size="9.5" font-weight="bold" fill="#0f172a">24-1 规则接收</text>
<rect x="240" y="762" width="340" height="32" fill="#fff" stroke="#e2e8f0" stroke-width="0.8"/>
<text x="248" y="780" font-size="9" fill="#334155">L14链路←⑮经15-12下发的规则包</text>
<rect x="580" y="762" width="320" height="32" fill="#fff" stroke="#e2e8f0" stroke-width="0.8"/>
<text x="588" y="780" font-size="9" fill="#334155">解析校验→24-2持久化</text>
<rect x="900" y="762" width="190" height="32" fill="#fff" stroke="#e2e8f0" stroke-width="0.8"/>
<text x="908" y="780" font-size="9" fill="#334155">㉔端侧研发</text>
<rect x="1090" y="762" width="490" height="32" fill="#fff" stroke="#e2e8f0" stroke-width="0.8"/>
<text x="1098" y="780" font-size="9" fill="#334155">版本/有效期/撤销规则待定</text>

<!-- 24-2 -->
<rect x="40" y="794" width="200" height="38" fill="#f8fafc" stroke="#e2e8f0" stroke-width="0.8"/>
<text x="48" y="812" font-size="9.5" font-weight="bold" fill="#0f172a">24-2 本地持久化·任务库</text>
<rect x="240" y="794" width="340" height="38" fill="#f8fafc" stroke="#e2e8f0" stroke-width="0.8"/>
<text x="248" y="812" font-size="9" fill="#334155">24-1解析结果</text>
<rect x="580" y="794" width="320" height="38" fill="#f8fafc" stroke="#e2e8f0" stroke-width="0.8"/>
<text x="588" y="812" font-size="9" fill="#334155">SQLite/eMMC记到期时间点→24-5/24-13</text>
<rect x="900" y="794" width="190" height="38" fill="#f8fafc" stroke="#e2e8f0" stroke-width="0.8"/>
<text x="908" y="812" font-size="9" fill="#334155">㉔端侧研发</text>
<rect x="1090" y="794" width="490" height="38" fill="#f8fafc" stroke="#e2e8f0" stroke-width="0.8"/>
<text x="1098" y="812" font-size="9" fill="#334155">掉电不丢·重启继续·持久库供24-13任务中心读写</text>

<!-- 24-5 -->
<rect x="40" y="832" width="200" height="38" fill="#f0fdf4" stroke="#16a34a" stroke-width="1.6"/>
<text x="48" y="850" font-size="9.5" font-weight="bold" fill="#15803d">24-5 本地定时器 ★核心</text>
<rect x="240" y="832" width="340" height="38" fill="#f0fdf4" stroke="#16a34a" stroke-width="1.2"/>
<text x="248" y="850" font-size="9" fill="#334155">24-2持久化的定时规则</text>
<rect x="580" y="832" width="320" height="38" fill="#f0fdf4" stroke="#16a34a" stroke-width="1.2"/>
<text x="588" y="844" font-size="9" fill="#334155">倒计时/Cron/日期/节日→</text>
<text x="588" y="858" font-size="9" fill="#334155">到点命中→24-12'执行</text>
<rect x="900" y="832" width="190" height="38" fill="#f0fdf4" stroke="#16a34a" stroke-width="1.2"/>
<text x="908" y="850" font-size="9" fill="#334155">㉔研发(核心)</text>
<rect x="1090" y="832" width="490" height="38" fill="#f0fdf4" stroke="#16a34a" stroke-width="1.2"/>
<text x="1098" y="850" font-size="9" fill="#16a34a" font-weight="bold">㉔存在的唯一不可替代理由·断网照跑·最小1min·最大30并发</text>

<!-- 24-12' -->
<rect x="40" y="870" width="200" height="38" fill="#fff" stroke="#e2e8f0" stroke-width="0.8"/>
<text x="48" y="888" font-size="9.5" font-weight="bold" fill="#0f172a">24-12' 下发任务执行(收窄)</text>
<rect x="240" y="870" width="340" height="38" fill="#fff" stroke="#e2e8f0" stroke-width="0.8"/>
<text x="248" y="888" font-size="9" fill="#334155">24-5命中的动态/定时任务</text>
<rect x="580" y="870" width="320" height="38" fill="#fff" stroke="#e2e8f0" stroke-width="0.8"/>
<text x="588" y="882" font-size="9" fill="#334155">白名单动作(TTS/音量/温度/车窗/</text>
<text x="588" y="896" font-size="9" fill="#334155">氛围灯/AI Push)→车控/TTS</text>
<rect x="900" y="870" width="190" height="38" fill="#fff" stroke="#e2e8f0" stroke-width="0.8"/>
<text x="908" y="888" font-size="9" fill="#334155">㉔研发+泽民定白名单</text>
<rect x="1090" y="870" width="490" height="38" fill="#fff" stroke="#e2e8f0" stroke-width="0.8"/>
<text x="1098" y="888" font-size="9" fill="#dc2626">P0 白名单待兰若×蓉姐拍板·固定闭环类直执已移交CDC⚠</text>

<!-- 24-8' -->
<rect x="40" y="908" width="200" height="38" fill="#fffbeb" stroke="#e2e8f0" stroke-width="0.8"/>
<text x="48" y="926" font-size="9.5" font-weight="bold" fill="#0f172a">24-8' 视觉SP下发·回收</text>
<rect x="240" y="908" width="340" height="38" fill="#fffbeb" stroke="#e2e8f0" stroke-width="0.8"/>
<text x="248" y="926" font-size="9" fill="#334155">15-14的注意力SP(经15-12下发)</text>
<rect x="580" y="908" width="320" height="38" fill="#fffbeb" stroke="#e2e8f0" stroke-width="0.8"/>
<text x="588" y="926" font-size="9" fill="#334155">下发端模AIBox·回收结果→24-9</text>
<rect x="900" y="908" width="190" height="38" fill="#fffbeb" stroke="#e2e8f0" stroke-width="0.8"/>
<text x="908" y="926" font-size="9" fill="#334155">㉔研发·找丁彬</text>
<rect x="1090" y="908" width="490" height="38" fill="#fffbeb" stroke="#e2e8f0" stroke-width="0.8"/>
<text x="1098" y="926" font-size="9" fill="#dc2626">3卡点7月中定·任务调度归AIBox佳杰⚠</text>

<!-- 24-9 -->
<rect x="40" y="946" width="200" height="32" fill="#f8fafc" stroke="#e2e8f0" stroke-width="0.8"/>
<text x="48" y="964" font-size="9.5" font-weight="bold" fill="#0f172a">24-9 VLM五态归一</text>
<rect x="240" y="946" width="340" height="32" fill="#f8fafc" stroke="#e2e8f0" stroke-width="0.8"/>
<text x="248" y="964" font-size="9" fill="#334155">24-8'端模返回结果</text>
<rect x="580" y="946" width="320" height="32" fill="#f8fafc" stroke="#e2e8f0" stroke-width="0.8"/>
<text x="588" y="964" font-size="9" fill="#334155">success/empty/failed/timeout/interrupted→24-11</text>
<rect x="900" y="946" width="190" height="32" fill="#f8fafc" stroke="#e2e8f0" stroke-width="0.8"/>
<text x="908" y="964" font-size="9" fill="#334155">㉔研发</text>
<rect x="1090" y="946" width="490" height="32" fill="#f8fafc" stroke="#e2e8f0" stroke-width="0.8"/>
<text x="1098" y="964" font-size="9" fill="#dc2626">timeout禁写"无异常"·failed不触发主动服务</text>

<!-- 24-11 -->
<rect x="40" y="978" width="200" height="38" fill="#fff" stroke="#e2e8f0" stroke-width="0.8"/>
<text x="48" y="996" font-size="9.5" font-weight="bold" fill="#0f172a">24-11 结果回写·上报</text>
<rect x="240" y="978" width="340" height="38" fill="#fff" stroke="#e2e8f0" stroke-width="0.8"/>
<text x="248" y="996" font-size="9" fill="#334155">24-9归一后的结果</text>
<rect x="580" y="978" width="320" height="38" fill="#fff" stroke="#e2e8f0" stroke-width="0.8"/>
<text x="588" y="990" font-size="9" fill="#334155">写④信号库→上报㉑Context</text>
<text x="588" y="1004" font-size="8" fill="#dc2626">铁律②:绝不直推Advisor/Director</text>
<rect x="900" y="978" width="190" height="38" fill="#fff" stroke="#e2e8f0" stroke-width="0.8"/>
<text x="908" y="996" font-size="9" fill="#334155">㉔研发·泽民定脱敏</text>
<rect x="1090" y="978" width="490" height="38" fill="#fff" stroke="#e2e8f0" stroke-width="0.8"/>
<text x="1098" y="996" font-size="9" fill="#334155">断网存本地缓存队列·恢复后补传·状态→事件组装在云端15-13做</text>

<!-- ★ 6.22 新增分隔线 -->
<rect x="40" y="1016" width="1540" height="22" fill="#dc2626"/><text x="52" y="1031" font-size="11" font-weight="bold" fill="#fff">🔴 6.22 新增 2 原子</text>

<!-- 24-13 -->
<rect x="40" y="1038" width="200" height="44" fill="#fef2f2" stroke="#dc2626" stroke-width="1.2"/>
<text x="48" y="1054" font-size="9.5" font-weight="bold" fill="#dc2626">24-13 任务中心端云同步</text>
<text x="48" y="1068" font-size="8" fill="#991b1b">🔴6.22 佳杰新依赖</text>
<rect x="240" y="1038" width="340" height="44" fill="#fef2f2" stroke="#dc2626" stroke-width="1.2"/>
<text x="248" y="1054" font-size="9" fill="#334155">24-2持久库+云端㉓任务中心双向同步</text>
<rect x="580" y="1038" width="320" height="44" fill="#fef2f2" stroke="#dc2626" stroke-width="1.2"/>
<text x="588" y="1054" font-size="9" fill="#334155">任务级vs感知级·enable/disable/删除</text>
<rect x="900" y="1038" width="190" height="44" fill="#fef2f2" stroke="#dc2626" stroke-width="1.2"/>
<text x="908" y="1054" font-size="9" fill="#334155">㉔研发·找施佳杰对齐</text>
<rect x="1090" y="1038" width="490" height="44" fill="#fef2f2" stroke="#dc2626" stroke-width="1.2"/>
<text x="1098" y="1054" font-size="9" fill="#dc2626">佳杰数据只从端侧取·写接口+双向同步⚠</text>

<!-- 24-14 -->
<rect x="40" y="1082" width="200" height="44" fill="#fef2f2" stroke="#dc2626" stroke-width="1.2"/>
<text x="48" y="1098" font-size="9.5" font-weight="bold" fill="#dc2626">24-14 通用视觉通道</text>
<text x="48" y="1112" font-size="8" fill="#991b1b">🔴6.22 端侧泛化感知</text>
<rect x="240" y="1082" width="340" height="44" fill="#fef2f2" stroke="#dc2626" stroke-width="1.2"/>
<text x="248" y="1098" font-size="9" fill="#334155">承接15-15的通用视觉SP</text>
<rect x="580" y="1082" width="320" height="44" fill="#fef2f2" stroke="#dc2626" stroke-width="1.2"/>
<text x="588" y="1098" font-size="9" fill="#334155">增量prompt+舱内静/动/舱外+动态观测上报</text>
<rect x="900" y="1082" width="190" height="44" fill="#fef2f2" stroke="#dc2626" stroke-width="1.2"/>
<text x="908" y="1098" font-size="9" fill="#334155">㉔研发·找丁彬/佳杰</text>
<rect x="1090" y="1082" width="490" height="44" fill="#fef2f2" stroke="#dc2626" stroke-width="1.2"/>
<text x="1098" y="1098" font-size="9" fill="#334155">覆盖prompt会丢原感知→必须增量·三类分舱规则</text>

<!-- ===== 已移交 CDC（灰色参考） ===== -->
<rect x="40" y="1140" width="1540" height="22" fill="#94a3b8"/><text x="52" y="1156" font-size="11" font-weight="bold" fill="#fff">已移交赛力斯 CDC 底软 · 从端侧删除 5 原子（6.22 仁杰拍板）</text>

<rect x="40" y="1162" width="200" height="28" fill="#f1f5f9" stroke="#cbd5e1" stroke-width="0.6"/>
<text x="48" y="1180" font-size="9" fill="#94a3b8"><tspan text-decoration="line-through">原24-3 信号扫描</tspan></text>
<rect x="240" y="1162" width="340" height="28" fill="#f1f5f9" stroke="#cbd5e1" stroke-width="0.6"/>
<text x="248" y="1180" font-size="9" fill="#94a3b8">读端信号库快照·500ms对齐窗口 → 归CDC固定判定</text>
<rect x="580" y="1162" width="1000" height="28" fill="#f1f5f9" stroke="#cbd5e1" stroke-width="0.6"/>
<text x="588" y="1180" font-size="9" fill="#94a3b8">仁杰:"常驻/固定/标配/key-value→CDC·不走触发器" 西钺:"不要开发两个触发器"</text>

<rect x="40" y="1190" width="200" height="28" fill="#f8fafc" stroke="#cbd5e1" stroke-width="0.6"/>
<text x="48" y="1208" font-size="9" fill="#94a3b8"><tspan text-decoration="line-through">原24-4 两级判定</tspan></text>
<rect x="240" y="1190" width="340" height="28" fill="#f8fafc" stroke="#cbd5e1" stroke-width="0.6"/>
<text x="248" y="1208" font-size="9" fill="#94a3b8">运行时段→触发条件 → 归CDC固定判定</text>
<rect x="580" y="1190" width="1000" height="28" fill="#f8fafc" stroke="#cbd5e1" stroke-width="0.6"/>
<text x="588" y="1208" font-size="9" fill="#94a3b8">举例:起步安全/上下车安全/睡眠提醒/无感迎宾/充电大师/哨兵</text>

<rect x="40" y="1218" width="200" height="28" fill="#f1f5f9" stroke="#cbd5e1" stroke-width="0.6"/>
<text x="48" y="1236" font-size="9" fill="#94a3b8"><tspan text-decoration="line-through">原24-6 防抖冷却</tspan></text>
<rect x="240" y="1218" width="340" height="28" fill="#f1f5f9" stroke="#cbd5e1" stroke-width="0.6"/>
<text x="248" y="1236" font-size="9" fill="#94a3b8">端侧数值防抖·固定场景冷却 → 归CDC</text>
<rect x="580" y="1218" width="1000" height="28" fill="#f1f5f9" stroke="#cbd5e1" stroke-width="0.6"/>
<text x="588" y="1236" font-size="9" fill="#94a3b8">动态场景防抖/冷却由云端15-6/15-7做</text>

<rect x="40" y="1246" width="200" height="28" fill="#f8fafc" stroke="#cbd5e1" stroke-width="0.6"/>
<text x="48" y="1264" font-size="9" fill="#94a3b8"><tspan text-decoration="line-through">原24-7 优先级仲裁</tspan></text>
<rect x="240" y="1246" width="340" height="28" fill="#f8fafc" stroke="#cbd5e1" stroke-width="0.6"/>
<text x="248" y="1264" font-size="9" fill="#94a3b8">本地资源抢占 → 实际归AIBox任务调度(佳杰)</text>
<rect x="580" y="1246" width="1000" height="28" fill="#f8fafc" stroke="#cbd5e1" stroke-width="0.6"/>
<text x="588" y="1264" font-size="9" fill="#94a3b8">业务语义仲裁在云端15-8做·端侧不做业务仲裁</text>

<rect x="40" y="1274" width="200" height="28" fill="#f1f5f9" stroke="#cbd5e1" stroke-width="0.6"/>
<text x="48" y="1292" font-size="9" fill="#94a3b8"><tspan text-decoration="line-through">原24-10 阈值穿越</tspan></text>
<rect x="240" y="1274" width="340" height="28" fill="#f1f5f9" stroke="#cbd5e1" stroke-width="0.6"/>
<text x="248" y="1292" font-size="9" fill="#94a3b8">last=F&amp;this=T上升沿 → 逻辑上移云端15-13</text>
<rect x="580" y="1274" width="1000" height="28" fill="#f1f5f9" stroke="#cbd5e1" stroke-width="0.6"/>
<text x="588" y="1292" font-size="9" fill="#94a3b8">端模只报客观状态·"状态→事件"由云端15-13组装push</text>

</svg>
