<svg xmlns="http://www.w3.org/2000/svg" viewBox="0 0 2420 2060" font-family="-apple-system,PingFang SC,Microsoft YaHei,sans-serif">
<defs>
<marker id="ar-7c3aed" markerWidth="10" markerHeight="8" refX="8" refY="4" orient="auto"><path d="M0,0 L9,4 L0,8 z" fill="#7c3aed"/></marker>
<marker id="ar-a16207" markerWidth="10" markerHeight="8" refX="8" refY="4" orient="auto"><path d="M0,0 L9,4 L0,8 z" fill="#a16207"/></marker>
<marker id="ar-ea580c" markerWidth="10" markerHeight="8" refX="8" refY="4" orient="auto"><path d="M0,0 L9,4 L0,8 z" fill="#ea580c"/></marker>
<marker id="ar-dc2626" markerWidth="10" markerHeight="8" refX="8" refY="4" orient="auto"><path d="M0,0 L9,4 L0,8 z" fill="#dc2626"/></marker>
<marker id="ar-16a34a" markerWidth="10" markerHeight="8" refX="8" refY="4" orient="auto"><path d="M0,0 L9,4 L0,8 z" fill="#16a34a"/></marker>
<marker id="ar-2563eb" markerWidth="10" markerHeight="8" refX="8" refY="4" orient="auto"><path d="M0,0 L9,4 L0,8 z" fill="#2563eb"/></marker>
<marker id="ar-475569" markerWidth="10" markerHeight="8" refX="8" refY="4" orient="auto"><path d="M0,0 L9,4 L0,8 z" fill="#475569"/></marker>
<filter id="sh" x="-5%" y="-5%" width="110%" height="120%"><feDropShadow dx="0" dy="1" stdDeviation="1.1" flood-color="#000" flood-opacity="0.13"/></filter></defs>
<rect width="2420" height="2060" fill="#ffffff"/>
<text x="1210.0" y="32" text-anchor="middle" font-size="21" font-weight="bold" fill="#0f172a">触发器模块 · 原子级大图（⚠旧版:此图仍为11+12·6.22已更新为云端15+端侧9·详见"原子级详解.svg"）</text>
<line x1="620" y1="48" x2="644" y2="48" stroke="#7c3aed" stroke-width="3"/><text x="650" y="51" font-size="10.5" font-weight="bold" fill="#7c3aed">注册流</text>
<line x1="890" y1="48" x2="914" y2="48" stroke="#a16207" stroke-width="3"/><text x="920" y="51" font-size="10.5" font-weight="bold" fill="#a16207">信号流</text>
<line x1="1160" y1="48" x2="1184" y2="48" stroke="#ea580c" stroke-width="3"/><text x="1190" y="51" font-size="10.5" font-weight="bold" fill="#ea580c">引擎判定流</text>
<line x1="1430" y1="48" x2="1454" y2="48" stroke="#dc2626" stroke-width="3"/><text x="1460" y="51" font-size="10.5" font-weight="bold" fill="#dc2626">下发流(端云·粗)</text>
<line x1="1700" y1="48" x2="1724" y2="48" stroke="#16a34a" stroke-width="3"/><text x="1730" y="51" font-size="10.5" font-weight="bold" fill="#16a34a">命中输出流</text>
<line x1="1970" y1="48" x2="1994" y2="48" stroke="#2563eb" stroke-width="3"/><text x="2000" y="51" font-size="10.5" font-weight="bold" fill="#2563eb">执行流</text>
<rect x="30" y="160" width="260" height="56" rx="7" fill="#fff" stroke="#475569" stroke-width="1.4" filter="url(#sh)"/>
<text x="160.0" y="176" text-anchor="middle" font-size="11.5" font-weight="bold" fill="#0f172a">用户query → 拒识仲裁</text>
<text x="38" y="191" font-size="9" fill="#334155">分流:车控/非车控/条件·定时·持续</text>
<rect x="30" y="250" width="260" height="50" rx="7" fill="#fff" stroke="#7c3aed" stroke-width="1.4" filter="url(#sh)"/>
<text x="160.0" y="266" text-anchor="middle" font-size="11.5" font-weight="bold" fill="#0f172a">意图解析[需2]</text>
<text x="38" y="281" font-size="9" fill="#334155">条件话→触发器协议</text>
<rect x="30" y="338" width="260" height="66" rx="7" fill="#fff" stroke="#7c3aed" stroke-width="1.4" filter="url(#sh)"/>
<text x="160.0" y="354" text-anchor="middle" font-size="11.5" font-weight="bold" fill="#0f172a">火山后台/规则配置[需1]</text>
<text x="38" y="369" font-size="8.8" fill="#334155">6API/DSL·签名·产品预设静态场景</text>
<rect x="30" y="440" width="260" height="72" rx="7" fill="#fff" stroke="#7c3aed" stroke-width="1.4" filter="url(#sh)"/>
<text x="160.0" y="456" text-anchor="middle" font-size="11.5" font-weight="bold" fill="#0f172a">Advisor/Planner（注册源）</text>
<text x="38" y="471" font-size="8.6" fill="#334155">动态:把"盯着X"拆成条件任务</text>
<text x="38" y="483.5" font-size="8.6" fill="#334155">4任务:条件/定时/VLM/长时</text>
<rect x="30" y="560" width="260" height="86" rx="7" fill="#fff" stroke="#a16207" stroke-width="1.4" filter="url(#sh)"/>
<text x="160.0" y="576" text-anchor="middle" font-size="11.5" font-weight="bold" fill="#0f172a">信号库（端④+云⑫）</text>
<text x="38" y="591" font-size="8.3" fill="#334155">标准化快照 key/value/source/ts</text>
<text x="38" y="603.5" font-size="8.3" fill="#334155">端状态/VLM/POI/围栏/时间/音频</text>
<text x="38" y="616.0" font-size="8.3" fill="#334155">只读库,不读裸源</text>
<rect x="318" y="150" width="492" height="930" rx="10" fill="#fff7ed" stroke="#ea580c" stroke-width="2.2"/>
<text x="564" y="172" text-anchor="middle" font-size="14" font-weight="bold" fill="#9a3412">☁ 云端触发器（注册·判定·仲裁·分类·下发）</text>
<rect x="336" y="186" width="456" height="66" rx="6" fill="#fffdf8" stroke="#ea580c" stroke-width="1.5" filter="url(#sh)"/>
<circle cx="350" cy="201" r="10" fill="#ea580c"/><text x="350" y="205" text-anchor="middle" font-size="9.5" font-weight="bold" fill="#fff">C0</text>
<text x="365" y="204" font-size="11.5" font-weight="bold" fill="#0f172a">注册接收&amp;校验</text>
<text x="345" y="220" font-size="8.7" fill="#475569">接收动态注册→iCanDo/select/create</text>
<text x="345" y="236" font-size="8.5" fill="#dc2626">负责 兰若/研发 · ⚠接口协议</text>
<rect x="336" y="262" width="456" height="66" rx="6" fill="#fffdf8" stroke="#ea580c" stroke-width="1.5" filter="url(#sh)"/>
<circle cx="350" cy="277" r="10" fill="#ea580c"/><text x="350" y="281" text-anchor="middle" font-size="9.5" font-weight="bold" fill="#fff">C1</text>
<text x="365" y="280" font-size="11.5" font-weight="bold" fill="#0f172a">场景库/规则加载</text>
<text x="345" y="296" font-size="8.7" fill="#475569">静态规则+动态任务+系统预设+灰度</text>
<text x="345" y="312" font-size="8.5" fill="#dc2626">负责 叶芳(录入) · ⚠后台权限</text>
<rect x="336" y="338" width="456" height="66" rx="6" fill="#fffdf8" stroke="#ea580c" stroke-width="1.5" filter="url(#sh)"/>
<circle cx="350" cy="353" r="10" fill="#ea580c"/><text x="350" y="357" text-anchor="middle" font-size="9.5" font-weight="bold" fill="#fff">C2</text>
<text x="365" y="356" font-size="11.5" font-weight="bold" fill="#0f172a">信号扫描器</text>
<text x="345" y="372" font-size="8.7" fill="#475569">订阅信号库·信号更新/周期5s</text>
<text x="345" y="388" font-size="8.5" fill="#64748b">负责 刘洋</text>
<rect x="336" y="414" width="456" height="66" rx="6" fill="#fffdf8" stroke="#ea580c" stroke-width="1.5" filter="url(#sh)"/>
<circle cx="350" cy="429" r="10" fill="#ea580c"/><text x="350" y="433" text-anchor="middle" font-size="9.5" font-weight="bold" fill="#fff">C3</text>
<text x="365" y="432" font-size="11.5" font-weight="bold" fill="#0f172a">条件判定</text>
<text x="345" y="448" font-size="8.7" fill="#475569">规则(=/&gt;/range/变更为/持续时长)+VLM语义+group</text>
<text x="345" y="464" font-size="8.5" fill="#dc2626">负责 研发+任军 · ⚠运算符</text>
<rect x="336" y="490" width="456" height="66" rx="6" fill="#fffdf8" stroke="#ea580c" stroke-width="1.5" filter="url(#sh)"/>
<circle cx="350" cy="505" r="10" fill="#ea580c"/><text x="350" y="509" text-anchor="middle" font-size="9.5" font-weight="bold" fill="#fff">C4</text>
<text x="365" y="508" font-size="11.5" font-weight="bold" fill="#0f172a">数值抖动过滤</text>
<text x="345" y="524" font-size="8.7" fill="#475569">debounce·区间/周期去重</text>
<text x="345" y="540" font-size="8.5" fill="#64748b">负责 研发</text>
<rect x="336" y="566" width="456" height="66" rx="6" fill="#fffdf8" stroke="#ea580c" stroke-width="1.5" filter="url(#sh)"/>
<circle cx="350" cy="581" r="10" fill="#ea580c"/><text x="350" y="585" text-anchor="middle" font-size="9.5" font-weight="bold" fill="#fff">C5</text>
<text x="365" y="584" font-size="11.5" font-weight="bold" fill="#0f172a">冷却&amp;频控</text>
<text x="345" y="600" font-size="8.7" fill="#475569">cooldown/max_execution/execute_policy</text>
<text x="345" y="616" font-size="8.5" fill="#64748b">负责 研发</text>
<rect x="336" y="642" width="456" height="66" rx="6" fill="#fffdf8" stroke="#ea580c" stroke-width="1.5" filter="url(#sh)"/>
<circle cx="350" cy="657" r="10" fill="#ea580c"/><text x="350" y="661" text-anchor="middle" font-size="9.5" font-weight="bold" fill="#fff">C6</text>
<text x="365" y="660" font-size="11.5" font-weight="bold" fill="#0f172a">优先级&amp;冲突仲裁</text>
<text x="345" y="676" font-size="8.7" fill="#475569">P0-P4(1-10·Planner最高)·互斥组</text>
<text x="345" y="692" font-size="8.5" fill="#64748b">负责 研发</text>
<rect x="336" y="718" width="456" height="66" rx="6" fill="#fffdf8" stroke="#ea580c" stroke-width="1.5" filter="url(#sh)"/>
<circle cx="350" cy="733" r="10" fill="#ea580c"/><text x="350" y="737" text-anchor="middle" font-size="9.5" font-weight="bold" fill="#fff">C7</text>
<text x="365" y="736" font-size="11.5" font-weight="bold" fill="#0f172a">端云分类[需9]</text>
<text x="345" y="752" font-size="8.7" fill="#475569">云端处理/下发端侧/VLM调度/本地兜底</text>
<text x="345" y="768" font-size="8.5" fill="#64748b">负责 泽民(原则)+研发 · 架构级</text>
<rect x="336" y="794" width="456" height="66" rx="6" fill="#fffdf8" stroke="#ea580c" stroke-width="1.5" filter="url(#sh)"/>
<circle cx="350" cy="809" r="10" fill="#ea580c"/><text x="350" y="813" text-anchor="middle" font-size="9.5" font-weight="bold" fill="#fff">C8</text>
<text x="365" y="812" font-size="11.5" font-weight="bold" fill="#0f172a">标准事件生成</text>
<text x="345" y="828" font-size="8.7" fill="#475569">task_id/snapshot/need_second_reasoning</text>
<text x="345" y="844" font-size="8.5" fill="#64748b">负责 研发</text>
<rect x="336" y="870" width="456" height="66" rx="6" fill="#fffdf8" stroke="#ea580c" stroke-width="1.5" filter="url(#sh)"/>
<circle cx="350" cy="885" r="10" fill="#ea580c"/><text x="350" y="889" text-anchor="middle" font-size="9.5" font-weight="bold" fill="#fff">C9</text>
<text x="365" y="888" font-size="11.5" font-weight="bold" fill="#0f172a">Callback Router</text>
<text x="345" y="904" font-size="8.7" fill="#475569">路由→Director/动态Advisor/Context/任务中心/端</text>
<text x="345" y="920" font-size="8.5" fill="#dc2626">负责 兰若 · ⚠callback ACK/重试</text>
<rect x="336" y="946" width="456" height="66" rx="6" fill="#fffdf8" stroke="#ea580c" stroke-width="1.5" filter="url(#sh)"/>
<circle cx="350" cy="961" r="10" fill="#ea580c"/><text x="350" y="965" text-anchor="middle" font-size="9.5" font-weight="bold" fill="#fff">C10</text>
<text x="365" y="964" font-size="11.5" font-weight="bold" fill="#0f172a">场景下发器</text>
<text x="345" y="980" font-size="8.7" fill="#475569">全量/增量/灰度 → 端侧</text>
<text x="345" y="996" font-size="8.5" fill="#64748b">负责 研发</text>
<path d="M 564.0,252 L 564.0,262" fill="none" stroke="#ea580c" stroke-width="1.6" marker-end="url(#ar-ea580c)"/>
<rect x="681.0" y="249" width="50.0" height="15" rx="3" fill="#fff" stroke="#ea580c" stroke-width="0.5" opacity="0.97"/>
<text x="706" y="260" text-anchor="middle" font-size="8.6" fill="#ea580c">校验通过→入库</text>
<path d="M 564.0,328 L 564.0,338" fill="none" stroke="#ea580c" stroke-width="1.6" marker-end="url(#ar-ea580c)"/>
<rect x="681.0" y="325" width="50.0" height="15" rx="3" fill="#fff" stroke="#ea580c" stroke-width="0.5" opacity="0.97"/>
<text x="706" y="336" text-anchor="middle" font-size="8.6" fill="#ea580c">按规则订阅信号</text>
<path d="M 564.0,404 L 564.0,414" fill="none" stroke="#ea580c" stroke-width="1.6" marker-end="url(#ar-ea580c)"/>
<rect x="672.0" y="401" width="68.0" height="15" rx="3" fill="#fff" stroke="#ea580c" stroke-width="0.5" opacity="0.97"/>
<text x="706" y="412" text-anchor="middle" font-size="8.6" fill="#ea580c">信号变了→取快照求值</text>
<path d="M 564.0,480 L 564.0,490" fill="none" stroke="#ea580c" stroke-width="1.6" marker-end="url(#ar-ea580c)"/>
<rect x="672.0" y="477" width="68.0" height="15" rx="3" fill="#fff" stroke="#ea580c" stroke-width="0.5" opacity="0.97"/>
<text x="706" y="488" text-anchor="middle" font-size="8.6" fill="#ea580c">条件全达成→生成候选</text>
<path d="M 564.0,556 L 564.0,566" fill="none" stroke="#ea580c" stroke-width="1.6" marker-end="url(#ar-ea580c)"/>
<rect x="684.0" y="553" width="44.0" height="15" rx="3" fill="#fff" stroke="#ea580c" stroke-width="0.5" opacity="0.97"/>
<text x="706" y="564" text-anchor="middle" font-size="8.6" fill="#ea580c">去重→查频控</text>
<path d="M 564.0,632 L 564.0,642" fill="none" stroke="#ea580c" stroke-width="1.6" marker-end="url(#ar-ea580c)"/>
<rect x="678.0" y="629" width="56.0" height="15" rx="3" fill="#fff" stroke="#ea580c" stroke-width="0.5" opacity="0.97"/>
<text x="706" y="640" text-anchor="middle" font-size="8.6" fill="#ea580c">过频控→排优先级</text>
<path d="M 564.0,708 L 564.0,718" fill="none" stroke="#ea580c" stroke-width="1.6" marker-end="url(#ar-ea580c)"/>
<rect x="678.0" y="705" width="56.0" height="15" rx="3" fill="#fff" stroke="#ea580c" stroke-width="0.5" opacity="0.97"/>
<text x="706" y="716" text-anchor="middle" font-size="8.6" fill="#ea580c">定胜出→判端/云</text>
<path d="M 564.0,784 L 564.0,794" fill="none" stroke="#ea580c" stroke-width="1.6" marker-end="url(#ar-ea580c)"/>
<rect x="669.0" y="781" width="74.0" height="15" rx="3" fill="#fff" stroke="#ea580c" stroke-width="0.5" opacity="0.97"/>
<text x="706" y="792" text-anchor="middle" font-size="8.6" fill="#ea580c">(云端处理)→生成事件</text>
<path d="M 564.0,860 L 564.0,870" fill="none" stroke="#ea580c" stroke-width="1.6" marker-end="url(#ar-ea580c)"/>
<rect x="678.0" y="857" width="56.0" height="15" rx="3" fill="#fff" stroke="#ea580c" stroke-width="0.5" opacity="0.97"/>
<text x="706" y="868" text-anchor="middle" font-size="8.6" fill="#ea580c">事件→决定谁消费</text>
<path d="M 336,751.0 L 326,751.0 L 326,979.0 L 336,979.0" fill="none" stroke="#ea580c" stroke-width="1.6" marker-end="url(#ar-ea580c)"/>
<rect x="302.0" y="822" width="56.0" height="15" rx="3" fill="#fff" stroke="#ea580c" stroke-width="0.5" opacity="0.97"/>
<text x="330" y="833" text-anchor="middle" font-size="8.6" fill="#ea580c">(需端侧)→下发</text>
<rect x="858" y="150" width="492" height="1006" rx="10" fill="#fff7ed" stroke="#ea580c" stroke-width="2.2"/>
<text x="1104" y="172" text-anchor="middle" font-size="14" font-weight="bold" fill="#9a3412">▣ 端侧触发器（弱网履约·判定·调度·执行） [需9·待建]</text>
<rect x="876" y="186" width="456" height="66" rx="6" fill="#fffdf8" stroke="#ea580c" stroke-width="1.5" filter="url(#sh)"/>
<circle cx="890" cy="201" r="10" fill="#ea580c"/><text x="890" y="205" text-anchor="middle" font-size="9.5" font-weight="bold" fill="#fff">E1</text>
<text x="905" y="204" font-size="11.5" font-weight="bold" fill="#0f172a">端侧规则接收</text>
<text x="885" y="220" font-size="8.7" fill="#475569">云端下发/本地生效/灰度/回滚</text>
<text x="885" y="236" font-size="8.5" fill="#dc2626">负责 刘洋 · ⚠端侧SDK现状(需9前置)</text>
<rect x="876" y="262" width="456" height="66" rx="6" fill="#fffdf8" stroke="#ea580c" stroke-width="1.5" filter="url(#sh)"/>
<circle cx="890" cy="277" r="10" fill="#ea580c"/><text x="890" y="281" text-anchor="middle" font-size="9.5" font-weight="bold" fill="#fff">E2</text>
<text x="905" y="280" font-size="11.5" font-weight="bold" fill="#0f172a">本地信号扫描</text>
<text x="885" y="296" font-size="8.7" fill="#475569">读端信号库快照·500ms对齐</text>
<text x="885" y="312" font-size="8.5" fill="#64748b">负责 端侧研发</text>
<rect x="876" y="338" width="456" height="66" rx="6" fill="#fffdf8" stroke="#ea580c" stroke-width="1.5" filter="url(#sh)"/>
<circle cx="890" cy="353" r="10" fill="#ea580c"/><text x="890" y="357" text-anchor="middle" font-size="9.5" font-weight="bold" fill="#fff">E3</text>
<text x="905" y="356" font-size="11.5" font-weight="bold" fill="#0f172a">两级条件判定</text>
<text x="885" y="372" font-size="8.7" fill="#475569">运行时段(离/上/停/行)→触发条件</text>
<text x="885" y="388" font-size="8.5" fill="#64748b">负责 端侧研发</text>
<rect x="876" y="414" width="456" height="66" rx="6" fill="#fffdf8" stroke="#ea580c" stroke-width="1.5" filter="url(#sh)"/>
<circle cx="890" cy="429" r="10" fill="#ea580c"/><text x="890" y="433" text-anchor="middle" font-size="9.5" font-weight="bold" fill="#fff">E4</text>
<text x="905" y="432" font-size="11.5" font-weight="bold" fill="#0f172a">本地定时器</text>
<text x="885" y="448" font-size="8.7" fill="#475569">一次性/循环/倒计时/分钟合并</text>
<text x="885" y="464" font-size="8.5" fill="#dc2626">负责 端侧研发 · ⚠持久化/上下电恢复</text>
<rect x="876" y="490" width="456" height="66" rx="6" fill="#fffdf8" stroke="#ea580c" stroke-width="1.5" filter="url(#sh)"/>
<circle cx="890" cy="505" r="10" fill="#ea580c"/><text x="890" y="509" text-anchor="middle" font-size="9.5" font-weight="bold" fill="#fff">E5</text>
<text x="905" y="508" font-size="11.5" font-weight="bold" fill="#0f172a">优先级仲裁</text>
<text x="885" y="524" font-size="8.7" fill="#475569">P0-P4·互斥 VLM_CABIN/VLM_FRONT</text>
<text x="885" y="540" font-size="8.5" fill="#64748b">负责 研发</text>
<rect x="876" y="566" width="456" height="66" rx="6" fill="#fffdf8" stroke="#ea580c" stroke-width="1.5" filter="url(#sh)"/>
<circle cx="890" cy="581" r="10" fill="#ea580c"/><text x="890" y="585" text-anchor="middle" font-size="9.5" font-weight="bold" fill="#fff">E6</text>
<text x="905" y="584" font-size="11.5" font-weight="bold" fill="#0f172a">冷却/Always-on</text>
<text x="885" y="600" font-size="8.7" fill="#475569">P0不冷却·闲时持续 3s/5s</text>
<text x="885" y="616" font-size="8.5" fill="#64748b">负责 研发</text>
<rect x="876" y="642" width="456" height="66" rx="6" fill="#fffdf8" stroke="#ea580c" stroke-width="1.5" filter="url(#sh)"/>
<circle cx="890" cy="657" r="10" fill="#ea580c"/><text x="890" y="661" text-anchor="middle" font-size="9.5" font-weight="bold" fill="#fff">E7</text>
<text x="905" y="660" font-size="11.5" font-weight="bold" fill="#0f172a">运行指令下发</text>
<text x="885" y="676" font-size="8.7" fill="#475569">7字段:task_id/goal/priority/timeout/mutex/source/expire</text>
<text x="885" y="692" font-size="8.5" fill="#64748b">负责 研发</text>
<rect x="876" y="718" width="456" height="66" rx="6" fill="#fffdf8" stroke="#ea580c" stroke-width="1.5" filter="url(#sh)"/>
<circle cx="890" cy="733" r="10" fill="#ea580c"/><text x="890" y="737" text-anchor="middle" font-size="9.5" font-weight="bold" fill="#fff">E8</text>
<text x="905" y="736" font-size="11.5" font-weight="bold" fill="#0f172a">VLM调度执行</text>
<text x="885" y="752" font-size="8.7" fill="#475569">取图→VQA→阈值穿越(last=F&amp;this=T)→五态</text>
<text x="885" y="768" font-size="8.5" fill="#dc2626">负责 西钺+研发 · ⚠并发1?/图片服务</text>
<rect x="876" y="794" width="456" height="66" rx="6" fill="#fffdf8" stroke="#ea580c" stroke-width="1.5" filter="url(#sh)"/>
<circle cx="890" cy="809" r="10" fill="#ea580c"/><text x="890" y="813" text-anchor="middle" font-size="9.5" font-weight="bold" fill="#fff">E9</text>
<text x="905" y="812" font-size="11.5" font-weight="bold" fill="#0f172a">抢占恢复</text>
<text x="885" y="828" font-size="8.7" fill="#475569">断点续跑/超时释放·超时不写伪果</text>
<text x="885" y="844" font-size="8.5" fill="#64748b">负责 研发</text>
<rect x="876" y="870" width="456" height="66" rx="6" fill="#fffdf8" stroke="#ea580c" stroke-width="1.5" filter="url(#sh)"/>
<circle cx="890" cy="885" r="10" fill="#ea580c"/><text x="890" y="889" text-anchor="middle" font-size="9.5" font-weight="bold" fill="#fff">E10</text>
<text x="905" y="888" font-size="11.5" font-weight="bold" fill="#0f172a">结果回写</text>
<text x="885" y="904" font-size="8.7" fill="#475569">写信号库(二次触发)→上报Context</text>
<text x="885" y="920" font-size="8.5" fill="#64748b">负责 研发</text>
<rect x="876" y="946" width="456" height="66" rx="6" fill="#fffdf8" stroke="#ea580c" stroke-width="1.5" filter="url(#sh)"/>
<circle cx="890" cy="961" r="10" fill="#ea580c"/><text x="890" y="965" text-anchor="middle" font-size="9.5" font-weight="bold" fill="#fff">E11</text>
<text x="905" y="964" font-size="11.5" font-weight="bold" fill="#0f172a">动作执行</text>
<text x="885" y="980" font-size="8.7" fill="#475569">车控/TTS/弱网闭环(端本地直接做)</text>
<text x="885" y="996" font-size="8.5" fill="#dc2626">负责 端侧研发 · ⚠SDK能否直连</text>
<rect x="876" y="1022" width="456" height="66" rx="6" fill="#fffdf8" stroke="#ea580c" stroke-width="1.5" filter="url(#sh)"/>
<circle cx="890" cy="1037" r="10" fill="#ea580c"/><text x="890" y="1041" text-anchor="middle" font-size="9.5" font-weight="bold" fill="#fff">E12</text>
<text x="905" y="1040" font-size="11.5" font-weight="bold" fill="#0f172a">弱网兜底</text>
<text x="885" y="1056" font-size="8.7" fill="#475569">本地AI PUSH·网络恢复后同步</text>
<text x="885" y="1072" font-size="8.5" fill="#64748b">负责 端侧研发+豆包客户端</text>
<path d="M 1104.0,252 L 1104.0,262" fill="none" stroke="#ea580c" stroke-width="1.6" marker-end="url(#ar-ea580c)"/>
<rect x="1206.0" y="249" width="68.0" height="15" rx="3" fill="#fff" stroke="#ea580c" stroke-width="0.5" opacity="0.97"/>
<text x="1240" y="260" text-anchor="middle" font-size="8.6" fill="#ea580c">规则生效→订阅端信号</text>
<path d="M 1104.0,328 L 1104.0,338" fill="none" stroke="#ea580c" stroke-width="1.6" marker-end="url(#ar-ea580c)"/>
<rect x="1215.0" y="325" width="50.0" height="15" rx="3" fill="#fff" stroke="#ea580c" stroke-width="0.5" opacity="0.97"/>
<text x="1240" y="336" text-anchor="middle" font-size="8.6" fill="#ea580c">快照→两级判定</text>
<path d="M 1104.0,404 L 1104.0,414" fill="none" stroke="#ea580c" stroke-width="1.6" marker-end="url(#ar-ea580c)"/>
<rect x="1206.0" y="401" width="68.0" height="15" rx="3" fill="#fff" stroke="#ea580c" stroke-width="0.5" opacity="0.97"/>
<text x="1240" y="412" text-anchor="middle" font-size="8.6" fill="#ea580c">(定时类)→挂定时器</text>
<path d="M 1104.0,480 L 1104.0,490" fill="none" stroke="#ea580c" stroke-width="1.6" marker-end="url(#ar-ea580c)"/>
<rect x="1215.0" y="477" width="50.0" height="15" rx="3" fill="#fff" stroke="#ea580c" stroke-width="0.5" opacity="0.97"/>
<text x="1240" y="488" text-anchor="middle" font-size="8.6" fill="#ea580c">命中→排优先级</text>
<path d="M 1104.0,556 L 1104.0,566" fill="none" stroke="#ea580c" stroke-width="1.6" marker-end="url(#ar-ea580c)"/>
<rect x="1215.0" y="553" width="50.0" height="15" rx="3" fill="#fff" stroke="#ea580c" stroke-width="0.5" opacity="0.97"/>
<text x="1240" y="564" text-anchor="middle" font-size="8.6" fill="#ea580c">互斥检查→冷却</text>
<path d="M 1104.0,632 L 1104.0,642" fill="none" stroke="#ea580c" stroke-width="1.6" marker-end="url(#ar-ea580c)"/>
<rect x="1209.0" y="629" width="62.0" height="15" rx="3" fill="#fff" stroke="#ea580c" stroke-width="0.5" opacity="0.97"/>
<text x="1240" y="640" text-anchor="middle" font-size="8.6" fill="#ea580c">仲裁通过→下发指令</text>
<path d="M 1104.0,708 L 1104.0,718" fill="none" stroke="#ea580c" stroke-width="1.6" marker-end="url(#ar-ea580c)"/>
<rect x="1212.0" y="705" width="56.0" height="15" rx="3" fill="#fff" stroke="#ea580c" stroke-width="0.5" opacity="0.97"/>
<text x="1240" y="716" text-anchor="middle" font-size="8.6" fill="#ea580c">告诉VLM看什么</text>
<path d="M 1104.0,784 L 1104.0,794" fill="none" stroke="#ea580c" stroke-width="1.6" marker-end="url(#ar-ea580c)"/>
<rect x="1218.0" y="781" width="44.0" height="15" rx="3" fill="#fff" stroke="#ea580c" stroke-width="0.5" opacity="0.97"/>
<text x="1240" y="792" text-anchor="middle" font-size="8.6" fill="#ea580c">执行/被抢占</text>
<path d="M 1104.0,860 L 1104.0,870" fill="none" stroke="#ea580c" stroke-width="1.6" marker-end="url(#ar-ea580c)"/>
<rect x="1212.0" y="857" width="56.0" height="15" rx="3" fill="#fff" stroke="#ea580c" stroke-width="0.5" opacity="0.97"/>
<text x="1240" y="868" text-anchor="middle" font-size="8.6" fill="#ea580c">终态→回写信号库</text>
<path d="M 1104.0,936 L 1104.0,946" fill="none" stroke="#ea580c" stroke-width="1.6" marker-end="url(#ar-ea580c)"/>
<rect x="1215.0" y="933" width="50.0" height="15" rx="3" fill="#fff" stroke="#ea580c" stroke-width="0.5" opacity="0.97"/>
<text x="1240" y="944" text-anchor="middle" font-size="8.6" fill="#ea580c">结果→执行动作</text>
<path d="M 1104.0,1012 L 1104.0,1022" fill="none" stroke="#ea580c" stroke-width="1.6" marker-end="url(#ar-ea580c)"/>
<rect x="1209.0" y="1009" width="62.0" height="15" rx="3" fill="#fff" stroke="#ea580c" stroke-width="0.5" opacity="0.97"/>
<text x="1240" y="1020" text-anchor="middle" font-size="8.6" fill="#ea580c">(弱网)→兜底推送</text>
<rect x="1410" y="180" width="300" height="68" rx="7" fill="#fff" stroke="#16a34a" stroke-width="1.4" filter="url(#sh)"/>
<text x="1560.0" y="196" text-anchor="middle" font-size="11.5" font-weight="bold" fill="#0f172a">Director 二次推理</text>
<text x="1418" y="211" font-size="8.7" fill="#334155">{talk_or_not,talk_content,action_list}</text>
<text x="1418" y="223.5" font-size="8.7" fill="#334155">只管"何时唤醒",决策回大脑</text>
<rect x="1410" y="278" width="300" height="54" rx="7" fill="#fff" stroke="#16a34a" stroke-width="1.4" filter="url(#sh)"/>
<text x="1560.0" y="294" text-anchor="middle" font-size="11.5" font-weight="bold" fill="#0f172a">静态/动态 Advisor</text>
<text x="1418" y="309" font-size="9" fill="#334155">消费事件→出advice(不控车)</text>
<rect x="1410" y="366" width="300" height="54" rx="7" fill="#fff" stroke="#16a34a" stroke-width="1.4" filter="url(#sh)"/>
<text x="1560.0" y="382" text-anchor="middle" font-size="11.5" font-weight="bold" fill="#0f172a">Context/任务中心</text>
<text x="1418" y="397" font-size="9" fill="#334155">端侧结果汇聚·上层从此消费</text>
<rect x="1410" y="600" width="300" height="60" rx="7" fill="#fff" stroke="#2563eb" stroke-width="1.4" filter="url(#sh)"/>
<text x="1560.0" y="616" text-anchor="middle" font-size="11.5" font-weight="bold" fill="#0f172a">感知器/VLM(端)</text>
<text x="1418" y="631" font-size="9" fill="#334155">取图/VQA·result+description</text>
<rect x="1410" y="740" width="300" height="66" rx="7" fill="#fff" stroke="#2563eb" stroke-width="1.4" filter="url(#sh)"/>
<text x="1560.0" y="756" text-anchor="middle" font-size="11.5" font-weight="bold" fill="#0f172a">执行端</text>
<text x="1418" y="771" font-size="9" fill="#334155">车控/TTS/机器人·弱网端侧闭环</text>
<rect x="1410" y="856" width="300" height="48" rx="7" fill="#fff" stroke="#475569" stroke-width="1.4" filter="url(#sh)"/>
<text x="1560.0" y="872" text-anchor="middle" font-size="11.5" font-weight="bold" fill="#0f172a">用户(听到/看到/生效)</text>
<path d="M 290,476.0 L 308,476 L 336,219.0" fill="none" stroke="#7c3aed" stroke-width="1.6" marker-end="url(#ar-7c3aed)"/>
<rect x="245.0" y="450" width="134.0" height="15" rx="3" fill="#fff" stroke="#7c3aed" stroke-width="0.5" opacity="0.97"/>
<text x="312" y="461" text-anchor="middle" font-size="8.6" fill="#7c3aed">动态注册:盯着X→条件任务(经云端中转⚠)</text>
<path d="M 290,275.0 L 300,275 L 316,200 L 336,225.0" fill="none" stroke="#7c3aed" stroke-width="1.6" marker-end="url(#ar-7c3aed)"/>
<rect x="269.0" y="248" width="62.0" height="15" rx="3" fill="#fff" stroke="#7c3aed" stroke-width="0.5" opacity="0.97"/>
<text x="300" y="259" text-anchor="middle" font-size="8.6" fill="#7c3aed">条件话→协议→注册</text>
<path d="M 290,371.0 L 312,371 L 336,295.0" fill="none" stroke="#7c3aed" stroke-width="1.6" marker-end="url(#ar-7c3aed)"/>
<rect x="288.0" y="348" width="56.0" height="15" rx="3" fill="#fff" stroke="#7c3aed" stroke-width="0.5" opacity="0.97"/>
<text x="316" y="359" text-anchor="middle" font-size="8.6" fill="#7c3aed">产品预设静态场景</text>
<path d="M 290,603.0 L 300,603 L 322,371.0 L 336,371.0" fill="none" stroke="#a16207" stroke-width="1.6" marker-end="url(#ar-a16207)"/>
<rect x="290.0" y="558" width="44.0" height="15" rx="3" fill="#fff" stroke="#a16207" stroke-width="0.5" opacity="0.97"/>
<text x="312" y="569" text-anchor="middle" font-size="8.6" fill="#a16207">实时信号快照</text>
<path d="M 160.0,646 L 160,720 L 160,1130 L 876,295.0 L 876,295.0" fill="none" stroke="#a16207" stroke-width="1.6" marker-end="url(#ar-a16207)"/>
<rect x="478.0" y="1128" width="44.0" height="15" rx="3" fill="#fff" stroke="#a16207" stroke-width="0.5" opacity="0.97"/>
<text x="500" y="1139" text-anchor="middle" font-size="8.6" fill="#a16207">端信号库快照</text>
<path d="M 792,979.0 L 876,219.0" fill="none" stroke="#dc2626" stroke-width="3.2" marker-end="url(#ar-dc2626)"/>
<rect x="775.0" y="961.0" width="116.0" height="15" rx="3" fill="#fff" stroke="#dc2626" stroke-width="0.5" opacity="0.97"/>
<text x="833" y="972.0" text-anchor="middle" font-size="8.6" fill="#dc2626">弱网也能跑:规则放端上(全/增/灰)</text>
<path d="M 792,903.0 L 820,903.0 L 820,1095 L 1362,1095 L 1390,245 L 1560.0,248" fill="none" stroke="#16a34a" stroke-width="1.6" marker-end="url(#ar-16a34a)"/>
<rect x="1038.0" y="1093" width="104.0" height="15" rx="3" fill="#fff" stroke="#16a34a" stroke-width="0.5" opacity="0.97"/>
<text x="1090" y="1104" text-anchor="middle" font-size="8.6" fill="#16a34a">trigger_event→大脑</text>
<path d="M 792,903.0 L 815,909.0 L 815,1115 L 1380,1115 L 1392,305 L 1410,305.0" fill="none" stroke="#16a34a" stroke-width="1.6" marker-end="url(#ar-16a34a)"/>
<rect x="1105.0" y="1113" width="110.0" height="15" rx="3" fill="#fff" stroke="#16a34a" stroke-width="0.5" opacity="0.97"/>
<text x="1160" y="1124" text-anchor="middle" font-size="8.6" fill="#16a34a">事件→Advisor出advice</text>
<path d="M 1332,903.0 L 1356,903.0 L 1382,393 L 1410,393.0" fill="none" stroke="#16a34a" stroke-width="1.6" marker-end="url(#ar-16a34a)"/>
<rect x="1301.0" y="482" width="122.0" height="15" rx="3" fill="#fff" stroke="#16a34a" stroke-width="0.5" opacity="0.97"/>
<text x="1362" y="493" text-anchor="middle" font-size="8.6" fill="#16a34a">端侧结果上报Context(不直推⚠)</text>
<path d="M 1332,675.0 L 1410,630.0" fill="none" stroke="#2563eb" stroke-width="1.6" marker-end="url(#ar-2563eb)"/>
<rect x="1337.0" y="659.0" width="74.0" height="15" rx="3" fill="#fff" stroke="#2563eb" stroke-width="0.5" opacity="0.97"/>
<text x="1374" y="670.0" text-anchor="middle" font-size="8.6" fill="#2563eb">运行指令→VLM看什么</text>
<path d="M 1560.0,660 L 1560,668 L 1358,883.0 L 876,903.0" fill="none" stroke="#2563eb" stroke-width="1.6" stroke-dasharray="4,3" marker-end="url(#ar-2563eb)"/>
<rect x="1483.0" y="682" width="44.0" height="15" rx="3" fill="#fff" stroke="#2563eb" stroke-width="0.5" opacity="0.97"/>
<text x="1505" y="693" text-anchor="middle" font-size="8.6" fill="#2563eb">识别结果回写</text>
<path d="M 1332,979.0 L 1362,979.0 L 1382,752 L 1410,773.0" fill="none" stroke="#2563eb" stroke-width="1.6" marker-end="url(#ar-2563eb)"/>
<rect x="1332.0" y="963.0" width="68.0" height="15" rx="3" fill="#fff" stroke="#2563eb" stroke-width="0.5" opacity="0.97"/>
<text x="1366" y="974.0" text-anchor="middle" font-size="8.6" fill="#2563eb">弱网直接控车/TTS</text>
<path d="M 1560.0,248 L 1480,248 L 1480,740 L 1560.0,740" fill="none" stroke="#2563eb" stroke-width="1.6" marker-end="url(#ar-2563eb)"/>
<rect x="1454.0" y="512" width="92.0" height="15" rx="3" fill="#fff" stroke="#2563eb" stroke-width="0.5" opacity="0.97"/>
<text x="1500" y="523" text-anchor="middle" font-size="8.6" fill="#2563eb">action_list→执行</text>
<path d="M 1560.0,806 L 1560.0,856" fill="none" stroke="#2563eb" stroke-width="1.6" marker-end="url(#ar-2563eb)"/>
<path d="M 1710,214.0 L 1730,214 L 1730,860 L 1710,880.0" fill="none" stroke="#16a34a" stroke-width="1.6" marker-end="url(#ar-16a34a)"/>
<rect x="1709.0" y="532" width="50.0" height="15" rx="3" fill="#fff" stroke="#16a34a" stroke-width="0.5" opacity="0.97"/>
<text x="1734" y="543" text-anchor="middle" font-size="8.6" fill="#16a34a">talk→播报</text>
<rect x="30" y="1190" width="900" height="800" rx="10" fill="#fff7ed" stroke="#ea580c" stroke-width="1.6"/>
<text x="48" y="1216" font-size="15" font-weight="bold" fill="#9a3412">C7 端云分类 · 决策树（胜出任务→分到哪条出口）</text>
<rect x="380" y="1230" width="200" height="50" rx="7" fill="#fffdf8" stroke="#ea580c" stroke-width="2.4" filter="url(#sh)"/>
<text x="480.0" y="1248" text-anchor="middle" font-size="12" font-weight="bold" fill="#0f172a">胜出任务(来自C6)</text>
<path d="M 480,1302.0 L 610.0,1340 L 480,1378.0 L 350.0,1340 Z" fill="#fff7ed" stroke="#ea580c" stroke-width="1.6" filter="url(#sh)"/>
<text x="480" y="1332" text-anchor="middle" font-size="9.3" font-weight="bold" fill="#9a3412">Q1 需复杂语义</text>
<text x="480" y="1345" text-anchor="middle" font-size="9.3" font-weight="bold" fill="#9a3412">/模型生成事件?</text>
<path d="M 480,1280 L 480,1302" fill="none" stroke="#475569" stroke-width="1.6" marker-end="url(#ar-475569)"/>
<rect x="700" y="1314" width="210" height="54" rx="7" fill="#eff6ff" stroke="#2563eb" stroke-width="1.4" filter="url(#sh)"/>
<text x="805.0" y="1332" text-anchor="middle" font-size="12" font-weight="bold" fill="#0f172a">→ 云端处理</text>
<text x="710" y="1348" font-size="9.5" fill="#334155">C8标准事件→C9→Director</text>
<path d="M 610,1340 L 700,1340" fill="none" stroke="#475569" stroke-width="1.6" marker-end="url(#ar-475569)"/>
<rect x="645.0" y="1322" width="14.0" height="15" rx="3" fill="#fff" stroke="#475569" stroke-width="0.5" opacity="0.97"/>
<text x="652" y="1333" text-anchor="middle" font-size="8.6" fill="#475569">是</text>
<path d="M 400,1432.0 L 520.0,1470 L 400,1508.0 L 280.0,1470 Z" fill="#fff7ed" stroke="#ea580c" stroke-width="1.6" filter="url(#sh)"/>
<text x="400" y="1468" text-anchor="middle" font-size="9.3" font-weight="bold" fill="#9a3412">Q2 涉及视觉识别?</text>
<path d="M 480,1378 L 430,1432" fill="none" stroke="#475569" stroke-width="1.6" marker-end="url(#ar-475569)"/>
<rect x="428.0" y="1402" width="14.0" height="15" rx="3" fill="#fff" stroke="#475569" stroke-width="0.5" opacity="0.97"/>
<text x="435" y="1413" text-anchor="middle" font-size="8.6" fill="#475569">否</text>
<rect x="700" y="1444" width="210" height="54" rx="7" fill="#faf5ff" stroke="#7c3aed" stroke-width="1.4" filter="url(#sh)"/>
<text x="805.0" y="1462" text-anchor="middle" font-size="12" font-weight="bold" fill="#0f172a">→ VLM调度</text>
<text x="710" y="1478" font-size="9.5" fill="#334155">感知器/E8:取图→VQA→阈值穿越</text>
<path d="M 520,1470 L 700,1470" fill="none" stroke="#475569" stroke-width="1.6" marker-end="url(#ar-475569)"/>
<rect x="613.0" y="1452" width="14.0" height="15" rx="3" fill="#fff" stroke="#475569" stroke-width="0.5" opacity="0.97"/>
<text x="620" y="1463" text-anchor="middle" font-size="8.6" fill="#475569">是</text>
<path d="M 360,1560.0 L 490.0,1600 L 360,1640.0 L 230.0,1600 Z" fill="#fff7ed" stroke="#ea580c" stroke-width="1.6" filter="url(#sh)"/>
<text x="360" y="1592" text-anchor="middle" font-size="9.3" font-weight="bold" fill="#9a3412">Q3 怕弱网/需离线?</text>
<text x="360" y="1605" text-anchor="middle" font-size="9.3" font-weight="bold" fill="#9a3412">(定时器·简单车控)</text>
<path d="M 400,1508 L 380,1560" fill="none" stroke="#475569" stroke-width="1.6" marker-end="url(#ar-475569)"/>
<rect x="378.0" y="1532" width="14.0" height="15" rx="3" fill="#fff" stroke="#475569" stroke-width="0.5" opacity="0.97"/>
<text x="385" y="1543" text-anchor="middle" font-size="8.6" fill="#475569">否</text>
<rect x="680" y="1578" width="230" height="54" rx="7" fill="#f0fdf4" stroke="#16a34a" stroke-width="1.4" filter="url(#sh)"/>
<text x="795.0" y="1596" text-anchor="middle" font-size="12" font-weight="bold" fill="#0f172a">→ 下发端侧(C10→E1)</text>
<text x="690" y="1612" font-size="9.5" fill="#334155">弱网闭环:规则放端上,断网也能跑</text>
<path d="M 490,1600 L 680,1602" fill="none" stroke="#16a34a" stroke-width="1.6" marker-end="url(#ar-16a34a)"/>
<rect x="593.0" y="1582" width="14.0" height="15" rx="3" fill="#fff" stroke="#16a34a" stroke-width="0.5" opacity="0.97"/>
<text x="600" y="1593" text-anchor="middle" font-size="8.6" fill="#16a34a">是</text>
<rect x="240" y="1710" width="230" height="50" rx="7" fill="#eff6ff" stroke="#2563eb" stroke-width="1.4" filter="url(#sh)"/>
<text x="355.0" y="1728" text-anchor="middle" font-size="12" font-weight="bold" fill="#0f172a">→ 默认回云端处理</text>
<text x="250" y="1744" font-size="9.5" fill="#334155">不怕弱网→回大脑统一编排</text>
<path d="M 360,1640 L 330,1710" fill="none" stroke="#475569" stroke-width="1.6" marker-end="url(#ar-475569)"/>
<rect x="328.0" y="1672" width="14.0" height="15" rx="3" fill="#fff" stroke="#475569" stroke-width="0.5" opacity="0.97"/>
<text x="335" y="1683" text-anchor="middle" font-size="8.6" fill="#475569">否</text>
<rect x="540" y="1710" width="360" height="50" rx="7" fill="#fef2f2" stroke="#dc2626" stroke-width="1.4" filter="url(#sh)"/>
<text x="720.0" y="1728" text-anchor="middle" font-size="12" font-weight="bold" fill="#0f172a">★ 兜底:端侧接不住→Planner兜底</text>
<text x="550" y="1744" font-size="9.5" fill="#334155">条件配不出/信号缺失→大脑顶</text>
<path d="M 490,1630 L 560,1720" fill="none" stroke="#dc2626" stroke-width="1.6" stroke-dasharray="4,3" marker-end="url(#ar-dc2626)"/>
<text x="48" y="1810" font-size="10.5" fill="#64748b">原则(需求9):云端=注册+裁决,端侧=判断+执行;复杂语义/模型类回云,简单+怕弱网下沉端侧,视觉走VLM。</text>
<text x="48" y="1840" font-size="10.5" fill="#64748b">⚠ 端云分工边界是架构级议题(泽民主导),决定哪些原子在云、哪些在端,是需求7/8(定时器/距离)的前置。</text>
<rect x="960" y="1190" width="1430" height="385" rx="10" fill="#eff6ff" stroke="#2563eb" stroke-width="1.6"/>
<text x="978" y="1216" font-size="15" font-weight="bold" fill="#1d4ed8">C3 条件判定 · 接口级（输入→处理→输出）</text>
<rect x="978" y="1230" width="300" height="100" rx="7" fill="#fff" stroke="#2563eb" stroke-width="1.4" filter="url(#sh)"/>
<text x="1128.0" y="1248" text-anchor="middle" font-size="11" font-weight="bold" fill="#0f172a">输入</text>
<text x="988" y="1264" font-size="9.3" fill="#334155">信号快照{key,value,source,ts}</text>
<text x="988" y="1278" font-size="9.3" fill="#334155">规则条件[]:{code,operator,value,</text>
<text x="988" y="1292" font-size="9.3" fill="#334155">  logic(AND/OR),group_index,group_logic}</text>
<text x="988" y="1306" font-size="9.3" fill="#334155">dynamic:operator_name=变更为/等于</text>
<rect x="1310" y="1230" width="640" height="180" rx="7" fill="#fff" stroke="#2563eb" stroke-width="1.4" filter="url(#sh)"/>
<text x="1630.0" y="1248" text-anchor="middle" font-size="11" font-weight="bold" fill="#0f172a">处理</text>
<text x="1320" y="1264" font-size="9.5" fill="#334155">① 规则判定:布尔(有/无)·数值阈值(=/&gt;/≥/range⚠)</text>
<text x="1320" y="1278" font-size="9.5" fill="#334155">② 状态变更"变更为":抓 关→开 上升沿(非当前态·需求5)</text>
<text x="1320" y="1292" font-size="9.5" fill="#334155">③ 持续时长⚠:连续满足N秒/循环N次</text>
<text x="1320" y="1306" font-size="9.5" fill="#334155">④ 模型推理:VLM语义条件("副驾在打哈欠")</text>
<text x="1320" y="1320" font-size="9.5" fill="#334155">⑤ group组合:组内AND/OR + 组间AND/OR</text>
<text x="1320" y="1334" font-size="9.5" fill="#334155">⑥ 条件全达成判定 → 命中</text>
<rect x="1982" y="1230" width="390" height="100" rx="7" fill="#fff" stroke="#2563eb" stroke-width="1.4" filter="url(#sh)"/>
<text x="2177.0" y="1248" text-anchor="middle" font-size="11" font-weight="bold" fill="#0f172a">输出</text>
<text x="1992" y="1264" font-size="9.3" fill="#334155">condition_met=命中/未命中</text>
<text x="1992" y="1278" font-size="9.3" fill="#334155">命中→C4抖动过滤</text>
<text x="1992" y="1292" font-size="9.3" fill="#334155">未命中→等下次扫描</text>
<path d="M 1278,1280 L 1310,1280" fill="none" stroke="#2563eb" stroke-width="1.6" marker-end="url(#ar-2563eb)"/>
<path d="M 1950,1310 L 1982,1280" fill="none" stroke="#2563eb" stroke-width="1.6" marker-end="url(#ar-2563eb)"/>
<rect x="978" y="1430" width="1394" height="120" rx="7" fill="#f8fafc" stroke="#475569" stroke-width="1.4" filter="url(#sh)"/>
<text x="1675.0" y="1448" text-anchor="middle" font-size="11" font-weight="bold" fill="#0f172a">要点/依据</text>
<text x="988" y="1464" font-size="9.4" fill="#334155">· operator真实集合(接口文档):= &gt; &gt;= &lt; &lt;= ; range/持续时长/group 列在"研发必须确认"⚠(评审大图)</text>
<text x="988" y="1478" font-size="9.4" fill="#334155">· "变更为"是需求5重构核心:现引擎只看当前态分不清上车/下车 → 改成抓"变化那一刻"</text>
<text x="988" y="1492" font-size="9.4" fill="#334155">· 模型推理类(VLM语义)与死规则混合判定;VLM结果先写信号库,再作为新信号二次触发</text>
<rect x="960" y="1590" width="1430" height="400" rx="10" fill="#faf5ff" stroke="#7c3aed" stroke-width="1.6"/>
<text x="978" y="1616" font-size="15" font-weight="bold" fill="#6d28d9">E8 VLM/Watcher 调度 · 接口级</text>
<rect x="978" y="1630" width="300" height="116" rx="7" fill="#fff" stroke="#7c3aed" stroke-width="1.4" filter="url(#sh)"/>
<text x="1128.0" y="1648" text-anchor="middle" font-size="11" font-weight="bold" fill="#0f172a">输入</text>
<text x="988" y="1664" font-size="9.2" fill="#334155">运行指令(7字段):</text>
<text x="988" y="1678" font-size="9.2" fill="#334155">task_id/task_goal/priority/</text>
<text x="988" y="1692" font-size="9.2" fill="#334155">timeout/mutex_group/</text>
<text x="988" y="1706" font-size="9.2" fill="#334155">trigger_source/expire_at</text>
<text x="988" y="1720" font-size="9.2" fill="#334155">图片URL:车内/车外/屏幕</text>
<rect x="1310" y="1630" width="640" height="200" rx="7" fill="#fff" stroke="#7c3aed" stroke-width="1.4" filter="url(#sh)"/>
<text x="1630.0" y="1648" text-anchor="middle" font-size="11" font-weight="bold" fill="#0f172a">处理</text>
<text x="1320" y="1664" font-size="9.5" fill="#334155">① 取图:按指令拉车内/车外/屏幕 image url</text>
<text x="1320" y="1678" font-size="9.5" fill="#334155">② 请求模型:VLM/小模型推理</text>
<text x="1320" y="1692" font-size="9.5" fill="#334155">③ VQA:输出 result+description (JSON)</text>
<text x="1320" y="1706" font-size="9.5" fill="#334155">④ 阈值穿越:last==False &amp; this==True 才触发</text>
<text x="1320" y="1720" font-size="9.5" fill="#334155">    (上升沿·持续True不重复→防轰炸)</text>
<text x="1320" y="1734" font-size="9.5" fill="#334155">⑤ event(瞬时)/state(持续) 两模式</text>
<text x="1320" y="1748" font-size="9.5" fill="#334155">⑥ 五态:success/empty/failed/timeout/interrupted</text>
<rect x="1982" y="1630" width="390" height="116" rx="7" fill="#fff" stroke="#7c3aed" stroke-width="1.4" filter="url(#sh)"/>
<text x="2177.0" y="1648" text-anchor="middle" font-size="11" font-weight="bold" fill="#0f172a">输出</text>
<text x="1992" y="1664" font-size="9.2" fill="#334155">终态→E10回写信号库</text>
<text x="1992" y="1678" font-size="9.2" fill="#334155">success:写标签+描述</text>
<text x="1992" y="1692" font-size="9.2" fill="#334155">empty:正常但没发现</text>
<text x="1992" y="1706" font-size="9.2" fill="#334155">timeout:不写伪果!</text>
<text x="1992" y="1720" font-size="9.2" fill="#334155">failed/interrupted</text>
<path d="M 1278,1688 L 1310,1688" fill="none" stroke="#7c3aed" stroke-width="1.6" marker-end="url(#ar-7c3aed)"/>
<path d="M 1950,1730 L 1982,1688" fill="none" stroke="#7c3aed" stroke-width="1.6" marker-end="url(#ar-7c3aed)"/>
<rect x="978" y="1850" width="1394" height="128" rx="7" fill="#f8fafc" stroke="#475569" stroke-width="1.4" filter="url(#sh)"/>
<text x="1675.0" y="1868" text-anchor="middle" font-size="11" font-weight="bold" fill="#0f172a">要点/依据/待确认</text>
<text x="988" y="1884" font-size="9.3" fill="#334155">· 阈值穿越是VLM"算不算触发"的真身(来自Advisor感知订阅):只在状态由无→有那一刻触发</text>
<text x="988" y="1898" font-size="9.3" fill="#334155">· 互斥组 VLM_CABIN/VLM_FRONT:同摄像头同时只跑一个;Always-on(P3)闲时3s/5s,被高优抢占后恢复</text>
<text x="988" y="1912" font-size="9.3" fill="#334155">· 铁律:timeout绝不写"无异常"(没结果≠没危险);empty(没发现)是有效信息,不是失败</text>
<text x="988" y="1926" font-size="9.3" fill="#334155">· ⚠待确认(评审大图):VLM并发固定1个还是按CABIN/FRONT分组;图片服务三类url是否稳定;上汽当期无端侧视觉(主战场赛力斯)</text>
</svg>