<?xml version="1.0" encoding="UTF-8"?>
<svg xmlns="http://www.w3.org/2000/svg" viewBox="0 0 1200 440" font-family="-apple-system,PingFang SC,Microsoft YaHei,sans-serif">
<defs>
<marker id="a-64748b" markerWidth="11" markerHeight="9" refX="8.5" refY="4.2" orient="auto"><path d="M0,0 L10,4.2 L0,8.4 z" fill="#64748b"/></marker>
<marker id="a-2563eb" markerWidth="11" markerHeight="9" refX="8.5" refY="4.2" orient="auto"><path d="M0,0 L10,4.2 L0,8.4 z" fill="#2563eb"/></marker>
<marker id="a-16a34a" markerWidth="11" markerHeight="9" refX="8.5" refY="4.2" orient="auto"><path d="M0,0 L10,4.2 L0,8.4 z" fill="#16a34a"/></marker>
<marker id="a-ea580c" markerWidth="11" markerHeight="9" refX="8.5" refY="4.2" orient="auto"><path d="M0,0 L10,4.2 L0,8.4 z" fill="#ea580c"/></marker>
<marker id="a-7c3aed" markerWidth="11" markerHeight="9" refX="8.5" refY="4.2" orient="auto"><path d="M0,0 L10,4.2 L0,8.4 z" fill="#7c3aed"/></marker>
<marker id="a-a16207" markerWidth="11" markerHeight="9" refX="8.5" refY="4.2" orient="auto"><path d="M0,0 L10,4.2 L0,8.4 z" fill="#a16207"/></marker>
<marker id="a-0891b2" markerWidth="11" markerHeight="9" refX="8.5" refY="4.2" orient="auto"><path d="M0,0 L10,4.2 L0,8.4 z" fill="#0891b2"/></marker>
<marker id="a-dc2626" markerWidth="11" markerHeight="9" refX="8.5" refY="4.2" orient="auto"><path d="M0,0 L10,4.2 L0,8.4 z" fill="#dc2626"/></marker>
<marker id="a-6d28d9" markerWidth="11" markerHeight="9" refX="8.5" refY="4.2" orient="auto"><path d="M0,0 L10,4.2 L0,8.4 z" fill="#6d28d9"/></marker>
<filter id="sh" x="-5%" y="-6%" width="110%" height="124%"><feDropShadow dx="0" dy="1" stdDeviation="1.1" flood-color="#000" flood-opacity="0.13"/></filter></defs>
<rect width="1200" height="440" fill="#ffffff"/>
<rect x="40" y="190" width="170" height="68" rx="9" fill="#e8f1ff" stroke="#2563eb" stroke-width="1.7" filter="url(#sh)"/>
<text x="125.0" y="210" text-anchor="middle" font-size="13" font-weight="bold" fill="#0f172a">⑨ 判=非车控</text>
<text x="125.0" y="228" text-anchor="middle" font-size="10" fill="#475569">对话/查询→绿线</text>
<rect x="260" y="170" width="220" height="100" rx="9" fill="#ede9fe" stroke="#6d28d9" stroke-width="1.7" filter="url(#sh)"/>
<text x="370.0" y="190" text-anchor="middle" font-size="13" font-weight="bold" fill="#0f172a">⑲ Director 汇入</text>
<text x="370.0" y="208" text-anchor="middle" font-size="10" fill="#475569">query/建议/反馈</text>
<text x="370.0" y="224" text-anchor="middle" font-size="10" fill="#475569">通知/GoalList/Context</text>
<rect x="260" y="320" width="220" height="56" rx="9" fill="#ecfeff" stroke="#0891b2" stroke-width="1.7" filter="url(#sh)"/>
<text x="370.0" y="340" text-anchor="middle" font-size="13" font-weight="bold" fill="#0f172a">㉑ Context</text>
<text x="370.0" y="358" text-anchor="middle" font-size="9.5" fill="#475569">偏好/端状态/记忆/日志</text>
<rect x="540" y="180" width="200" height="84" rx="9" fill="#ede9fe" stroke="#6d28d9" stroke-width="1.7" filter="url(#sh)"/>
<text x="640.0" y="200" text-anchor="middle" font-size="13" font-weight="bold" fill="#0f172a">⑳ Director 推理(大脑)</text>
<text x="640.0" y="218" text-anchor="middle" font-size="9.5" fill="#475569">talk_or_not</text>
<text x="640.0" y="234" text-anchor="middle" font-size="9.5" fill="#475569">talk_content / action_list</text>
<rect x="810" y="55" width="330" height="46" rx="9" fill="#dcfce7" stroke="#16a34a" stroke-width="1.7" filter="url(#sh)"/>
<text x="975.0" y="82.0" text-anchor="middle" font-size="13" font-weight="bold" fill="#0f172a">㉖ TTS 播报 → 用户听到</text>
<rect x="810" y="135" width="330" height="46" rx="9" fill="#dcfce7" stroke="#16a34a" stroke-width="1.7" filter="url(#sh)"/>
<text x="975.0" y="162.0" text-anchor="middle" font-size="13" font-weight="bold" fill="#0f172a">㉒ 工具库 → tool_feedback</text>
<rect x="810" y="215" width="330" height="46" rx="9" fill="#dcfce7" stroke="#16a34a" stroke-width="1.7" filter="url(#sh)"/>
<text x="975.0" y="242.0" text-anchor="middle" font-size="13" font-weight="bold" fill="#0f172a">㉗㉘ 机器人 / 车控执行</text>
<rect x="810" y="295" width="330" height="46" rx="9" fill="#dcfce7" stroke="#16a34a" stroke-width="1.7" filter="url(#sh)"/>
<text x="975.0" y="322.0" text-anchor="middle" font-size="13" font-weight="bold" fill="#0f172a">㉓ 任务中心 / 卡片岛</text>
<path d="M 210,224.0 L 260,220.0" fill="none" stroke="#16a34a" stroke-width="1.9" marker-end="url(#a-16a34a)"/>
<rect x="213.2" y="212.0" width="43.599999999999994" height="19" rx="4" fill="#fff" opacity="0.97" stroke="#16a34a" stroke-width="0.6"/>
<text x="235.0" y="225.5" text-anchor="middle" font-size="10.5" font-weight="bold" fill="#16a34a">进大脑</text>
<path d="M 370.0,320 L 370.0,270" fill="none" stroke="#0891b2" stroke-width="1.9" marker-end="url(#a-0891b2)"/>
<rect x="353.8" y="285.0" width="32.4" height="19" rx="4" fill="#fff" opacity="0.97" stroke="#0891b2" stroke-width="0.6"/>
<text x="370.0" y="298.5" text-anchor="middle" font-size="10.5" font-weight="bold" fill="#0891b2">注入</text>
<path d="M 480,220.0 L 540,222.0" fill="none" stroke="#16a34a" stroke-width="1.9" marker-end="url(#a-16a34a)"/>
<rect x="482.6" y="211.0" width="54.8" height="19" rx="4" fill="#fff" opacity="0.97" stroke="#16a34a" stroke-width="0.6"/>
<text x="510.0" y="224.5" text-anchor="middle" font-size="10.5" font-weight="bold" fill="#16a34a">汇入推理</text>
<path d="M 740,222.0 L 770,78 L 810,78.0" fill="none" stroke="#16a34a" stroke-width="1.9" marker-end="url(#a-16a34a)"/>
<rect x="747.6" y="140.0" width="54.8" height="19" rx="4" fill="#fff" opacity="0.97" stroke="#16a34a" stroke-width="0.6"/>
<text x="775.0" y="153.5" text-anchor="middle" font-size="10.5" font-weight="bold" fill="#16a34a">要说的话</text>
<path d="M 740,222.0 L 770,238 L 810,238.0" fill="none" stroke="#16a34a" stroke-width="1.9" marker-end="url(#a-16a34a)"/>
<rect x="742.0" y="220.0" width="66.0" height="19" rx="4" fill="#fff" opacity="0.97" stroke="#16a34a" stroke-width="0.6"/>
<text x="775.0" y="233.5" text-anchor="middle" font-size="10.5" font-weight="bold" fill="#16a34a">要做的动作</text>
<path d="M 740,222.0 L 775,318 L 810,318.0" fill="none" stroke="#16a34a" stroke-width="1.9" marker-end="url(#a-16a34a)"/>
<path d="M 810,158.0 L 560,158 L 420,290 L 370.0,270" fill="none" stroke="#16a34a" stroke-width="1.9" stroke-dasharray="5,3" marker-end="url(#a-16a34a)"/>
<rect x="534.6" y="140" width="110.8" height="19" rx="4" fill="#fff" opacity="0.97" stroke="#16a34a" stroke-width="0.6"/>
<text x="590" y="153.5" text-anchor="middle" font-size="10.5" font-weight="bold" fill="#16a34a">工具结果→二次推理</text>
</svg>