<?xml version="1.0" encoding="UTF-8"?>
<svg xmlns="http://www.w3.org/2000/svg" viewBox="0 0 1300 360" font-family="-apple-system,PingFang SC,Microsoft YaHei,sans-serif">
<defs>
<marker id="a-64748b" markerWidth="11" markerHeight="9" refX="8.5" refY="4.2" orient="auto"><path d="M0,0 L10,4.2 L0,8.4 z" fill="#64748b"/></marker>
<marker id="a-2563eb" markerWidth="11" markerHeight="9" refX="8.5" refY="4.2" orient="auto"><path d="M0,0 L10,4.2 L0,8.4 z" fill="#2563eb"/></marker>
<marker id="a-16a34a" markerWidth="11" markerHeight="9" refX="8.5" refY="4.2" orient="auto"><path d="M0,0 L10,4.2 L0,8.4 z" fill="#16a34a"/></marker>
<marker id="a-ea580c" markerWidth="11" markerHeight="9" refX="8.5" refY="4.2" orient="auto"><path d="M0,0 L10,4.2 L0,8.4 z" fill="#ea580c"/></marker>
<marker id="a-7c3aed" markerWidth="11" markerHeight="9" refX="8.5" refY="4.2" orient="auto"><path d="M0,0 L10,4.2 L0,8.4 z" fill="#7c3aed"/></marker>
<marker id="a-a16207" markerWidth="11" markerHeight="9" refX="8.5" refY="4.2" orient="auto"><path d="M0,0 L10,4.2 L0,8.4 z" fill="#a16207"/></marker>
<marker id="a-0891b2" markerWidth="11" markerHeight="9" refX="8.5" refY="4.2" orient="auto"><path d="M0,0 L10,4.2 L0,8.4 z" fill="#0891b2"/></marker>
<marker id="a-dc2626" markerWidth="11" markerHeight="9" refX="8.5" refY="4.2" orient="auto"><path d="M0,0 L10,4.2 L0,8.4 z" fill="#dc2626"/></marker>
<marker id="a-6d28d9" markerWidth="11" markerHeight="9" refX="8.5" refY="4.2" orient="auto"><path d="M0,0 L10,4.2 L0,8.4 z" fill="#6d28d9"/></marker>
<filter id="sh" x="-5%" y="-6%" width="110%" height="124%"><feDropShadow dx="0" dy="1" stdDeviation="1.1" flood-color="#000" flood-opacity="0.13"/></filter></defs>
<rect width="1300" height="360" fill="#ffffff"/>
<rect x="40" y="90" width="290" height="156" rx="11" fill="none" stroke="#2563eb" stroke-width="1.6" stroke-dasharray="6,4"/>
<rect x="52" y="79" width="76" height="22" rx="11" fill="#2563eb"/>
<text x="60" y="94" font-size="12" font-weight="bold" fill="#fff">注册登记</text>
<rect x="56" y="120" width="258" height="26" rx="5" fill="#fff" stroke="#2563eb" stroke-width="1.1"/>
<text x="64" y="137" font-size="10.2" fill="#1f2937">15-1 注册校验·iCanDo</text>
<rect x="56" y="152" width="258" height="26" rx="5" fill="#fff" stroke="#2563eb" stroke-width="1.1"/>
<text x="64" y="169" font-size="10.2" fill="#1f2937">15-2 场景库·静/动/预设</text>
<rect x="56" y="184" width="258" height="26" rx="5" fill="#fff" stroke="#2563eb" stroke-width="1.1"/>
<text x="64" y="201" font-size="10.2" fill="#1f2937">15-3 信号扫描·只读</text>
<rect x="360" y="90" width="290" height="188" rx="11" fill="none" stroke="#ea580c" stroke-width="1.6" stroke-dasharray="6,4"/>
<rect x="372" y="79" width="46" height="22" rx="11" fill="#ea580c"/>
<text x="380" y="94" font-size="12" font-weight="bold" fill="#fff">判定</text>
<rect x="376" y="120" width="258" height="26" rx="5" fill="#fff" stroke="#ea580c" stroke-width="1.1"/>
<text x="384" y="137" font-size="10.2" fill="#1f2937">15-4 条件判定·运算符</text>
<rect x="376" y="152" width="258" height="26" rx="5" fill="#fff" stroke="#ea580c" stroke-width="1.1"/>
<text x="384" y="169" font-size="10.2" fill="#1f2937">15-5 模型推理·VLM语义</text>
<rect x="376" y="184" width="258" height="26" rx="5" fill="#fff" stroke="#ea580c" stroke-width="1.1"/>
<text x="384" y="201" font-size="10.2" fill="#1f2937">15-6 抖动过滤</text>
<rect x="376" y="216" width="258" height="26" rx="5" fill="#fff" stroke="#ea580c" stroke-width="1.1"/>
<text x="384" y="233" font-size="10.2" fill="#1f2937">15-7 冷却频控</text>
<rect x="690" y="90" width="290" height="124" rx="11" fill="none" stroke="#6d28d9" stroke-width="1.6" stroke-dasharray="6,4"/>
<rect x="702" y="79" width="76" height="22" rx="11" fill="#6d28d9"/>
<text x="710" y="94" font-size="12" font-weight="bold" fill="#fff">仲裁分类</text>
<rect x="706" y="120" width="258" height="26" rx="5" fill="#fff" stroke="#6d28d9" stroke-width="1.1"/>
<text x="714" y="137" font-size="10.2" fill="#1f2937">15-8 优先级仲裁·P0-P4</text>
<rect x="706" y="152" width="258" height="26" rx="5" fill="#fff" stroke="#6d28d9" stroke-width="1.1"/>
<text x="714" y="169" font-size="10.2" fill="#1f2937">15-9 端云分类·云/端/VLM</text>
<rect x="960" y="90" width="290" height="156" rx="11" fill="none" stroke="#16a34a" stroke-width="1.6" stroke-dasharray="6,4"/>
<rect x="972" y="79" width="76" height="22" rx="11" fill="#16a34a"/>
<text x="980" y="94" font-size="12" font-weight="bold" fill="#fff">输出下发</text>
<rect x="976" y="120" width="258" height="26" rx="5" fill="#fff" stroke="#16a34a" stroke-width="1.1"/>
<text x="984" y="137" font-size="10.2" fill="#1f2937">15-10 标准事件·snapshot</text>
<rect x="976" y="152" width="258" height="26" rx="5" fill="#fff" stroke="#16a34a" stroke-width="1.1"/>
<text x="984" y="169" font-size="10.2" fill="#1f2937">15-11 Callback路由</text>
<rect x="976" y="184" width="258" height="26" rx="5" fill="#fff" stroke="#16a34a" stroke-width="1.1"/>
<text x="984" y="201" font-size="10.2" fill="#1f2937">15-12 场景下发·全/增/灰</text>
<path d="M 330,170 L 360,170" fill="none" stroke="#64748b" stroke-width="1.9" marker-end="url(#a-64748b)"/>
<path d="M 650,170 L 690,170" fill="none" stroke="#64748b" stroke-width="1.9" marker-end="url(#a-64748b)"/>
<path d="M 980,170 L 960,170" fill="none" stroke="#64748b" stroke-width="1.9" marker-end="url(#a-64748b)"/>
<rect x="520" y="300" width="260" height="46" rx="9" fill="#e8f1ff" stroke="#2563eb" stroke-width="1.7" filter="url(#sh)"/>
<text x="650.0" y="327.0" text-anchor="middle" font-size="13" font-weight="bold" fill="#0f172a">→ 命中:回Director / 下发㉔ / 写Context</text>
</svg>