<?xml version="1.0" encoding="UTF-8"?>
<svg xmlns="http://www.w3.org/2000/svg" viewBox="0 0 1320 430" font-family="-apple-system,PingFang SC,Microsoft YaHei,sans-serif">
<defs>
<marker id="a-64748b" markerWidth="11" markerHeight="9" refX="8.5" refY="4.2" orient="auto"><path d="M0,0 L10,4.2 L0,8.4 z" fill="#64748b"/></marker>
<marker id="a-2563eb" markerWidth="11" markerHeight="9" refX="8.5" refY="4.2" orient="auto"><path d="M0,0 L10,4.2 L0,8.4 z" fill="#2563eb"/></marker>
<marker id="a-16a34a" markerWidth="11" markerHeight="9" refX="8.5" refY="4.2" orient="auto"><path d="M0,0 L10,4.2 L0,8.4 z" fill="#16a34a"/></marker>
<marker id="a-ea580c" markerWidth="11" markerHeight="9" refX="8.5" refY="4.2" orient="auto"><path d="M0,0 L10,4.2 L0,8.4 z" fill="#ea580c"/></marker>
<marker id="a-7c3aed" markerWidth="11" markerHeight="9" refX="8.5" refY="4.2" orient="auto"><path d="M0,0 L10,4.2 L0,8.4 z" fill="#7c3aed"/></marker>
<marker id="a-a16207" markerWidth="11" markerHeight="9" refX="8.5" refY="4.2" orient="auto"><path d="M0,0 L10,4.2 L0,8.4 z" fill="#a16207"/></marker>
<marker id="a-0891b2" markerWidth="11" markerHeight="9" refX="8.5" refY="4.2" orient="auto"><path d="M0,0 L10,4.2 L0,8.4 z" fill="#0891b2"/></marker>
<marker id="a-dc2626" markerWidth="11" markerHeight="9" refX="8.5" refY="4.2" orient="auto"><path d="M0,0 L10,4.2 L0,8.4 z" fill="#dc2626"/></marker>
<marker id="a-6d28d9" markerWidth="11" markerHeight="9" refX="8.5" refY="4.2" orient="auto"><path d="M0,0 L10,4.2 L0,8.4 z" fill="#6d28d9"/></marker>
<filter id="sh" x="-5%" y="-6%" width="110%" height="124%"><feDropShadow dx="0" dy="1" stdDeviation="1.1" flood-color="#000" flood-opacity="0.13"/></filter></defs>
<rect width="1320" height="430" fill="#ffffff"/>
<rect x="40" y="90" width="250" height="124" rx="11" fill="none" stroke="#ea580c" stroke-width="1.6" stroke-dasharray="6,4"/>
<rect x="52" y="79" width="91" height="22" rx="11" fill="#ea580c"/>
<text x="60" y="94" font-size="12" font-weight="bold" fill="#fff">接收·持久</text>
<rect x="54" y="120" width="222" height="26" rx="5" fill="#fff" stroke="#ea580c" stroke-width="1.1"/>
<text x="62" y="137" font-size="10.2" fill="#1f2937">24-1 规则接收·灰度/回滚</text>
<rect x="54" y="152" width="222" height="26" rx="5" fill="#fff" stroke="#ea580c" stroke-width="1.1"/>
<text x="62" y="169" font-size="10.2" fill="#1f2937">24-2 本地持久化·重启恢复</text>
<rect x="300" y="90" width="250" height="124" rx="11" fill="none" stroke="#2563eb" stroke-width="1.6" stroke-dasharray="6,4"/>
<rect x="312" y="79" width="76" height="22" rx="11" fill="#2563eb"/>
<text x="320" y="94" font-size="12" font-weight="bold" fill="#fff">扫描判定</text>
<rect x="314" y="120" width="222" height="26" rx="5" fill="#fff" stroke="#2563eb" stroke-width="1.1"/>
<text x="322" y="137" font-size="10.2" fill="#1f2937">24-3 信号扫描·500ms</text>
<rect x="314" y="152" width="222" height="26" rx="5" fill="#fff" stroke="#2563eb" stroke-width="1.1"/>
<text x="322" y="169" font-size="10.2" fill="#1f2937">24-4 两级判定·时段→触发</text>
<rect x="560" y="90" width="250" height="156" rx="11" fill="none" stroke="#7c3aed" stroke-width="1.6" stroke-dasharray="6,4"/>
<rect x="572" y="79" width="136" height="22" rx="11" fill="#7c3aed"/>
<text x="580" y="94" font-size="12" font-weight="bold" fill="#fff">定时·防抖·仲裁</text>
<rect x="574" y="120" width="222" height="26" rx="5" fill="#fff" stroke="#7c3aed" stroke-width="1.1"/>
<text x="582" y="137" font-size="10.2" fill="#1f2937">24-5 本地定时器·弱网</text>
<rect x="574" y="152" width="222" height="26" rx="5" fill="#fff" stroke="#7c3aed" stroke-width="1.1"/>
<text x="582" y="169" font-size="10.2" fill="#1f2937">24-6 防抖冷却·Always-on 3s/5s</text>
<rect x="574" y="184" width="222" height="26" rx="5" fill="#fff" stroke="#7c3aed" stroke-width="1.1"/>
<text x="582" y="201" font-size="10.2" fill="#1f2937">24-7 优先级·互斥·抢占恢复</text>
<rect x="860" y="90" width="250" height="156" rx="11" fill="none" stroke="#6d28d9" stroke-width="1.6" stroke-dasharray="6,4"/>
<rect x="872" y="79" width="61" height="22" rx="11" fill="#6d28d9"/>
<text x="880" y="94" font-size="12" font-weight="bold" fill="#fff">VLM</text>
<rect x="874" y="120" width="222" height="26" rx="5" fill="#fff" stroke="#6d28d9" stroke-width="1.1"/>
<text x="882" y="137" font-size="10.2" fill="#1f2937">24-8 VLM调度·7字段</text>
<rect x="874" y="152" width="222" height="26" rx="5" fill="#fff" stroke="#6d28d9" stroke-width="1.1"/>
<text x="882" y="169" font-size="10.2" fill="#1f2937">24-9 VLM五态·超时不伪果</text>
<rect x="874" y="184" width="222" height="26" rx="5" fill="#fff" stroke="#6d28d9" stroke-width="1.1"/>
<text x="882" y="201" font-size="10.2" fill="#1f2937">24-10 阈值穿越·F→T</text>
<rect x="1120" y="90" width="180" height="124" rx="11" fill="none" stroke="#16a34a" stroke-width="1.6" stroke-dasharray="6,4"/>
<rect x="1132" y="79" width="91" height="22" rx="11" fill="#16a34a"/>
<text x="1140" y="94" font-size="12" font-weight="bold" fill="#fff">回写·执行</text>
<rect x="1134" y="120" width="152" height="26" rx="5" fill="#fff" stroke="#16a34a" stroke-width="1.1"/>
<text x="1142" y="137" font-size="10.2" fill="#1f2937">24-11 结果回写·Context</text>
<rect x="1134" y="152" width="152" height="26" rx="5" fill="#fff" stroke="#16a34a" stroke-width="1.1"/>
<text x="1142" y="169" font-size="10.2" fill="#1f2937">24-12 动作执行·白名单</text>
<path d="M 290,168 L 300,168" fill="none" stroke="#64748b" stroke-width="1.9" marker-end="url(#a-64748b)"/>
<path d="M 550,168 L 560,168" fill="none" stroke="#64748b" stroke-width="1.9" marker-end="url(#a-64748b)"/>
<path d="M 810,168 L 860,168" fill="none" stroke="#64748b" stroke-width="1.9" marker-end="url(#a-64748b)"/>
<path d="M 1110,168 L 1120,168" fill="none" stroke="#64748b" stroke-width="1.9" marker-end="url(#a-64748b)"/>
<rect x="40" y="330" width="651" height="46" rx="8" fill="#fef3c7" stroke="#d97706" stroke-width="1.1"/>
<text x="52" y="352" font-size="10.5" fill="#7c2d12">常开感知 Always-on:摄像头持续盯(二排宝宝/副驾) → 24-6 给冷却(P0不冷却·其余 3s/5s)</text>
<text x="52" y="368" font-size="10.5" fill="#7c2d12">它一直占着摄像头 → 高优先级 VQA 来 → 24-7 抢占 → 执行 → 再恢复 Always-on</text>
</svg>